<?xml version="1.0" encoding="UTF-8"?>
<svg id="_レイヤー_1" data-name="レイヤー_1" xmlns="http://www.w3.org/2000/svg" version="1.1" viewBox="0 0 37 140">
  <!-- Generator: Adobe Illustrator 29.8.1, SVG Export Plug-In . SVG Version: 2.1.1 Build 2)  -->
  <path d="M11.86,13.66c-.16.52-.26.91-.94,3.56-1.26,4.92-2.75,8.25-5.47,12.1-.65-.58-1.17-.94-1.97-1.33,2.49-3.23,3.82-5.89,5.01-10.06.55-1.94.87-3.56.97-4.85l2.39.58ZM19.91,5.83c-.13.87-.19,1.84-.19,3.3v22.26c0,2.07-.74,2.65-3.43,2.65-1.33,0-2.62-.06-4.46-.23-.1-1-.23-1.46-.58-2.39,2.07.39,3.49.55,4.79.55,1.16,0,1.46-.16,1.46-.81V9.1c0-1.39-.06-2.33-.19-3.27h2.62ZM27.16,12.88c.26,1.88.78,3.66,2,6.7,1.26,3.17,2.62,5.5,4.82,8.22-.84.58-1.29.97-1.84,1.62-2.75-3.69-3.98-6.05-5.5-10.29-.03-.03-.52-1.68-1.55-4.95q-.13-.39-.23-.65l2.3-.65Z"/>
  <path d="M14.83,60.11c-3.69,4.43-6.15,6.6-10.03,8.83-.36-.78-.71-1.29-1.26-1.91,3.07-1.46,5.24-3.17,7.86-6.18.78-.87,1.16-1.46,1.58-2.23l1.84,1.49ZM14.51,50.99q-.45.42-1.55,1.52c-2.65,2.62-5.21,4.5-8.09,5.95-.32-.78-.55-1.16-1.1-1.94,2.88-1.26,4.79-2.59,7.38-5.11.84-.84,1.23-1.33,1.62-1.91l1.75,1.49ZM14.22,42.51q-.29.26-.87.84c-2.75,2.68-5.3,4.59-8.31,6.21-.29-.68-.78-1.42-1.16-1.91,2.88-1.29,4.88-2.69,7.08-4.88.71-.71,1.04-1.07,1.39-1.65l1.88,1.39ZM20.85,65.51c-2.65,2.33-4.37,3.33-7.89,4.69-.29-.55-.68-1.1-1.2-1.68,3.56-1.16,5.31-2.13,7.63-4.24l1.46,1.23ZM17.91,44.03c-1.46,0-2.23.03-3.11.16v-2.2c.91.13,1.91.19,3.23.19h11.61c1.33,0,2.39-.06,3.3-.19v2.2c-.68-.13-1.46-.16-3.2-.16h-5.37c-.45,1.26-.94,2.39-1.42,3.36h5.37c1.42,0,2.26-.03,2.98-.13-.1.81-.13,1.68-.13,3.07v10.42c0,1.36.03,2.3.13,3.17-.84-.1-1.75-.13-2.91-.13h-9.8c-1.16,0-1.91.03-2.81.13.1-.94.13-1.91.13-3.07v-10.68c0-1.13-.03-2.01-.13-2.91.78.1,1.33.13,2.75.13h2.33c.62-1.13,1.04-2.14,1.42-3.36h-4.37ZM17.87,52.22h11.32v-3.11h-11.32v3.11ZM17.87,57h11.32v-3.11h-11.32v3.11ZM17.87,62.05h11.32v-3.36h-11.32v3.36ZM26.48,64.19c2.26,2.1,3.85,3.04,7.12,4.17-.48.55-.84,1.13-1.16,1.78-3.33-1.36-5.21-2.52-7.57-4.82l1.62-1.13Z"/>
  <path d="M10.11,94.4c-.49,5.05-1.68,8.15-4.53,11.78-.91-.87-1.1-1.04-1.84-1.52,3.59-4.17,4.5-7.54,4.5-17.02,0-1.75-.03-2.72-.13-3.79,1.04.1,1.78.13,3.23.13h15.49c1.33,0,2.2-.03,3.07-.13-.1.84-.13,1.55-.13,2.91v6.7c0,1.52.03,2.39.16,3.24h-2.3v-2.3H10.11ZM32.56,80.39c-1.13-.16-1.97-.19-3.59-.19H8.85c-1.49,0-2.49.06-3.59.19v-2.3c1.04.13,2.01.19,3.59.19h20.12c1.65,0,2.55-.06,3.59-.19v2.3ZM27.64,92.49v-6.6H10.37v2.91c0,.87-.06,2.88-.16,3.69h17.44Z"/>
  <path d="M17.16,124.61c-1.88,4.27-3.78,6.21-6.11,6.21-3.07,0-5.37-3.36-5.37-7.89,0-3.3,1.23-6.5,3.4-8.93,2.59-2.85,6.11-4.3,10.45-4.3,3.62,0,6.79,1.13,8.9,3.2,2.04,1.97,3.14,4.79,3.14,7.89,0,5.01-2.72,9.15-7.41,11.16-1.46.62-2.68,1-4.92,1.49-.32-1.07-.52-1.39-1.13-2.17,2.36-.39,3.88-.81,5.4-1.52,3.56-1.62,5.73-5.08,5.73-9.06,0-3.69-1.88-6.66-5.14-8.12-1.2-.52-2.13-.74-3.75-.81-.49,4.5-1.71,9.45-3.17,12.84ZM13.18,113.32c-3.27,1.97-5.27,5.63-5.27,9.64,0,3.11,1.36,5.5,3.11,5.5,1.36,0,2.65-1.52,4.04-4.69,1.33-3.04,2.52-7.83,2.94-11.97-1.94.16-3.33.62-4.82,1.52Z"/>
</svg>