<?xml version="1.0" encoding="UTF-8"?>
<svg id="_レイヤー_1" data-name="レイヤー_1" xmlns="http://www.w3.org/2000/svg" version="1.1" viewBox="0 0 37 144">
  <!-- Generator: Adobe Illustrator 29.8.1, SVG Export Plug-In . SVG Version: 2.1.1 Build 2)  -->
  <path d="M13.53,19.58c-2.1,1.74-3.07,3.23-3.07,4.74s.94,2.55,2.74,3.16c1.23.42,3.36.65,5.91.65,4.03,0,7.87-.48,9.68-1.23l.29,2.65c-.42.03-.55.06-1.1.16-2.81.48-5.87.74-8.71.74-3.1,0-5.84-.39-7.42-1-2.42-1-3.68-2.65-3.68-4.87,0-2.1,1.23-4.13,3.71-6.23l1.65,1.23ZM10.14,7.8c2.36.55,4.91.77,8.58.77s6.39-.23,8.17-.68l.16,2.13c-2,.84-4.97,2.61-8.13,4.91l-1.65-1.32c2.07-1.39,2.84-1.87,4.29-2.68.36-.19.42-.23.81-.42.23-.13.29-.13.61-.32-1.94.32-3.03.42-4.87.42-2.26,0-5-.16-7.1-.42-.58-.06-.65-.1-1.07-.1l.19-2.29Z"/>
  <path d="M4.62,60.19c.9-.58,3.23-2.84,5.68-5.45.03-1.29.1-3.32.19-6.16q-4.32.29-5.07.45l-.13-2.23c.52.06.71.06,1,.06.1,0,1.52-.1,4.23-.26.1-2.45.13-3.9.13-4.32,0-.68-.03-.97-.1-1.61l2.55.03c-.16.77-.26,1.81-.39,5.74.29-.03.39-.06.65-.16l.84,1c-.42.35-.81.84-1.65,2,0,.35,0,.61-.03.81q-.03.65-.06,2.16s0,.13-.03.29c0,.26-.03.32-.03.52l.06.03c.48-.71,1.58-1.74,4.1-3.78,2.94-2.36,5.36-3.55,7.29-3.55,2.32,0,3.78,1.45,3.78,3.78,0,1.1-.19,2.29-.74,4.71-1.19,5.2-1.39,6.33-1.39,7.65,0,1.48.68,2.29,1.94,2.29.87,0,1.97-.71,2.74-1.77.81-1.13,1.45-2.45,1.84-3.71.68,1.19.87,1.48,1.48,2.19-.9,1.71-1.26,2.29-2,3.19-1.29,1.58-2.74,2.32-4.45,2.32-.84,0-1.68-.26-2.26-.68-1.06-.74-1.52-1.87-1.52-3.68,0-1.65.06-2,1.23-7.52.65-2.94.81-3.97.81-4.84,0-1.06-.68-1.74-1.78-1.74-1.26,0-2.81.71-4.87,2.19-1.94,1.42-2.84,2.23-6.23,5.49v6.97c0,4.13,0,4.39.1,5.36h-2.52q.19-1.19.23-5.32,0-3.78.1-5.23h-.06c-.13.26-.23.35-.58.77q-.48.55-1.58,1.77c-.36.39-.81.9-1.36,1.52-.52.58-.61.68-.84,1.03l-1.29-2.32Z"/>
  <path d="M5.23,84.17c1.16-.03,4.52-.42,7.13-.84.55-2.39.97-5.49.97-6.84v-.42l2.58.29c-.23.71-.32,1.26-.61,3.1-.16.94-.39,2.13-.68,3.68.74-.06,1.16-.1,1.9-.1,2.29,0,3.65.39,4.65,1.36,1.13,1.07,1.58,2.55,1.58,5.2,0,4.94-.84,9.23-2.16,11.1-.77,1.1-1.65,1.52-3.16,1.52-1.39,0-2.74-.35-4.87-1.26.06-.48.06-.71.06-1.13,0-.48,0-.71-.1-1.29,1.84.94,3.65,1.48,4.81,1.48.81,0,1.42-.52,1.84-1.55.87-2.07,1.36-5.36,1.36-8.97,0-3.42-.97-4.52-3.97-4.52-.71,0-1.13.03-2.32.16-1.19,5.1-2.68,9.23-4.87,13.68-.42.78-1.1,2.07-2.1,3.87l-2.19-1.29c1-1.26,2.23-3.39,3.36-5.84,1.52-3.23,2.49-6.07,3.55-10.23-2.78.42-4.32.68-4.61.74-.74.13-1,.19-1.87.42l-.26-2.32ZM26.44,81.2c3.29,3.55,5.23,6.87,6.75,11.42l-2.07,1.19c-1.23-4.45-3.45-8.39-6.58-11.59l1.9-1.03Z"/>
  <path d="M12.4,117.77c-.29,1-.45,1.78-.74,3.55-.77,4.68-.84,4.91-.94,5.65-.03.39-.06.45-.13.74l.06.03c.42-.45.65-.68,1-.97,2.23-1.71,5.78-2.78,9.33-2.78,5.26,0,8.65,2.45,8.65,6.23,0,2.16-1.1,4.26-2.9,5.55-2.07,1.45-4.62,2.13-8.04,2.13-1.94,0-3.87-.19-5.65-.58q-.61-.16-2.58-.65c.03-.29.03-.48.03-.61,0-.74-.03-1.16-.23-2,2.45,1,5.52,1.61,8.23,1.61,5.33,0,8.71-2.13,8.71-5.42,0-2.65-2.32-4.2-6.26-4.2-3.29,0-6.62,1.03-9.04,2.81-.52.39-.74.61-1.29,1.32l-2.52-.06c.1-.58.13-.87.26-1.9.32-2.45.9-6.2,1.36-8.91.16-.87.19-1.13.23-1.71l2.45.16ZM13.82,112.15c2.52,1.42,7.42,3.04,10.94,3.58l-.9,2.26q-4.13-1.06-6.29-1.84t-4.94-2.03l1.19-1.97Z"/>
</svg>