<svg xmlns="http://www.w3.org/2000/svg" xmlns:xlink="http://www.w3.org/1999/xlink" width="40" zoomAndPan="magnify" viewBox="0 0 30 104.999996" height="140" preserveAspectRatio="xMidYMid meet" version="1.0"><defs><g/></defs><g fill="#000000" fill-opacity="1"><g transform="translate(3.207643, 21.745231)"><g><path d="M 14.140625 -11.484375 L 16.53125 -11.484375 C 16.894531 -12.035156 17.179688 -12.53125 17.390625 -12.96875 C 17.597656 -13.40625 17.8125 -13.914062 18.03125 -14.5 L 9.59375 -14.5 L 9.59375 -13.515625 C 9.59375 -11.046875 9.4375 -8.925781 9.125 -7.15625 C 8.820312 -5.382812 8.328125 -3.769531 7.640625 -2.3125 C 7.335938 -2.65625 7.117188 -2.882812 6.984375 -3 C 6.859375 -3.125 6.660156 -3.285156 6.390625 -3.484375 C 7.003906 -4.835938 7.445312 -6.316406 7.71875 -7.921875 C 8 -9.535156 8.140625 -11.453125 8.140625 -13.671875 L 8.140625 -16.96875 C 8.140625 -17.332031 8.128906 -17.710938 8.109375 -18.109375 C 8.097656 -18.515625 8.082031 -18.828125 8.0625 -19.046875 C 8.46875 -19.035156 8.867188 -19.023438 9.265625 -19.015625 C 9.660156 -19.003906 10.125 -19 10.65625 -19 L 19.140625 -19 C 19.679688 -19 20.144531 -19.003906 20.53125 -19.015625 C 20.925781 -19.023438 21.328125 -19.035156 21.734375 -19.046875 C 21.722656 -18.828125 21.707031 -18.519531 21.6875 -18.125 C 21.675781 -17.738281 21.671875 -17.351562 21.671875 -16.96875 L 21.671875 -16.15625 C 21.671875 -15.738281 21.675781 -15.304688 21.6875 -14.859375 C 21.707031 -14.410156 21.722656 -14.078125 21.734375 -13.859375 L 20.1875 -13.859375 L 20.1875 -14.5 L 18.078125 -14.5 L 19.5625 -13.75 C 19.707031 -13.6875 19.78125 -13.59375 19.78125 -13.46875 C 19.78125 -13.382812 19.734375 -13.320312 19.640625 -13.28125 C 19.546875 -13.25 19.375 -13.21875 19.125 -13.1875 C 19.007812 -12.988281 18.875 -12.769531 18.71875 -12.53125 C 18.5625 -12.289062 18.347656 -11.941406 18.078125 -11.484375 L 19.515625 -11.484375 C 19.867188 -11.484375 20.269531 -11.484375 20.71875 -11.484375 C 21.164062 -11.492188 21.550781 -11.507812 21.875 -11.53125 L 21.875 -10.09375 C 21.550781 -10.101562 21.164062 -10.113281 20.71875 -10.125 C 20.269531 -10.132812 19.867188 -10.140625 19.515625 -10.140625 L 16.546875 -10.140625 L 16.546875 -8.65625 L 19 -8.65625 C 19.363281 -8.65625 19.765625 -8.65625 20.203125 -8.65625 C 20.640625 -8.664062 21.023438 -8.679688 21.359375 -8.703125 L 21.359375 -7.265625 C 21.023438 -7.273438 20.640625 -7.285156 20.203125 -7.296875 C 19.765625 -7.304688 19.363281 -7.3125 19 -7.3125 L 16.546875 -7.3125 L 16.546875 -5.703125 L 20.046875 -5.703125 C 20.390625 -5.703125 20.78125 -5.707031 21.21875 -5.71875 C 21.65625 -5.726562 22.050781 -5.738281 22.40625 -5.75 L 22.40625 -4.296875 C 22.050781 -4.304688 21.65625 -4.316406 21.21875 -4.328125 C 20.78125 -4.335938 20.390625 -4.34375 20.046875 -4.34375 L 16.546875 -4.34375 C 16.546875 -3.601562 16.550781 -2.929688 16.5625 -2.328125 C 16.570312 -1.722656 16.582031 -1.238281 16.59375 -0.875 L 14.953125 -0.875 C 14.992188 -1.675781 15.015625 -2.832031 15.015625 -4.34375 L 11.796875 -4.34375 C 11.441406 -4.34375 11.046875 -4.335938 10.609375 -4.328125 C 10.171875 -4.316406 9.785156 -4.304688 9.453125 -4.296875 L 9.453125 -5.75 C 9.785156 -5.738281 10.171875 -5.726562 10.609375 -5.71875 C 11.046875 -5.707031 11.441406 -5.703125 11.796875 -5.703125 L 15.015625 -5.703125 L 15.015625 -7.3125 L 12.875 -7.3125 C 12.53125 -7.3125 12.132812 -7.304688 11.6875 -7.296875 C 11.238281 -7.285156 10.847656 -7.273438 10.515625 -7.265625 L 10.515625 -8.703125 C 10.847656 -8.679688 11.238281 -8.664062 11.6875 -8.65625 C 12.132812 -8.65625 12.53125 -8.65625 12.875 -8.65625 L 15.015625 -8.65625 L 15.015625 -10.140625 L 12.6875 -10.140625 C 12.34375 -10.140625 11.945312 -10.132812 11.5 -10.125 C 11.0625 -10.113281 10.675781 -10.101562 10.34375 -10.09375 L 10.34375 -11.53125 C 10.675781 -11.507812 11.0625 -11.492188 11.5 -11.484375 C 11.945312 -11.484375 12.34375 -11.484375 12.6875 -11.484375 L 13.46875 -11.484375 C 12.957031 -12.378906 12.460938 -13.078125 11.984375 -13.578125 L 13.078125 -14.359375 C 13.398438 -14.023438 13.65625 -13.738281 13.84375 -13.5 C 14.039062 -13.257812 14.21875 -13.023438 14.375 -12.796875 C 14.539062 -12.566406 14.71875 -12.296875 14.90625 -11.984375 Z M 20.1875 -15.78125 L 20.1875 -17.65625 L 9.59375 -17.65625 L 9.59375 -15.78125 Z M 5.890625 -7.78125 L 5.890625 -2.71875 C 6.191406 -2.332031 6.5 -2.019531 6.8125 -1.78125 C 7.125 -1.539062 7.523438 -1.304688 8.015625 -1.078125 C 8.472656 -0.878906 8.910156 -0.71875 9.328125 -0.59375 C 9.753906 -0.46875 10.226562 -0.367188 10.75 -0.296875 C 11.269531 -0.222656 11.875 -0.171875 12.5625 -0.140625 C 13.257812 -0.109375 14.101562 -0.09375 15.09375 -0.09375 C 15.96875 -0.09375 16.878906 -0.0976562 17.828125 -0.109375 C 18.785156 -0.128906 19.695312 -0.160156 20.5625 -0.203125 C 21.4375 -0.242188 22.191406 -0.28125 22.828125 -0.3125 C 22.671875 -0.0195312 22.5625 0.234375 22.5 0.453125 C 22.4375 0.679688 22.390625 0.972656 22.359375 1.328125 C 21.347656 1.335938 20.515625 1.347656 19.859375 1.359375 C 19.210938 1.378906 18.632812 1.394531 18.125 1.40625 C 17.625 1.414062 17.085938 1.421875 16.515625 1.421875 C 15.953125 1.421875 15.25 1.421875 14.40625 1.421875 C 12.894531 1.421875 11.609375 1.320312 10.546875 1.125 C 9.484375 0.925781 8.488281 0.609375 7.5625 0.171875 C 7.050781 -0.0664062 6.601562 -0.347656 6.21875 -0.671875 C 5.84375 -0.992188 5.488281 -1.382812 5.15625 -1.84375 C 4.9375 -1.59375 4.738281 -1.382812 4.5625 -1.21875 C 4.394531 -1.050781 4.226562 -0.878906 4.0625 -0.703125 C 4 -0.640625 3.878906 -0.535156 3.703125 -0.390625 C 3.523438 -0.242188 3.304688 -0.0390625 3.046875 0.21875 C 2.984375 0.28125 2.882812 0.367188 2.75 0.484375 C 2.625 0.597656 2.476562 0.734375 2.3125 0.890625 C 2.195312 1.242188 2.078125 1.421875 1.953125 1.421875 C 1.878906 1.421875 1.78125 1.347656 1.65625 1.203125 L 0.609375 -0.078125 C 1.347656 -0.523438 2.003906 -0.953125 2.578125 -1.359375 C 3.148438 -1.773438 3.753906 -2.257812 4.390625 -2.8125 L 4.390625 -8.34375 L 3.140625 -8.34375 C 2.828125 -8.34375 2.445312 -8.335938 2 -8.328125 C 1.550781 -8.328125 1.179688 -8.316406 0.890625 -8.296875 L 0.890625 -9.875 C 1.160156 -9.863281 1.515625 -9.851562 1.953125 -9.84375 C 2.390625 -9.832031 2.785156 -9.828125 3.140625 -9.828125 L 3.765625 -9.828125 C 4.316406 -9.828125 4.710938 -9.828125 4.953125 -9.828125 C 5.203125 -9.828125 5.382812 -9.832031 5.5 -9.84375 C 5.625 -9.851562 5.769531 -9.863281 5.9375 -9.875 C 5.9375 -9.738281 5.929688 -9.617188 5.921875 -9.515625 C 5.921875 -9.410156 5.921875 -9.234375 5.921875 -8.984375 C 5.921875 -8.742188 5.910156 -8.34375 5.890625 -7.78125 Z M 1.75 -17.796875 L 2.8125 -18.765625 C 3.289062 -18.335938 3.707031 -17.945312 4.0625 -17.59375 C 4.414062 -17.25 4.742188 -16.890625 5.046875 -16.515625 C 5.359375 -16.148438 5.679688 -15.726562 6.015625 -15.25 L 4.640625 -14.21875 C 4.378906 -14.613281 4.148438 -14.941406 3.953125 -15.203125 C 3.753906 -15.472656 3.5625 -15.722656 3.375 -15.953125 C 3.1875 -16.191406 2.960938 -16.453125 2.703125 -16.734375 C 2.453125 -17.023438 2.132812 -17.378906 1.75 -17.796875 Z M 1.75 -17.796875 "/></g></g></g><g fill="#000000" fill-opacity="1"><g transform="translate(3.207643, 45.933695)"><g><path d="M 3.71875 -15.484375 L 5.40625 -15.28125 C 5.75 -15.226562 5.921875 -15.09375 5.921875 -14.875 C 5.921875 -14.78125 5.882812 -14.703125 5.8125 -14.640625 C 5.738281 -14.578125 5.59375 -14.507812 5.375 -14.4375 C 5.332031 -13.988281 5.289062 -13.566406 5.25 -13.171875 C 5.21875 -12.785156 5.191406 -12.347656 5.171875 -11.859375 C 5.160156 -11.367188 5.15625 -10.753906 5.15625 -10.015625 C 5.15625 -7.515625 5.601562 -5.566406 6.5 -4.171875 C 6.789062 -3.734375 7.078125 -3.390625 7.359375 -3.140625 C 7.648438 -2.890625 7.914062 -2.765625 8.15625 -2.765625 C 8.425781 -2.765625 8.671875 -2.953125 8.890625 -3.328125 C 9.046875 -3.609375 9.222656 -4.050781 9.421875 -4.65625 C 9.628906 -5.257812 9.789062 -5.828125 9.90625 -6.359375 C 10.125 -6.203125 10.285156 -6.082031 10.390625 -6 C 10.503906 -5.914062 10.617188 -5.835938 10.734375 -5.765625 C 10.859375 -5.691406 11.03125 -5.578125 11.25 -5.421875 C 10.875 -3.835938 10.453125 -2.695312 9.984375 -2 C 9.523438 -1.3125 8.929688 -0.96875 8.203125 -0.96875 C 7.671875 -0.96875 7.125 -1.175781 6.5625 -1.59375 C 6.007812 -2.019531 5.503906 -2.617188 5.046875 -3.390625 C 4.515625 -4.253906 4.132812 -5.222656 3.90625 -6.296875 C 3.675781 -7.367188 3.5625 -8.6875 3.5625 -10.25 C 3.5625 -10.675781 3.566406 -11.117188 3.578125 -11.578125 C 3.597656 -12.046875 3.613281 -12.566406 3.625 -13.140625 C 3.675781 -13.742188 3.703125 -14.125 3.703125 -14.28125 C 3.734375 -14.675781 3.75 -14.9375 3.75 -15.0625 C 3.75 -15.1875 3.738281 -15.328125 3.71875 -15.484375 Z M 15.34375 -12.984375 L 16.453125 -14 C 17.367188 -13.101562 18.132812 -12.253906 18.75 -11.453125 C 19.363281 -10.648438 19.890625 -9.800781 20.328125 -8.90625 C 20.765625 -8.007812 21.164062 -6.984375 21.53125 -5.828125 L 19.828125 -5.046875 C 19.398438 -6.660156 18.835938 -8.09375 18.140625 -9.34375 C 17.441406 -10.59375 16.507812 -11.804688 15.34375 -12.984375 Z M 15.34375 -12.984375 "/></g></g></g><g fill="#000000" fill-opacity="1"><g transform="translate(3.207643, 70.181089)"><g><path d="M 11.21875 -13.421875 L 11.53125 -13.8125 L 12.703125 -12.796875 C 12.828125 -12.691406 12.890625 -12.582031 12.890625 -12.46875 C 12.890625 -12.332031 12.757812 -12.222656 12.5 -12.140625 L 12.375 -12.09375 C 11.96875 -10.445312 11.507812 -9.019531 11 -7.8125 C 10.5 -6.613281 9.890625 -5.488281 9.171875 -4.4375 C 8.609375 -3.613281 7.988281 -2.851562 7.3125 -2.15625 C 6.644531 -1.457031 5.867188 -0.78125 4.984375 -0.125 C 4.109375 0.519531 3.078125 1.195312 1.890625 1.90625 C 1.796875 1.75 1.71875 1.628906 1.65625 1.546875 C 1.601562 1.460938 1.53125 1.363281 1.4375 1.25 C 1.289062 1.09375 1.191406 0.984375 1.140625 0.921875 C 1.097656 0.859375 1.03125 0.765625 0.9375 0.640625 C 2.125 -0.0546875 3.128906 -0.707031 3.953125 -1.3125 C 4.773438 -1.925781 5.492188 -2.550781 6.109375 -3.1875 C 6.734375 -3.832031 7.3125 -4.546875 7.84375 -5.328125 C 6.757812 -6.472656 5.597656 -7.539062 4.359375 -8.53125 C 3.992188 -7.90625 3.59375 -7.304688 3.15625 -6.734375 C 2.726562 -6.160156 2.195312 -5.535156 1.5625 -4.859375 C 1.46875 -5.015625 1.335938 -5.203125 1.171875 -5.421875 C 1.003906 -5.640625 0.8125 -5.898438 0.59375 -6.203125 C 1.125 -6.796875 1.582031 -7.351562 1.96875 -7.875 C 2.363281 -8.40625 2.71875 -8.941406 3.03125 -9.484375 C 3.351562 -10.023438 3.65625 -10.628906 3.9375 -11.296875 C 4.34375 -12.222656 4.6875 -13.132812 4.96875 -14.03125 C 5.257812 -14.9375 5.5 -15.894531 5.6875 -16.90625 L 3.53125 -16.90625 C 3.1875 -16.90625 2.796875 -16.898438 2.359375 -16.890625 C 1.921875 -16.878906 1.523438 -16.867188 1.171875 -16.859375 L 1.171875 -18.4375 C 1.523438 -18.425781 1.921875 -18.414062 2.359375 -18.40625 C 2.796875 -18.394531 3.1875 -18.390625 3.53125 -18.390625 L 11.59375 -18.390625 C 11.957031 -18.390625 12.359375 -18.394531 12.796875 -18.40625 C 13.242188 -18.414062 13.628906 -18.425781 13.953125 -18.4375 L 13.953125 -16.859375 C 13.628906 -16.867188 13.242188 -16.878906 12.796875 -16.890625 C 12.359375 -16.898438 11.957031 -16.90625 11.59375 -16.90625 L 7.28125 -16.90625 C 7.050781 -15.757812 6.769531 -14.597656 6.4375 -13.421875 Z M 5.234375 -10.234375 L 5.015625 -9.8125 C 5.367188 -9.570312 5.710938 -9.335938 6.046875 -9.109375 C 6.390625 -8.878906 6.71875 -8.632812 7.03125 -8.375 C 7.644531 -7.882812 8.21875 -7.359375 8.75 -6.796875 C 9.21875 -7.609375 9.597656 -8.453125 9.890625 -9.328125 C 10.191406 -10.210938 10.472656 -11.101562 10.734375 -12 L 5.96875 -12 C 5.757812 -11.4375 5.515625 -10.847656 5.234375 -10.234375 Z M 19.671875 -19.234375 L 21.453125 -19.078125 C 21.691406 -19.046875 21.8125 -18.96875 21.8125 -18.84375 C 21.8125 -18.71875 21.671875 -18.566406 21.390625 -18.390625 C 21.390625 -18.179688 21.382812 -17.988281 21.375 -17.8125 C 21.363281 -17.632812 21.359375 -17.367188 21.359375 -17.015625 C 21.359375 -16.660156 21.351562 -16.113281 21.34375 -15.375 C 21.34375 -14.644531 21.34375 -13.625 21.34375 -12.3125 L 21.34375 -6.5 C 21.34375 -6.113281 21.34375 -5.660156 21.34375 -5.140625 C 21.351562 -4.617188 21.363281 -3.988281 21.375 -3.25 C 21.394531 -2.507812 21.414062 -1.597656 21.4375 -0.515625 L 21.4375 -0.3125 C 21.4375 0.175781 21.375 0.550781 21.25 0.8125 C 21.132812 1.070312 20.9375 1.28125 20.65625 1.4375 C 20.445312 1.550781 20.234375 1.640625 20.015625 1.703125 C 19.796875 1.765625 19.503906 1.8125 19.140625 1.84375 C 18.785156 1.875 18.273438 1.894531 17.609375 1.90625 C 17.578125 1.476562 17.53125 1.144531 17.46875 0.90625 C 17.40625 0.664062 17.296875 0.40625 17.140625 0.125 C 17.503906 0.132812 17.804688 0.144531 18.046875 0.15625 C 18.296875 0.175781 18.550781 0.1875 18.8125 0.1875 C 19.269531 0.1875 19.550781 0.132812 19.65625 0.03125 C 19.757812 -0.0703125 19.8125 -0.34375 19.8125 -0.78125 L 19.8125 -12.3125 C 19.8125 -16.207031 19.765625 -18.515625 19.671875 -19.234375 Z M 15.046875 -17.21875 L 16.734375 -17.046875 C 17.003906 -17.015625 17.140625 -16.9375 17.140625 -16.8125 C 17.140625 -16.6875 16.988281 -16.53125 16.6875 -16.34375 C 16.6875 -16.25 16.6875 -16.15625 16.6875 -16.0625 C 16.6875 -15.96875 16.6875 -15.820312 16.6875 -15.625 C 16.6875 -15.425781 16.679688 -15.117188 16.671875 -14.703125 C 16.671875 -14.296875 16.671875 -13.722656 16.671875 -12.984375 L 16.671875 -6.65625 C 16.671875 -5.757812 16.675781 -4.945312 16.6875 -4.21875 C 16.707031 -3.5 16.722656 -2.925781 16.734375 -2.5 L 15.0625 -2.5 C 15.09375 -2.957031 15.113281 -3.519531 15.125 -4.1875 C 15.132812 -4.863281 15.140625 -5.6875 15.140625 -6.65625 L 15.140625 -12.984375 C 15.140625 -14.148438 15.128906 -15.054688 15.109375 -15.703125 C 15.097656 -16.359375 15.078125 -16.863281 15.046875 -17.21875 Z M 15.046875 -17.21875 "/></g></g></g><g fill="#000000" fill-opacity="1"><g transform="translate(3.207643, 93.308654)"><g><path d="M 10.984375 -5.5625 L 5.921875 -5.5625 L 5.921875 -4.53125 L 4.3125 -4.53125 C 4.34375 -4.8125 4.363281 -5.148438 4.375 -5.546875 C 4.382812 -5.953125 4.390625 -6.453125 4.390625 -7.046875 L 4.390625 -11.59375 C 4.390625 -11.957031 4.382812 -12.34375 4.375 -12.75 C 4.363281 -13.164062 4.351562 -13.472656 4.34375 -13.671875 C 4.75 -13.660156 5.144531 -13.648438 5.53125 -13.640625 C 5.925781 -13.628906 6.394531 -13.625 6.9375 -13.625 L 10.984375 -13.625 L 10.984375 -15.515625 L 5.9375 -15.515625 C 5.53125 -15.515625 5.054688 -15.507812 4.515625 -15.5 C 3.984375 -15.488281 3.46875 -15.472656 2.96875 -15.453125 C 2.46875 -15.441406 2.050781 -15.429688 1.71875 -15.421875 L 1.71875 -17.046875 C 2.050781 -17.046875 2.46875 -17.035156 2.96875 -17.015625 C 3.46875 -17.003906 3.984375 -16.992188 4.515625 -16.984375 C 5.054688 -16.972656 5.53125 -16.96875 5.9375 -16.96875 L 10.96875 -16.96875 C 10.945312 -17.664062 10.925781 -18.238281 10.90625 -18.6875 C 10.894531 -19.144531 10.875 -19.476562 10.84375 -19.6875 L 12.640625 -19.515625 C 12.867188 -19.484375 12.984375 -19.40625 12.984375 -19.28125 C 12.984375 -19.15625 12.84375 -19.007812 12.5625 -18.84375 C 12.5625 -18.6875 12.554688 -18.539062 12.546875 -18.40625 C 12.546875 -18.269531 12.546875 -18.09375 12.546875 -17.875 C 12.546875 -17.664062 12.546875 -17.363281 12.546875 -16.96875 L 17.5625 -16.96875 C 17.96875 -16.96875 18.4375 -16.972656 18.96875 -16.984375 C 19.5 -16.992188 20.015625 -17.003906 20.515625 -17.015625 C 21.015625 -17.035156 21.445312 -17.054688 21.8125 -17.078125 L 21.8125 -15.421875 C 21.445312 -15.429688 21.015625 -15.441406 20.515625 -15.453125 C 20.015625 -15.472656 19.5 -15.488281 18.96875 -15.5 C 18.4375 -15.507812 17.96875 -15.515625 17.5625 -15.515625 L 12.546875 -15.515625 C 12.523438 -15.203125 12.515625 -14.882812 12.515625 -14.5625 C 12.515625 -14.25 12.515625 -13.9375 12.515625 -13.625 L 16.671875 -13.625 C 17.203125 -13.625 17.664062 -13.628906 18.0625 -13.640625 C 18.457031 -13.648438 18.859375 -13.660156 19.265625 -13.671875 C 19.242188 -13.472656 19.226562 -13.164062 19.21875 -12.75 C 19.21875 -12.34375 19.21875 -11.957031 19.21875 -11.59375 L 19.21875 -7.359375 C 19.21875 -6.273438 19.238281 -5.457031 19.28125 -4.90625 L 17.6875 -4.90625 L 17.6875 -5.5625 L 12.515625 -5.5625 L 12.515625 -3.515625 L 17.984375 -3.515625 C 18.460938 -3.515625 18.984375 -3.515625 19.546875 -3.515625 C 20.109375 -3.523438 20.664062 -3.535156 21.21875 -3.546875 C 21.78125 -3.566406 22.269531 -3.585938 22.6875 -3.609375 L 22.6875 -1.953125 C 22.269531 -1.972656 21.78125 -1.988281 21.21875 -2 C 20.664062 -2.019531 20.109375 -2.03125 19.546875 -2.03125 C 18.984375 -2.039062 18.460938 -2.046875 17.984375 -2.046875 L 12.546875 -2.046875 C 12.546875 -1.203125 12.554688 -0.441406 12.578125 0.234375 C 12.597656 0.921875 12.617188 1.519531 12.640625 2.03125 L 10.890625 2.03125 C 10.921875 1.519531 10.941406 0.921875 10.953125 0.234375 C 10.960938 -0.441406 10.972656 -1.203125 10.984375 -2.046875 L 5.59375 -2.046875 C 5.132812 -2.046875 4.617188 -2.039062 4.046875 -2.03125 C 3.472656 -2.03125 2.910156 -2.019531 2.359375 -2 C 1.804688 -1.988281 1.316406 -1.972656 0.890625 -1.953125 L 0.890625 -3.609375 C 1.316406 -3.585938 1.804688 -3.566406 2.359375 -3.546875 C 2.910156 -3.535156 3.472656 -3.523438 4.046875 -3.515625 C 4.617188 -3.515625 5.132812 -3.515625 5.59375 -3.515625 L 10.984375 -3.515625 Z M 10.984375 -10.390625 L 10.984375 -12.171875 L 5.921875 -12.171875 L 5.921875 -10.390625 Z M 12.515625 -10.390625 L 17.6875 -10.390625 L 17.6875 -12.171875 L 12.515625 -12.171875 Z M 10.984375 -8.90625 L 5.921875 -8.90625 L 5.921875 -7.03125 L 10.984375 -7.03125 Z M 12.515625 -8.90625 L 12.515625 -7.03125 L 17.6875 -7.03125 L 17.6875 -8.90625 Z M 12.515625 -8.90625 "/></g></g></g><g fill="#000000" fill-opacity="1"><g transform="translate(3.207643, 117.002035)"><g><path d="M 16.53125 -18.34375 L 17.796875 -19.5625 C 18.460938 -18.957031 19.039062 -18.390625 19.53125 -17.859375 C 20.03125 -17.335938 20.503906 -16.796875 20.953125 -16.234375 C 21.398438 -15.671875 21.882812 -15.015625 22.40625 -14.265625 L 20.84375 -13.015625 C 19.488281 -15.140625 18.050781 -16.914062 16.53125 -18.34375 Z M 16.53125 -18.34375 "/></g></g></g></svg>