<svg xmlns="http://www.w3.org/2000/svg" xmlns:xlink="http://www.w3.org/1999/xlink" width="40" zoomAndPan="magnify" viewBox="0 0 30 96.749999" height="129" preserveAspectRatio="xMidYMid meet" version="1.0"><defs><g/></defs><g fill="#ffffff" fill-opacity="1"><g transform="translate(4.167206, 21.134764)"><g><path d="M 17.109375 -7.203125 L 8.03125 -7.203125 C 7.945312 -6.015625 7.789062 -5.050781 7.5625 -4.3125 C 7.332031 -3.582031 7 -2.867188 6.5625 -2.171875 C 6.007812 -1.273438 5.363281 -0.5 4.625 0.15625 C 3.882812 0.8125 2.890625 1.5 1.640625 2.21875 C 1.453125 1.894531 1.289062 1.632812 1.15625 1.4375 C 1.019531 1.238281 0.835938 1.035156 0.609375 0.828125 C 1.847656 0.160156 2.828125 -0.503906 3.546875 -1.171875 C 4.273438 -1.835938 4.867188 -2.617188 5.328125 -3.515625 C 5.597656 -4.085938 5.8125 -4.707031 5.96875 -5.375 C 6.132812 -6.039062 6.25 -6.851562 6.3125 -7.8125 C 6.382812 -8.769531 6.421875 -9.960938 6.421875 -11.390625 L 6.421875 -15.28125 C 6.421875 -16 6.414062 -16.726562 6.40625 -17.46875 C 6.394531 -18.207031 6.375 -18.769531 6.34375 -19.15625 C 6.75 -19.144531 7.160156 -19.132812 7.578125 -19.125 C 8.003906 -19.113281 8.519531 -19.109375 9.125 -19.109375 L 15.9375 -19.109375 C 16.539062 -19.109375 17.066406 -19.113281 17.515625 -19.125 C 17.960938 -19.132812 18.390625 -19.144531 18.796875 -19.15625 C 18.773438 -18.957031 18.757812 -18.785156 18.75 -18.640625 C 18.75 -18.492188 18.75 -18.304688 18.75 -18.078125 C 18.75 -17.859375 18.742188 -17.53125 18.734375 -17.09375 C 18.722656 -16.664062 18.71875 -16.0625 18.71875 -15.28125 L 18.71875 -5.15625 C 18.71875 -4.695312 18.722656 -4.113281 18.734375 -3.40625 C 18.753906 -2.695312 18.773438 -1.722656 18.796875 -0.484375 L 18.796875 -0.1875 C 18.796875 0.394531 18.6875 0.84375 18.46875 1.15625 C 18.25 1.476562 17.84375 1.695312 17.25 1.8125 C 16.664062 1.925781 15.820312 1.988281 14.71875 2 C 14.695312 1.707031 14.675781 1.476562 14.65625 1.3125 C 14.632812 1.15625 14.597656 0.984375 14.546875 0.796875 C 14.492188 0.609375 14.410156 0.351562 14.296875 0.03125 C 15.222656 0.0703125 15.859375 0.09375 16.203125 0.09375 C 16.597656 0.09375 16.847656 0.0351562 16.953125 -0.078125 C 17.054688 -0.191406 17.109375 -0.46875 17.109375 -0.90625 Z M 17.109375 -8.734375 L 17.109375 -12.5625 L 8.15625 -12.5625 L 8.15625 -11.46875 C 8.15625 -10.96875 8.15625 -10.488281 8.15625 -10.03125 C 8.15625 -9.570312 8.144531 -9.140625 8.125 -8.734375 Z M 17.109375 -14.109375 L 17.109375 -17.59375 L 8.15625 -17.59375 L 8.15625 -14.109375 Z M 17.109375 -14.109375 "/></g></g></g><g fill="#ffffff" fill-opacity="1"><g transform="translate(4.167206, 45.864571)"><g><path d="M 8.046875 -9.25 L 8.046875 -2.984375 C 8.046875 -0.753906 8.070312 0.914062 8.125 2.03125 L 6.296875 2.03125 C 6.347656 0.914062 6.375 -0.753906 6.375 -2.984375 L 6.375 -9.25 L 3.921875 -9.25 C 3.515625 -9.25 3.019531 -9.242188 2.4375 -9.234375 C 1.851562 -9.222656 1.375 -9.203125 1 -9.171875 L 1 -10.84375 C 1.375 -10.820312 1.835938 -10.800781 2.390625 -10.78125 C 2.941406 -10.769531 3.453125 -10.765625 3.921875 -10.765625 L 6.375 -10.765625 L 6.375 -17.359375 L 4.46875 -17.359375 C 4.0625 -17.359375 3.566406 -17.351562 2.984375 -17.34375 C 2.410156 -17.332031 1.9375 -17.316406 1.5625 -17.296875 L 1.5625 -18.84375 C 1.9375 -18.820312 2.398438 -18.804688 2.953125 -18.796875 C 3.503906 -18.796875 4.007812 -18.796875 4.46875 -18.796875 L 9.953125 -18.796875 C 10.429688 -18.796875 10.945312 -18.796875 11.5 -18.796875 C 12.050781 -18.804688 12.503906 -18.820312 12.859375 -18.84375 L 12.859375 -17.296875 C 12.503906 -17.316406 12.03125 -17.332031 11.4375 -17.34375 C 10.851562 -17.351562 10.359375 -17.359375 9.953125 -17.359375 L 8.046875 -17.359375 L 8.046875 -10.765625 L 10.515625 -10.765625 C 10.992188 -10.765625 11.507812 -10.769531 12.0625 -10.78125 C 12.613281 -10.800781 13.066406 -10.820312 13.421875 -10.84375 L 13.421875 -9.171875 C 13.066406 -9.203125 12.59375 -9.222656 12 -9.234375 C 11.414062 -9.242188 10.921875 -9.25 10.515625 -9.25 Z M 20.421875 -20.015625 L 22.328125 -19.84375 C 22.554688 -19.8125 22.671875 -19.726562 22.671875 -19.59375 C 22.671875 -19.46875 22.523438 -19.316406 22.234375 -19.140625 C 22.234375 -18.921875 22.226562 -18.71875 22.21875 -18.53125 C 22.207031 -18.34375 22.203125 -18.066406 22.203125 -17.703125 C 22.203125 -17.335938 22.203125 -16.773438 22.203125 -16.015625 C 22.203125 -15.265625 22.203125 -14.207031 22.203125 -12.84375 L 22.203125 -6.734375 C 22.203125 -6.328125 22.207031 -5.851562 22.21875 -5.3125 C 22.226562 -4.78125 22.238281 -4.128906 22.25 -3.359375 C 22.257812 -2.597656 22.269531 -1.65625 22.28125 -0.53125 L 22.28125 -0.3125 C 22.28125 0.1875 22.222656 0.570312 22.109375 0.84375 C 21.992188 1.113281 21.785156 1.328125 21.484375 1.484375 C 21.265625 1.597656 21.046875 1.6875 20.828125 1.75 C 20.609375 1.820312 20.304688 1.875 19.921875 1.90625 C 19.546875 1.9375 19.015625 1.960938 18.328125 1.984375 C 18.296875 1.535156 18.242188 1.1875 18.171875 0.9375 C 18.109375 0.6875 18.003906 0.414062 17.859375 0.125 C 18.234375 0.132812 18.539062 0.144531 18.78125 0.15625 C 19.03125 0.175781 19.285156 0.1875 19.546875 0.1875 C 20.015625 0.1875 20.300781 0.132812 20.40625 0.03125 C 20.519531 -0.0703125 20.578125 -0.351562 20.578125 -0.8125 L 20.578125 -12.84375 C 20.578125 -16.875 20.523438 -19.265625 20.421875 -20.015625 Z M 15.03125 -17.28125 L 16.8125 -17.109375 C 17.09375 -17.078125 17.234375 -16.992188 17.234375 -16.859375 C 17.234375 -16.734375 17.078125 -16.570312 16.765625 -16.375 C 16.765625 -16.226562 16.757812 -16.09375 16.75 -15.96875 C 16.75 -15.851562 16.75 -15.691406 16.75 -15.484375 C 16.75 -15.285156 16.75 -14.976562 16.75 -14.5625 C 16.75 -14.15625 16.75 -13.597656 16.75 -12.890625 L 16.75 -6.828125 C 16.75 -5.898438 16.753906 -5.066406 16.765625 -4.328125 C 16.785156 -3.585938 16.800781 -3 16.8125 -2.5625 L 15.03125 -2.5625 C 15.0625 -3.03125 15.082031 -3.609375 15.09375 -4.296875 C 15.101562 -4.992188 15.109375 -5.835938 15.109375 -6.828125 L 15.109375 -12.890625 C 15.109375 -14.085938 15.101562 -15.03125 15.09375 -15.71875 C 15.082031 -16.40625 15.0625 -16.925781 15.03125 -17.28125 Z M 15.03125 -17.28125 "/></g></g></g><g fill="#ffffff" fill-opacity="1"><g transform="translate(4.167206, 69.637499)"><g><path d="M 14.078125 -4.765625 L 10.5625 -4.765625 C 10.445312 -3.910156 10.238281 -3.164062 9.9375 -2.53125 C 9.644531 -1.90625 9.222656 -1.304688 8.671875 -0.734375 C 8.191406 -0.242188 7.695312 0.15625 7.1875 0.46875 C 6.675781 0.789062 5.976562 1.140625 5.09375 1.515625 C 4.988281 1.140625 4.878906 0.859375 4.765625 0.671875 C 4.660156 0.484375 4.507812 0.300781 4.3125 0.125 C 5.195312 -0.21875 5.882812 -0.546875 6.375 -0.859375 C 6.875 -1.179688 7.328125 -1.585938 7.734375 -2.078125 C 8.054688 -2.460938 8.316406 -2.863281 8.515625 -3.28125 C 8.722656 -3.707031 8.867188 -4.203125 8.953125 -4.765625 L 7.15625 -4.765625 C 6.789062 -4.765625 6.375 -4.757812 5.90625 -4.75 C 5.445312 -4.738281 5.046875 -4.722656 4.703125 -4.703125 L 4.703125 -6.21875 C 5.046875 -6.207031 5.445312 -6.195312 5.90625 -6.1875 C 6.375 -6.175781 6.789062 -6.171875 7.15625 -6.171875 L 9.109375 -6.171875 L 9.109375 -8.765625 L 7.890625 -8.765625 C 7.523438 -8.765625 7.109375 -8.757812 6.640625 -8.75 C 6.179688 -8.738281 5.78125 -8.726562 5.4375 -8.71875 L 5.4375 -10.203125 C 5.78125 -10.179688 6.179688 -10.164062 6.640625 -10.15625 C 7.109375 -10.15625 7.523438 -10.15625 7.890625 -10.15625 L 16.546875 -10.15625 C 16.898438 -10.15625 17.304688 -10.15625 17.765625 -10.15625 C 18.222656 -10.164062 18.628906 -10.179688 18.984375 -10.203125 L 18.984375 -8.71875 C 18.628906 -8.726562 18.222656 -8.738281 17.765625 -8.75 C 17.304688 -8.757812 16.898438 -8.765625 16.546875 -8.765625 L 15.640625 -8.765625 L 15.640625 -6.171875 L 17.421875 -6.171875 C 17.785156 -6.171875 18.191406 -6.175781 18.640625 -6.1875 C 19.097656 -6.195312 19.503906 -6.207031 19.859375 -6.21875 L 19.859375 -4.703125 C 19.503906 -4.722656 19.097656 -4.738281 18.640625 -4.75 C 18.191406 -4.757812 17.785156 -4.765625 17.421875 -4.765625 L 15.640625 -4.765625 L 15.640625 -2.875 C 15.640625 -1.96875 15.644531 -1.140625 15.65625 -0.390625 C 15.675781 0.359375 15.695312 0.953125 15.71875 1.390625 L 14.015625 1.390625 C 14.046875 0.921875 14.0625 0.34375 14.0625 -0.34375 C 14.070312 -1.039062 14.078125 -1.882812 14.078125 -2.875 Z M 10.671875 -8.765625 L 10.671875 -6.171875 L 14.078125 -6.171875 L 14.078125 -8.765625 Z M 15.203125 -12.203125 L 15.203125 -11.515625 L 13.625 -11.515625 C 13.664062 -12.085938 13.6875 -12.9375 13.6875 -14.0625 L 13.6875 -17.328125 C 13.6875 -17.722656 13.679688 -18.125 13.671875 -18.53125 C 13.671875 -18.945312 13.65625 -19.257812 13.625 -19.46875 C 14.03125 -19.457031 14.4375 -19.453125 14.84375 -19.453125 C 15.257812 -19.453125 15.742188 -19.453125 16.296875 -19.453125 L 19.921875 -19.453125 C 20.441406 -19.453125 20.890625 -19.453125 21.265625 -19.453125 C 21.648438 -19.453125 22.019531 -19.457031 22.375 -19.46875 C 22.363281 -19.257812 22.347656 -18.945312 22.328125 -18.53125 C 22.316406 -18.125 22.3125 -17.722656 22.3125 -17.328125 L 22.3125 -5.296875 C 22.3125 -4.796875 22.316406 -4.160156 22.328125 -3.390625 C 22.347656 -2.628906 22.363281 -1.691406 22.375 -0.578125 L 22.375 -0.3125 C 22.375 0.1875 22.316406 0.570312 22.203125 0.84375 C 22.085938 1.113281 21.867188 1.335938 21.546875 1.515625 C 21.242188 1.691406 20.882812 1.8125 20.46875 1.875 C 20.050781 1.945312 19.410156 1.984375 18.546875 1.984375 C 18.535156 1.523438 18.492188 1.179688 18.421875 0.953125 C 18.359375 0.722656 18.238281 0.445312 18.0625 0.125 C 18.5625 0.132812 18.929688 0.144531 19.171875 0.15625 C 19.421875 0.175781 19.648438 0.1875 19.859375 0.1875 C 20.253906 0.1875 20.503906 0.128906 20.609375 0.015625 C 20.710938 -0.0859375 20.765625 -0.34375 20.765625 -0.75 L 20.765625 -12.203125 Z M 20.765625 -13.59375 L 20.765625 -15.1875 L 15.203125 -15.1875 L 15.203125 -13.59375 Z M 20.765625 -16.46875 L 20.765625 -18.0625 L 15.203125 -18.0625 L 15.203125 -16.46875 Z M 3.609375 -12.203125 L 3.609375 -3.875 C 3.609375 -2.59375 3.613281 -1.472656 3.625 -0.515625 C 3.644531 0.441406 3.671875 1.222656 3.703125 1.828125 L 2 1.828125 C 2.03125 1.148438 2.050781 0.347656 2.0625 -0.578125 C 2.070312 -1.515625 2.078125 -2.613281 2.078125 -3.875 L 2.078125 -17.328125 C 2.078125 -17.722656 2.070312 -18.125 2.0625 -18.53125 C 2.050781 -18.945312 2.03125 -19.257812 2 -19.46875 C 2.375 -19.457031 2.75 -19.453125 3.125 -19.453125 C 3.507812 -19.453125 3.957031 -19.453125 4.46875 -19.453125 L 7.953125 -19.453125 C 8.523438 -19.453125 9.019531 -19.453125 9.4375 -19.453125 C 9.851562 -19.453125 10.265625 -19.457031 10.671875 -19.46875 C 10.648438 -19.257812 10.628906 -18.945312 10.609375 -18.53125 C 10.597656 -18.125 10.59375 -17.722656 10.59375 -17.328125 L 10.59375 -14.0625 C 10.59375 -12.9375 10.617188 -12.085938 10.671875 -11.515625 L 9.109375 -11.515625 L 9.109375 -12.203125 Z M 9.109375 -13.59375 L 9.109375 -15.1875 L 3.609375 -15.1875 L 3.609375 -13.59375 Z M 9.109375 -16.46875 L 9.109375 -18.0625 L 3.609375 -18.0625 L 3.609375 -16.46875 Z M 9.109375 -16.46875 "/></g></g></g><g fill="#ffffff" fill-opacity="1"><g transform="translate(4.167206, 94.074383)"><g><path d="M 11.375 -17.6875 L 11.375 -19.0625 L 11.34375 -20.625 L 13.03125 -20.453125 C 13.34375 -20.429688 13.5 -20.347656 13.5 -20.203125 C 13.5 -20.054688 13.34375 -19.894531 13.03125 -19.71875 L 13.03125 -17.6875 L 17.75 -17.6875 C 18.59375 -17.6875 19.453125 -17.695312 20.328125 -17.71875 C 21.203125 -17.738281 21.957031 -17.765625 22.59375 -17.796875 C 22.582031 -17.359375 22.570312 -17.003906 22.5625 -16.734375 C 22.550781 -16.460938 22.546875 -16.195312 22.546875 -15.9375 L 22.546875 -15.109375 C 22.546875 -14.492188 22.570312 -13.773438 22.625 -12.953125 L 20.84375 -12.953125 C 20.863281 -13.316406 20.875 -13.695312 20.875 -14.09375 C 20.882812 -14.488281 20.890625 -14.828125 20.890625 -15.109375 L 20.890625 -16.15625 L 3.484375 -16.15625 L 3.484375 -15.109375 C 3.484375 -14.828125 3.488281 -14.488281 3.5 -14.09375 C 3.519531 -13.695312 3.539062 -13.316406 3.5625 -12.953125 L 1.75 -12.953125 C 1.800781 -13.773438 1.828125 -14.492188 1.828125 -15.109375 L 1.828125 -15.9375 C 1.828125 -16.195312 1.828125 -16.460938 1.828125 -16.734375 C 1.828125 -17.003906 1.820312 -17.359375 1.8125 -17.796875 C 2.425781 -17.765625 3.171875 -17.738281 4.046875 -17.71875 C 4.929688 -17.695312 5.796875 -17.6875 6.640625 -17.6875 Z M 12.15625 -11.765625 L 12.15625 -7.640625 L 18.421875 -8.328125 C 19.273438 -8.421875 19.984375 -8.5 20.546875 -8.5625 C 21.117188 -8.632812 21.613281 -8.695312 22.03125 -8.75 C 22.457031 -8.800781 22.867188 -8.851562 23.265625 -8.90625 L 23.4375 -7.21875 C 22.46875 -7.144531 21.695312 -7.082031 21.125 -7.03125 C 20.5625 -6.976562 20.09375 -6.9375 19.71875 -6.90625 C 19.34375 -6.882812 18.960938 -6.851562 18.578125 -6.8125 L 12.15625 -6.125 L 12.15625 -1.21875 C 12.15625 -0.976562 12.191406 -0.785156 12.265625 -0.640625 C 12.335938 -0.492188 12.503906 -0.382812 12.765625 -0.3125 C 13.023438 -0.25 13.4375 -0.207031 14 -0.1875 C 14.5625 -0.175781 15.335938 -0.171875 16.328125 -0.171875 C 17.453125 -0.171875 18.332031 -0.191406 18.96875 -0.234375 C 19.601562 -0.285156 20.066406 -0.421875 20.359375 -0.640625 C 20.660156 -0.859375 20.867188 -1.21875 20.984375 -1.71875 C 21.097656 -2.21875 21.207031 -2.914062 21.3125 -3.8125 C 21.695312 -3.613281 22 -3.46875 22.21875 -3.375 C 22.4375 -3.289062 22.671875 -3.207031 22.921875 -3.125 C 22.804688 -2.4375 22.710938 -1.914062 22.640625 -1.5625 C 22.566406 -1.21875 22.492188 -0.953125 22.421875 -0.765625 C 22.359375 -0.578125 22.265625 -0.367188 22.140625 -0.140625 C 21.910156 0.265625 21.628906 0.5625 21.296875 0.75 C 20.960938 0.945312 20.519531 1.070312 19.96875 1.125 C 19.632812 1.15625 19.222656 1.1875 18.734375 1.21875 C 18.253906 1.25 17.753906 1.269531 17.234375 1.28125 C 16.710938 1.300781 16.234375 1.3125 15.796875 1.3125 C 14.648438 1.3125 13.726562 1.285156 13.03125 1.234375 C 12.332031 1.191406 11.800781 1.101562 11.4375 0.96875 C 11.082031 0.84375 10.84375 0.65625 10.71875 0.40625 C 10.601562 0.15625 10.546875 -0.179688 10.546875 -0.609375 L 10.546875 -5.953125 L 5.828125 -5.4375 C 4.972656 -5.363281 4.265625 -5.289062 3.703125 -5.21875 C 3.140625 -5.15625 2.648438 -5.09375 2.234375 -5.03125 C 1.816406 -4.976562 1.40625 -4.921875 1 -4.859375 L 0.828125 -6.546875 C 1.773438 -6.617188 2.507812 -6.675781 3.03125 -6.71875 C 3.5625 -6.757812 3.96875 -6.789062 4.25 -6.8125 C 4.539062 -6.84375 4.78125 -6.867188 4.96875 -6.890625 C 5.164062 -6.921875 5.40625 -6.941406 5.6875 -6.953125 L 10.546875 -7.46875 L 10.546875 -11.28125 C 9.515625 -10.96875 8.4375 -10.6875 7.3125 -10.4375 C 6.195312 -10.1875 4.890625 -9.910156 3.390625 -9.609375 C 3.265625 -10.015625 3.160156 -10.3125 3.078125 -10.5 C 2.992188 -10.6875 2.878906 -10.890625 2.734375 -11.109375 C 4.472656 -11.429688 6.003906 -11.742188 7.328125 -12.046875 C 8.660156 -12.359375 9.878906 -12.6875 10.984375 -13.03125 C 12.085938 -13.375 13.15625 -13.753906 14.1875 -14.171875 C 15.21875 -14.585938 16.304688 -15.070312 17.453125 -15.625 L 18.859375 -14.5 C 18.992188 -14.394531 19.0625 -14.289062 19.0625 -14.1875 C 19.0625 -14.03125 18.945312 -13.953125 18.71875 -13.953125 C 18.664062 -13.953125 18.609375 -13.953125 18.546875 -13.953125 C 18.484375 -13.953125 18.367188 -13.960938 18.203125 -13.984375 C 16.972656 -13.492188 15.875 -13.066406 14.90625 -12.703125 C 13.9375 -12.347656 13.019531 -12.035156 12.15625 -11.765625 Z M 12.15625 -11.765625 "/></g></g></g></svg>