<svg xmlns="http://www.w3.org/2000/svg" xmlns:xlink="http://www.w3.org/1999/xlink" width="40" zoomAndPan="magnify" viewBox="0 0 30 262.499992" height="350" preserveAspectRatio="xMidYMid meet" version="1.0"><defs><g/><clipPath id="a4d1f41546"><path d="M 0.0273438 3 L 29 3 L 29 32 L 0.0273438 32 Z M 0.0273438 3 " clip-rule="nonzero"/></clipPath></defs><g clip-path="url(#a4d1f41546)"><g fill="#000000" fill-opacity="1"><g transform="translate(0.0285175, 28.606721)"><g><path d="M 24.34375 -8.078125 L 24.90625 -8.625 L 26.453125 -7.109375 C 26.585938 -6.960938 26.65625 -6.832031 26.65625 -6.71875 C 26.65625 -6.59375 26.585938 -6.492188 26.453125 -6.421875 C 26.328125 -6.359375 26.03125 -6.25 25.5625 -6.09375 C 25 -5.238281 24.40625 -4.4375 23.78125 -3.6875 C 23.164062 -2.945312 22.453125 -2.265625 21.640625 -1.640625 C 21.710938 -1.617188 21.78125 -1.59375 21.84375 -1.5625 C 21.90625 -1.53125 21.972656 -1.492188 22.046875 -1.453125 C 22.617188 -1.191406 23.175781 -0.972656 23.71875 -0.796875 C 24.269531 -0.617188 24.9375 -0.4375 25.71875 -0.25 C 26.5 -0.0625 27.515625 0.160156 28.765625 0.421875 C 28.546875 0.640625 28.367188 0.859375 28.234375 1.078125 C 28.097656 1.304688 27.898438 1.691406 27.640625 2.234375 C 26.367188 1.953125 25.289062 1.6875 24.40625 1.4375 C 23.53125 1.1875 22.757812 0.914062 22.09375 0.625 C 21.425781 0.34375 20.769531 0.015625 20.125 -0.359375 C 20.101562 -0.378906 20.070312 -0.398438 20.03125 -0.421875 C 19.988281 -0.441406 19.945312 -0.457031 19.90625 -0.46875 C 19.21875 -0.0507812 18.507812 0.320312 17.78125 0.65625 C 17.0625 0.988281 16.269531 1.300781 15.40625 1.59375 C 14.539062 1.894531 13.535156 2.207031 12.390625 2.53125 C 12.316406 2.1875 12.21875 1.882812 12.09375 1.625 C 11.976562 1.375 11.820312 1.085938 11.625 0.765625 C 13.1875 0.367188 14.492188 -0.0078125 15.546875 -0.375 C 16.597656 -0.738281 17.535156 -1.160156 18.359375 -1.640625 C 17.804688 -2.148438 17.300781 -2.695312 16.84375 -3.28125 C 16.394531 -3.863281 15.972656 -4.484375 15.578125 -5.140625 C 14.046875 -3.003906 12.050781 -1.070312 9.59375 0.65625 C 9.4375 0.351562 9.253906 0.0625 9.046875 -0.21875 C 8.835938 -0.507812 8.65625 -0.722656 8.5 -0.859375 C 9.8125 -1.734375 10.90625 -2.609375 11.78125 -3.484375 C 12.664062 -4.367188 13.503906 -5.414062 14.296875 -6.625 C 14.671875 -7.195312 15.003906 -7.753906 15.296875 -8.296875 C 15.597656 -8.847656 15.867188 -9.398438 16.109375 -9.953125 L 15.625 -9.953125 C 15.132812 -9.953125 14.53125 -9.945312 13.8125 -9.9375 C 13.101562 -9.925781 12.519531 -9.910156 12.0625 -9.890625 L 12.0625 -11.796875 C 12.519531 -11.773438 13.082031 -11.757812 13.75 -11.75 C 14.425781 -11.738281 15.050781 -11.734375 15.625 -11.734375 L 16.765625 -11.734375 C 16.878906 -12.171875 16.992188 -12.597656 17.109375 -13.015625 C 17.234375 -13.429688 17.335938 -13.859375 17.421875 -14.296875 L 15.359375 -14.296875 C 14.921875 -14.296875 14.421875 -14.296875 13.859375 -14.296875 C 13.296875 -14.296875 12.804688 -14.273438 12.390625 -14.234375 L 12.390625 -16.140625 C 12.804688 -16.117188 13.296875 -16.101562 13.859375 -16.09375 C 14.421875 -16.082031 14.921875 -16.078125 15.359375 -16.078125 L 22.265625 -16.078125 C 22.691406 -16.734375 23.046875 -17.328125 23.328125 -17.859375 C 23.609375 -18.390625 23.863281 -18.976562 24.09375 -19.625 C 24.332031 -20.269531 24.59375 -21.050781 24.875 -21.96875 L 26.984375 -21.125 C 27.203125 -21.050781 27.3125 -20.953125 27.3125 -20.828125 C 27.3125 -20.710938 27.269531 -20.625 27.1875 -20.5625 C 27.113281 -20.5 26.925781 -20.410156 26.625 -20.296875 C 26.25 -19.460938 25.875 -18.722656 25.5 -18.078125 C 25.125 -17.441406 24.695312 -16.773438 24.21875 -16.078125 L 24.609375 -16.078125 C 25.046875 -16.078125 25.539062 -16.082031 26.09375 -16.09375 C 26.644531 -16.101562 27.140625 -16.117188 27.578125 -16.140625 L 27.578125 -14.234375 C 27.140625 -14.273438 26.644531 -14.296875 26.09375 -14.296875 C 25.539062 -14.296875 25.046875 -14.296875 24.609375 -14.296875 L 19.34375 -14.296875 C 19.269531 -13.859375 19.171875 -13.429688 19.046875 -13.015625 C 18.929688 -12.597656 18.820312 -12.171875 18.71875 -11.734375 L 25.046875 -11.734375 C 25.628906 -11.734375 26.257812 -11.738281 26.9375 -11.75 C 27.625 -11.757812 28.1875 -11.773438 28.625 -11.796875 L 28.625 -9.890625 C 28.164062 -9.910156 27.578125 -9.925781 26.859375 -9.9375 C 26.148438 -9.945312 25.546875 -9.953125 25.046875 -9.953125 L 18.125 -9.953125 C 17.882812 -9.335938 17.617188 -8.710938 17.328125 -8.078125 Z M 23.5 -6.390625 L 16.578125 -6.390625 C 17.035156 -5.671875 17.539062 -4.988281 18.09375 -4.34375 C 18.65625 -3.707031 19.28125 -3.140625 19.96875 -2.640625 C 21.375 -3.691406 22.550781 -4.941406 23.5 -6.390625 Z M 1.6875 -10.3125 L 1.0625 -12.296875 C 1.40625 -12.296875 1.738281 -12.300781 2.0625 -12.3125 C 2.394531 -12.320312 2.707031 -12.335938 3 -12.359375 C 3.375 -12.878906 3.742188 -13.390625 4.109375 -13.890625 C 4.484375 -14.398438 4.828125 -14.910156 5.140625 -15.421875 C 4.429688 -16.117188 3.738281 -16.75 3.0625 -17.3125 C 2.382812 -17.875 1.726562 -18.375 1.09375 -18.8125 L 2.109375 -20.203125 C 2.285156 -20.085938 2.453125 -19.972656 2.609375 -19.859375 C 2.773438 -19.753906 2.925781 -19.65625 3.0625 -19.5625 C 3.570312 -20.445312 4.050781 -21.382812 4.5 -22.375 C 4.945312 -23.363281 5.28125 -24.1875 5.5 -24.84375 L 7.421875 -23.984375 C 7.609375 -23.898438 7.703125 -23.800781 7.703125 -23.6875 C 7.703125 -23.488281 7.503906 -23.347656 7.109375 -23.265625 C 6.960938 -22.972656 6.660156 -22.4375 6.203125 -21.65625 C 5.753906 -20.882812 5.148438 -19.859375 4.390625 -18.578125 C 4.710938 -18.359375 5.015625 -18.128906 5.296875 -17.890625 C 5.585938 -17.648438 5.882812 -17.398438 6.1875 -17.140625 C 6.21875 -17.222656 6.253906 -17.296875 6.296875 -17.359375 C 6.335938 -17.429688 6.378906 -17.507812 6.421875 -17.59375 C 6.929688 -18.519531 7.320312 -19.265625 7.59375 -19.828125 C 7.863281 -20.398438 8.109375 -20.984375 8.328125 -21.578125 L 10.3125 -20.59375 C 10.507812 -20.507812 10.609375 -20.410156 10.609375 -20.296875 C 10.609375 -20.140625 10.421875 -20 10.046875 -19.875 C 9.429688 -18.832031 8.910156 -17.957031 8.484375 -17.25 C 8.054688 -16.550781 7.671875 -15.9375 7.328125 -15.40625 C 6.992188 -14.882812 6.660156 -14.394531 6.328125 -13.9375 C 5.992188 -13.476562 5.609375 -12.984375 5.171875 -12.453125 C 5.785156 -12.492188 6.394531 -12.535156 7 -12.578125 C 7.601562 -12.628906 8.210938 -12.695312 8.828125 -12.78125 C 8.703125 -13.050781 8.578125 -13.320312 8.453125 -13.59375 C 8.328125 -13.863281 8.1875 -14.144531 8.03125 -14.4375 L 9.484375 -15.3125 C 9.929688 -14.613281 10.335938 -13.898438 10.703125 -13.171875 C 11.078125 -12.453125 11.429688 -11.609375 11.765625 -10.640625 L 9.921875 -9.71875 L 9.390625 -11.328125 C 9.054688 -11.285156 8.71875 -11.234375 8.375 -11.171875 C 8.039062 -11.109375 7.707031 -11.0625 7.375 -11.03125 L 7.375 -3.6875 C 7.375 -0.925781 7.398438 1.101562 7.453125 2.40625 L 5.34375 2.40625 C 5.40625 1.101562 5.4375 -0.925781 5.4375 -3.6875 L 5.4375 -10.734375 C 4.957031 -10.671875 4.476562 -10.601562 4 -10.53125 C 3.53125 -10.46875 3.066406 -10.40625 2.609375 -10.34375 C 2.410156 -10.0625 2.234375 -9.921875 2.078125 -9.921875 C 1.921875 -9.921875 1.789062 -10.050781 1.6875 -10.3125 Z M 8.109375 -8.265625 L 9.625 -9.0625 C 9.945312 -8.570312 10.207031 -8.148438 10.40625 -7.796875 C 10.601562 -7.453125 10.773438 -7.113281 10.921875 -6.78125 C 11.066406 -6.457031 11.21875 -6.09375 11.375 -5.6875 C 11.539062 -5.28125 11.722656 -4.769531 11.921875 -4.15625 L 10.046875 -3.390625 C 9.804688 -4.222656 9.59375 -4.921875 9.40625 -5.484375 C 9.21875 -6.046875 9.023438 -6.539062 8.828125 -6.96875 C 8.628906 -7.394531 8.390625 -7.828125 8.109375 -8.265625 Z M 26.515625 -22.96875 L 26.03125 -22.96875 C 24.882812 -22.71875 23.8125 -22.488281 22.8125 -22.28125 C 21.8125 -22.070312 20.800781 -21.882812 19.78125 -21.71875 C 18.757812 -21.5625 17.644531 -21.40625 16.4375 -21.25 C 15.226562 -21.09375 13.832031 -20.925781 12.25 -20.75 C 12.125 -21.125 12.003906 -21.429688 11.890625 -21.671875 C 11.785156 -21.921875 11.65625 -22.195312 11.5 -22.5 C 13.34375 -22.65625 14.992188 -22.828125 16.453125 -23.015625 C 17.921875 -23.203125 19.363281 -23.4375 20.78125 -23.71875 C 22.195312 -24.007812 23.738281 -24.375 25.40625 -24.8125 L 26.8125 -23.59375 C 26.925781 -23.519531 26.984375 -23.421875 26.984375 -23.296875 C 26.984375 -23.078125 26.828125 -22.96875 26.515625 -22.96875 Z M 2.3125 -8.5 L 4.15625 -8.078125 C 4.375 -8.023438 4.484375 -7.925781 4.484375 -7.78125 C 4.484375 -7.644531 4.4375 -7.546875 4.34375 -7.484375 L 4.09375 -7.34375 C 4.019531 -6.207031 3.914062 -5.207031 3.78125 -4.34375 C 3.65625 -3.488281 3.492188 -2.695312 3.296875 -1.96875 C 3.097656 -1.25 2.84375 -0.515625 2.53125 0.234375 C 1.96875 -0.140625 1.351562 -0.445312 0.6875 -0.6875 C 1.101562 -1.550781 1.425781 -2.367188 1.65625 -3.140625 C 1.894531 -3.921875 2.0625 -4.726562 2.15625 -5.5625 C 2.257812 -6.394531 2.3125 -7.320312 2.3125 -8.34375 Z M 13.1875 -20.171875 L 14.734375 -20.984375 C 15.128906 -20.484375 15.503906 -19.921875 15.859375 -19.296875 C 16.222656 -18.671875 16.59375 -17.9375 16.96875 -17.09375 L 15.125 -16.203125 C 14.769531 -17.066406 14.453125 -17.78125 14.171875 -18.34375 C 13.898438 -18.914062 13.570312 -19.523438 13.1875 -20.171875 Z M 17.953125 -20.75 L 19.5625 -21.515625 C 20.289062 -20.523438 21.007812 -19.175781 21.71875 -17.46875 L 19.828125 -16.671875 C 19.609375 -17.347656 19.351562 -18 19.0625 -18.625 C 18.78125 -19.25 18.410156 -19.957031 17.953125 -20.75 Z M 17.953125 -20.75 "/></g></g></g></g><g fill="#000000" fill-opacity="1"><g transform="translate(0.0285175, 69.473472)"><g><path d="M 17.234375 -19.046875 L 15.75 -17.625 C 15.050781 -18.082031 14.332031 -18.410156 13.59375 -18.609375 C 12.851562 -18.804688 11.988281 -18.90625 11 -18.90625 C 9.625 -18.90625 8.9375 -18.414062 8.9375 -17.4375 C 8.9375 -17.101562 9.023438 -16.71875 9.203125 -16.28125 C 9.390625 -15.84375 9.703125 -15.226562 10.140625 -14.4375 C 10.273438 -14.5 10.617188 -14.648438 11.171875 -14.890625 C 11.722656 -15.128906 12.503906 -15.457031 13.515625 -15.875 C 14.804688 -16.40625 15.882812 -16.84375 16.75 -17.1875 C 17.625 -17.539062 18.382812 -17.804688 19.03125 -17.984375 C 19.675781 -18.160156 20.273438 -18.28125 20.828125 -18.34375 C 21.390625 -18.414062 21.984375 -18.453125 22.609375 -18.453125 C 24.035156 -18.453125 25.175781 -18.078125 26.03125 -17.328125 C 26.882812 -16.578125 27.3125 -15.566406 27.3125 -14.296875 C 27.3125 -12.566406 26.523438 -11.234375 24.953125 -10.296875 C 23.390625 -9.359375 21.1875 -8.890625 18.34375 -8.890625 C 17.957031 -8.890625 17.597656 -8.894531 17.265625 -8.90625 C 16.929688 -8.925781 16.476562 -8.96875 15.90625 -9.03125 C 15.914062 -9.15625 15.921875 -9.25 15.921875 -9.3125 C 15.921875 -9.382812 15.921875 -9.460938 15.921875 -9.546875 C 15.921875 -9.859375 15.910156 -10.125 15.890625 -10.34375 C 15.878906 -10.5625 15.832031 -10.828125 15.75 -11.140625 C 16.445312 -11.066406 17.003906 -11.007812 17.421875 -10.96875 C 17.847656 -10.925781 18.367188 -10.90625 18.984375 -10.90625 C 21.046875 -10.90625 22.613281 -11.203125 23.6875 -11.796875 C 24.757812 -12.390625 25.296875 -13.257812 25.296875 -14.40625 C 25.296875 -15.207031 25.039062 -15.785156 24.53125 -16.140625 C 24.03125 -16.492188 23.253906 -16.671875 22.203125 -16.671875 C 21.679688 -16.671875 21.175781 -16.632812 20.6875 -16.5625 C 20.207031 -16.5 19.664062 -16.375 19.0625 -16.1875 C 18.457031 -16.007812 17.726562 -15.757812 16.875 -15.4375 C 16.03125 -15.113281 14.972656 -14.679688 13.703125 -14.140625 C 13.222656 -13.941406 12.804688 -13.757812 12.453125 -13.59375 C 12.097656 -13.425781 11.601562 -13.191406 10.96875 -12.890625 C 11.4375 -11.984375 12.171875 -10.375 13.171875 -8.0625 C 14.179688 -5.757812 15.4375 -2.773438 16.9375 0.890625 L 14.796875 1.71875 C 13.765625 -1.226562 12.800781 -3.8125 11.90625 -6.03125 C 11.019531 -8.25 10.113281 -10.25 9.1875 -12.03125 L 6.265625 -10.609375 C 5.953125 -10.453125 5.707031 -10.328125 5.53125 -10.234375 C 5.351562 -10.148438 5.171875 -10.0625 4.984375 -9.96875 C 4.796875 -9.882812 4.492188 -9.742188 4.078125 -9.546875 C 3.835938 -9.421875 3.644531 -9.320312 3.5 -9.25 C 3.363281 -9.1875 3.109375 -9.054688 2.734375 -8.859375 L 1.6875 -11.140625 C 2.125 -11.296875 2.515625 -11.429688 2.859375 -11.546875 C 3.210938 -11.671875 3.488281 -11.773438 3.6875 -11.859375 C 4.175781 -12.035156 4.566406 -12.175781 4.859375 -12.28125 C 5.160156 -12.394531 5.453125 -12.503906 5.734375 -12.609375 C 6.015625 -12.722656 6.347656 -12.859375 6.734375 -13.015625 C 7.117188 -13.171875 7.648438 -13.390625 8.328125 -13.671875 C 8.285156 -13.785156 8.238281 -13.890625 8.1875 -13.984375 C 8.132812 -14.085938 8.035156 -14.285156 7.890625 -14.578125 C 7.742188 -14.878906 7.488281 -15.367188 7.125 -16.046875 C 6.894531 -16.523438 6.78125 -17.050781 6.78125 -17.625 C 6.78125 -18.507812 7.125 -19.207031 7.8125 -19.71875 C 8.507812 -20.238281 9.460938 -20.5 10.671875 -20.5 C 11.140625 -20.5 11.664062 -20.457031 12.25 -20.375 C 12.84375 -20.300781 13.335938 -20.195312 13.734375 -20.0625 C 13.953125 -20 14.113281 -19.953125 14.21875 -19.921875 C 14.332031 -19.890625 14.425781 -19.875 14.5 -19.875 C 13.832031 -20.832031 13.5 -21.828125 13.5 -22.859375 C 13.5 -23.015625 13.503906 -23.195312 13.515625 -23.40625 C 13.535156 -23.613281 13.566406 -23.847656 13.609375 -24.109375 L 15.359375 -23.921875 C 15.335938 -23.765625 15.320312 -23.601562 15.3125 -23.4375 C 15.3125 -23.28125 15.3125 -23.164062 15.3125 -23.09375 C 15.3125 -22.71875 15.359375 -22.359375 15.453125 -22.015625 C 15.554688 -21.679688 15.75 -21.285156 16.03125 -20.828125 C 16.320312 -20.378906 16.722656 -19.785156 17.234375 -19.046875 Z M 17.234375 -19.046875 "/></g></g></g><g fill="#000000" fill-opacity="1"><g transform="translate(0.0285175, 110.340223)"><g><path d="M 12.21875 -16.25 L 12.921875 -16.34375 C 13.265625 -16.382812 13.609375 -16.425781 13.953125 -16.46875 C 14.296875 -16.519531 14.664062 -16.546875 15.0625 -16.546875 C 16 -16.546875 16.84375 -16.171875 17.59375 -15.421875 C 17.925781 -15.066406 18.164062 -14.703125 18.3125 -14.328125 C 18.46875 -13.953125 18.546875 -13.492188 18.546875 -12.953125 C 18.546875 -11.941406 18.460938 -10.847656 18.296875 -9.671875 C 18.140625 -8.492188 17.921875 -7.335938 17.640625 -6.203125 C 17.367188 -5.078125 17.046875 -4.070312 16.671875 -3.1875 C 16.234375 -2.132812 15.664062 -1.363281 14.96875 -0.875 C 14.28125 -0.394531 13.410156 -0.15625 12.359375 -0.15625 C 11.867188 -0.15625 11.398438 -0.1875 10.953125 -0.25 C 10.503906 -0.320312 9.972656 -0.457031 9.359375 -0.65625 C 9.398438 -0.894531 9.425781 -1.078125 9.4375 -1.203125 C 9.445312 -1.328125 9.457031 -1.492188 9.46875 -1.703125 C 9.476562 -1.910156 9.492188 -2.234375 9.515625 -2.671875 C 10.148438 -2.515625 10.679688 -2.394531 11.109375 -2.3125 C 11.546875 -2.238281 11.953125 -2.203125 12.328125 -2.203125 C 13.085938 -2.203125 13.671875 -2.414062 14.078125 -2.84375 C 14.492188 -3.28125 14.894531 -4.078125 15.28125 -5.234375 C 15.507812 -6.003906 15.71875 -6.832031 15.90625 -7.71875 C 16.101562 -8.613281 16.257812 -9.492188 16.375 -10.359375 C 16.488281 -11.222656 16.546875 -11.960938 16.546875 -12.578125 C 16.546875 -13.265625 16.375 -13.816406 16.03125 -14.234375 C 15.6875 -14.648438 15.226562 -14.859375 14.65625 -14.859375 C 14.476562 -14.859375 14.289062 -14.851562 14.09375 -14.84375 C 13.894531 -14.832031 13.609375 -14.796875 13.234375 -14.734375 C 12.867188 -14.679688 12.34375 -14.59375 11.65625 -14.46875 C 11.019531 -12.507812 10.363281 -10.710938 9.6875 -9.078125 C 9.007812 -7.441406 8.253906 -5.863281 7.421875 -4.34375 C 6.597656 -2.832031 5.640625 -1.253906 4.546875 0.390625 C 4.285156 0.046875 4.019531 -0.21875 3.75 -0.40625 C 3.488281 -0.59375 3.140625 -0.785156 2.703125 -0.984375 C 3.492188 -2.015625 4.191406 -2.992188 4.796875 -3.921875 C 5.398438 -4.847656 5.960938 -5.804688 6.484375 -6.796875 C 7.015625 -7.796875 7.519531 -8.882812 8 -10.0625 C 8.488281 -11.238281 9.007812 -12.585938 9.5625 -14.109375 C 8.257812 -13.878906 7.09375 -13.671875 6.0625 -13.484375 C 5.03125 -13.304688 4.140625 -13.140625 3.390625 -12.984375 L 2.96875 -15.15625 C 3.488281 -15.195312 3.960938 -15.234375 4.390625 -15.265625 C 4.828125 -15.296875 5.296875 -15.335938 5.796875 -15.390625 C 6.304688 -15.453125 6.90625 -15.523438 7.59375 -15.609375 C 8.289062 -15.703125 9.144531 -15.816406 10.15625 -15.953125 C 10.414062 -16.765625 10.660156 -17.601562 10.890625 -18.46875 C 11.117188 -19.332031 11.320312 -20.148438 11.5 -20.921875 C 11.675781 -21.691406 11.796875 -22.328125 11.859375 -22.828125 L 13.9375 -22.28125 C 14.238281 -22.226562 14.390625 -22.101562 14.390625 -21.90625 C 14.390625 -21.6875 14.160156 -21.5 13.703125 -21.34375 C 13.578125 -20.863281 13.46875 -20.457031 13.375 -20.125 C 13.289062 -19.800781 13.203125 -19.476562 13.109375 -19.15625 C 13.023438 -18.84375 12.914062 -18.460938 12.78125 -18.015625 C 12.644531 -17.578125 12.457031 -16.988281 12.21875 -16.25 Z M 19.828125 -15.75 L 20.921875 -17.234375 C 22.109375 -16.484375 23.140625 -15.726562 24.015625 -14.96875 C 24.898438 -14.21875 25.71875 -13.398438 26.46875 -12.515625 C 27.226562 -11.640625 27.984375 -10.609375 28.734375 -9.421875 L 26.921875 -7.96875 C 25.179688 -11.132812 22.816406 -13.726562 19.828125 -15.75 Z M 19.828125 -15.75 "/></g></g></g><g fill="#000000" fill-opacity="1"><g transform="translate(0.0285175, 151.206974)"><g><path d="M 19.140625 -13.4375 L 20.265625 -12.28125 C 19.847656 -11.914062 19.570312 -11.59375 19.4375 -11.3125 C 19.3125 -11.039062 19.25 -10.648438 19.25 -10.140625 C 19.25 -9.773438 19.269531 -9.410156 19.3125 -9.046875 C 19.351562 -8.679688 19.425781 -8.148438 19.53125 -7.453125 C 19.582031 -7.035156 19.625 -6.722656 19.65625 -6.515625 C 19.6875 -6.316406 19.722656 -5.988281 19.765625 -5.53125 C 19.785156 -5.351562 19.800781 -5.238281 19.8125 -5.1875 C 19.820312 -5.132812 19.835938 -5.03125 19.859375 -4.875 C 20.703125 -4.519531 21.453125 -4.171875 22.109375 -3.828125 C 22.765625 -3.492188 23.410156 -3.128906 24.046875 -2.734375 C 24.691406 -2.335938 25.40625 -1.863281 26.1875 -1.3125 C 25.820312 -1.050781 25.539062 -0.8125 25.34375 -0.59375 C 25.144531 -0.375 24.929688 -0.0351562 24.703125 0.421875 C 24.046875 -0.140625 23.457031 -0.613281 22.9375 -1 C 22.425781 -1.382812 21.925781 -1.726562 21.4375 -2.03125 C 20.957031 -2.34375 20.429688 -2.644531 19.859375 -2.9375 C 19.816406 -2.269531 19.75 -1.75 19.65625 -1.375 C 19.570312 -1.007812 19.4375 -0.679688 19.25 -0.390625 C 18.457031 0.859375 16.984375 1.484375 14.828125 1.484375 C 13.328125 1.484375 12.140625 1.15625 11.265625 0.5 C 10.390625 -0.144531 9.953125 -1.046875 9.953125 -2.203125 C 9.953125 -3.304688 10.382812 -4.210938 11.25 -4.921875 C 12.113281 -5.640625 13.207031 -6 14.53125 -6 C 15.082031 -6 15.617188 -5.960938 16.140625 -5.890625 C 16.671875 -5.828125 17.242188 -5.71875 17.859375 -5.5625 C 17.742188 -6.550781 17.640625 -7.492188 17.546875 -8.390625 C 17.460938 -9.296875 17.421875 -9.914062 17.421875 -10.25 C 17.421875 -10.96875 17.550781 -11.5625 17.8125 -12.03125 C 18.082031 -12.507812 18.523438 -12.976562 19.140625 -13.4375 Z M 17.953125 -3.75 C 17.410156 -3.945312 16.847656 -4.097656 16.265625 -4.203125 C 15.679688 -4.316406 15.101562 -4.375 14.53125 -4.375 C 13.738281 -4.375 13.082031 -4.175781 12.5625 -3.78125 C 12.050781 -3.394531 11.796875 -2.894531 11.796875 -2.28125 C 11.796875 -1.664062 12.066406 -1.179688 12.609375 -0.828125 C 13.160156 -0.472656 13.910156 -0.296875 14.859375 -0.296875 C 16.242188 -0.296875 17.15625 -0.679688 17.59375 -1.453125 C 17.75 -1.753906 17.859375 -2.222656 17.921875 -2.859375 C 17.941406 -3.015625 17.953125 -3.164062 17.953125 -3.3125 C 17.953125 -3.457031 17.953125 -3.601562 17.953125 -3.75 Z M 11.859375 -24.109375 L 13.875 -23.421875 C 14.132812 -23.316406 14.265625 -23.195312 14.265625 -23.0625 C 14.265625 -22.863281 14.066406 -22.675781 13.671875 -22.5 L 12.328125 -18.75 C 13.066406 -18.90625 13.753906 -19.09375 14.390625 -19.3125 C 15.035156 -19.53125 15.640625 -19.769531 16.203125 -20.03125 L 17 -18.3125 C 16.070312 -17.925781 15.191406 -17.617188 14.359375 -17.390625 C 13.523438 -17.171875 12.613281 -16.984375 11.625 -16.828125 C 11.007812 -15.097656 10.1875 -13.101562 9.15625 -10.84375 C 8.894531 -10.269531 8.664062 -9.78125 8.46875 -9.375 C 8.269531 -8.96875 8.078125 -8.585938 7.890625 -8.234375 C 7.703125 -7.878906 7.488281 -7.488281 7.25 -7.0625 C 7.007812 -6.632812 6.707031 -6.117188 6.34375 -5.515625 C 5.976562 -4.910156 5.519531 -4.148438 4.96875 -3.234375 C 4.644531 -3.535156 4.367188 -3.765625 4.140625 -3.921875 C 3.910156 -4.078125 3.582031 -4.242188 3.15625 -4.421875 C 4.414062 -6.191406 5.578125 -8.070312 6.640625 -10.0625 C 7.703125 -12.050781 8.6875 -14.222656 9.59375 -16.578125 C 9.125 -16.554688 8.742188 -16.535156 8.453125 -16.515625 C 8.171875 -16.503906 7.910156 -16.492188 7.671875 -16.484375 C 7.429688 -16.472656 7.144531 -16.46875 6.8125 -16.46875 C 6.394531 -16.46875 6.015625 -16.476562 5.671875 -16.5 C 5.335938 -16.519531 4.882812 -16.535156 4.3125 -16.546875 L 4.21875 -18.515625 C 4.851562 -18.429688 5.421875 -18.375 5.921875 -18.34375 C 6.429688 -18.320312 6.992188 -18.3125 7.609375 -18.3125 C 8.066406 -18.3125 8.472656 -18.316406 8.828125 -18.328125 C 9.179688 -18.347656 9.664062 -18.390625 10.28125 -18.453125 C 10.738281 -19.722656 11.097656 -20.84375 11.359375 -21.8125 C 11.628906 -22.78125 11.796875 -23.546875 11.859375 -24.109375 Z M 18.640625 -15.453125 L 19.140625 -17.140625 C 20.640625 -16.890625 21.941406 -16.554688 23.046875 -16.140625 C 24.148438 -15.722656 25.242188 -15.164062 26.328125 -14.46875 L 25.34375 -12.75 C 24.257812 -13.476562 23.191406 -14.0625 22.140625 -14.5 C 21.085938 -14.9375 19.921875 -15.253906 18.640625 -15.453125 Z M 18.640625 -15.453125 "/></g></g></g><g fill="#000000" fill-opacity="1"><g transform="translate(0.0285175, 192.073725)"><g><path d="M 25.5625 -19.4375 L 17.234375 -19.4375 C 16.878906 -18.6875 16.503906 -17.945312 16.109375 -17.21875 C 15.710938 -16.5 15.285156 -15.78125 14.828125 -15.0625 C 16.234375 -15.144531 17.632812 -15.25 19.03125 -15.375 C 20.425781 -15.507812 21.816406 -15.664062 23.203125 -15.84375 C 22.734375 -16.375 22.070312 -17.035156 21.21875 -17.828125 L 22.4375 -19.015625 C 23.289062 -18.328125 23.992188 -17.710938 24.546875 -17.171875 C 25.097656 -16.640625 25.59375 -16.097656 26.03125 -15.546875 C 26.46875 -15.003906 26.9375 -14.347656 27.4375 -13.578125 L 25.640625 -12.328125 C 25.148438 -13.179688 24.707031 -13.882812 24.3125 -14.4375 C 23.4375 -14.300781 22.664062 -14.1875 22 -14.09375 C 21.34375 -14.007812 20.65625 -13.921875 19.9375 -13.828125 C 19.226562 -13.742188 18.335938 -13.640625 17.265625 -13.515625 C 14.472656 -13.222656 12.332031 -12.988281 10.84375 -12.8125 C 10.601562 -12.488281 10.425781 -12.328125 10.3125 -12.328125 C 10.132812 -12.328125 9.984375 -12.476562 9.859375 -12.78125 L 9.21875 -14.765625 C 9.84375 -14.804688 10.445312 -14.84375 11.03125 -14.875 C 11.625 -14.90625 12.1875 -14.929688 12.71875 -14.953125 C 13.175781 -15.660156 13.59375 -16.390625 13.96875 -17.140625 C 14.34375 -17.898438 14.691406 -18.664062 15.015625 -19.4375 L 11.5625 -19.4375 C 11.125 -19.4375 10.625 -19.429688 10.0625 -19.421875 C 9.5 -19.410156 9.007812 -19.394531 8.59375 -19.375 L 8.59375 -21.34375 C 9.007812 -21.320312 9.5 -21.304688 10.0625 -21.296875 C 10.625 -21.285156 11.125 -21.28125 11.5625 -21.28125 L 16.765625 -21.28125 L 16.765625 -23.1875 L 16.734375 -25.078125 L 18.8125 -24.875 C 19.1875 -24.851562 19.375 -24.753906 19.375 -24.578125 C 19.375 -24.398438 19.175781 -24.203125 18.78125 -23.984375 L 18.78125 -21.28125 L 25.5625 -21.28125 C 26 -21.28125 26.492188 -21.285156 27.046875 -21.296875 C 27.597656 -21.304688 28.082031 -21.320312 28.5 -21.34375 L 28.5 -19.375 C 28.082031 -19.394531 27.597656 -19.410156 27.046875 -19.421875 C 26.492188 -19.429688 26 -19.4375 25.5625 -19.4375 Z M 23.5 -10.578125 L 23.5 -0.921875 C 23.5 -0.660156 23.570312 -0.488281 23.71875 -0.40625 C 23.875 -0.332031 24.21875 -0.296875 24.75 -0.296875 C 25.207031 -0.296875 25.5625 -0.316406 25.8125 -0.359375 C 26.0625 -0.398438 26.238281 -0.523438 26.34375 -0.734375 C 26.457031 -0.941406 26.523438 -1.273438 26.546875 -1.734375 C 26.578125 -2.203125 26.601562 -2.863281 26.625 -3.71875 C 26.945312 -3.570312 27.238281 -3.445312 27.5 -3.34375 C 27.769531 -3.25 28.15625 -3.132812 28.65625 -3 C 28.59375 -1.96875 28.515625 -1.175781 28.421875 -0.625 C 28.335938 -0.0703125 28.210938 0.328125 28.046875 0.578125 C 27.890625 0.828125 27.664062 1.039062 27.375 1.21875 C 27.132812 1.332031 26.785156 1.414062 26.328125 1.46875 C 25.867188 1.519531 25.234375 1.546875 24.421875 1.546875 C 23.335938 1.546875 22.601562 1.410156 22.21875 1.140625 C 21.832031 0.878906 21.640625 0.347656 21.640625 -0.453125 L 21.640625 -10.578125 C 21.640625 -10.953125 21.632812 -11.316406 21.625 -11.671875 C 21.613281 -12.035156 21.597656 -12.316406 21.578125 -12.515625 L 23.5625 -12.296875 C 23.925781 -12.285156 24.109375 -12.1875 24.109375 -12 C 24.109375 -11.820312 23.914062 -11.625 23.53125 -11.40625 C 23.507812 -11.070312 23.5 -10.863281 23.5 -10.78125 C 23.5 -10.707031 23.5 -10.640625 23.5 -10.578125 Z M 11.921875 -12.421875 L 14.109375 -12.1875 C 14.503906 -12.144531 14.703125 -12.023438 14.703125 -11.828125 C 14.703125 -11.648438 14.503906 -11.484375 14.109375 -11.328125 L 14.109375 -9.625 C 14.097656 -7.84375 14.007812 -6.378906 13.84375 -5.234375 C 13.6875 -4.097656 13.414062 -3.148438 13.03125 -2.390625 C 12.644531 -1.628906 12.101562 -0.910156 11.40625 -0.234375 C 10.8125 0.335938 10.164062 0.820312 9.46875 1.21875 C 8.78125 1.613281 7.863281 2.03125 6.71875 2.46875 C 6.582031 2.132812 6.46875 1.878906 6.375 1.703125 C 6.28125 1.535156 6.179688 1.378906 6.078125 1.234375 C 5.984375 1.085938 5.835938 0.882812 5.640625 0.625 C 6.867188 0.1875 7.828125 -0.234375 8.515625 -0.640625 C 9.210938 -1.046875 9.789062 -1.523438 10.25 -2.078125 C 10.75 -2.671875 11.128906 -3.289062 11.390625 -3.9375 C 11.660156 -4.582031 11.847656 -5.363281 11.953125 -6.28125 C 12.066406 -7.207031 12.125 -8.382812 12.125 -9.8125 C 12.125 -10.425781 12.109375 -10.910156 12.078125 -11.265625 C 12.046875 -11.617188 11.992188 -12.003906 11.921875 -12.421875 Z M 18.609375 -11.296875 L 18.578125 -8.5 L 18.578125 -2.9375 C 18.578125 -1.96875 18.585938 -1.109375 18.609375 -0.359375 C 18.628906 0.378906 18.644531 0.960938 18.65625 1.390625 L 16.578125 1.390625 C 16.617188 0.878906 16.640625 0.265625 16.640625 -0.453125 C 16.640625 -1.179688 16.640625 -2.007812 16.640625 -2.9375 L 16.640625 -8.5 C 16.640625 -10.320312 16.609375 -11.617188 16.546875 -12.390625 L 18.65625 -12.1875 C 19 -12.144531 19.171875 -12.046875 19.171875 -11.890625 C 19.171875 -11.742188 18.984375 -11.546875 18.609375 -11.296875 Z M 2.5625 -23.03125 L 4.078125 -24.3125 C 4.566406 -23.894531 4.992188 -23.503906 5.359375 -23.140625 C 5.722656 -22.785156 6.078125 -22.40625 6.421875 -22 C 6.773438 -21.59375 7.171875 -21.113281 7.609375 -20.5625 L 5.828125 -19.171875 C 5.453125 -19.742188 5.097656 -20.238281 4.765625 -20.65625 C 4.441406 -21.070312 4.109375 -21.460938 3.765625 -21.828125 C 3.429688 -22.191406 3.03125 -22.59375 2.5625 -23.03125 Z M 1.15625 -16.5 L 2.703125 -17.765625 C 3.515625 -17.078125 4.179688 -16.457031 4.703125 -15.90625 C 5.234375 -15.363281 5.785156 -14.738281 6.359375 -14.03125 L 4.578125 -12.578125 C 4.117188 -13.191406 3.722656 -13.695312 3.390625 -14.09375 C 3.066406 -14.5 2.738281 -14.882812 2.40625 -15.25 C 2.070312 -15.625 1.65625 -16.039062 1.15625 -16.5 Z M 6.359375 -11.234375 L 8 -9.78125 C 7.582031 -8.644531 7.222656 -7.675781 6.921875 -6.875 C 6.628906 -6.070312 6.347656 -5.34375 6.078125 -4.6875 C 5.804688 -4.039062 5.53125 -3.390625 5.25 -2.734375 C 4.976562 -2.078125 4.65625 -1.332031 4.28125 -0.5 C 4.0625 -0.0507812 3.90625 0.285156 3.8125 0.515625 C 3.726562 0.742188 3.617188 1.023438 3.484375 1.359375 L 3.5 1.671875 C 3.539062 1.898438 3.441406 2.015625 3.203125 2.015625 C 3.085938 2.015625 2.960938 1.945312 2.828125 1.8125 L 1.21875 0.328125 C 1.96875 -0.785156 2.785156 -2.332031 3.671875 -4.3125 C 4.554688 -6.289062 5.453125 -8.597656 6.359375 -11.234375 Z M 6.359375 -11.234375 "/></g></g></g><g fill="#000000" fill-opacity="1"><g transform="translate(0.0285175, 232.940476)"><g><path d="M 8.34375 -10.78125 L 8.375 -12.578125 C 8.394531 -13.085938 8.40625 -13.460938 8.40625 -13.703125 C 8.40625 -13.941406 8.40625 -14.160156 8.40625 -14.359375 C 8.332031 -14.335938 8.253906 -14.3125 8.171875 -14.28125 C 8.085938 -14.25 7.914062 -14.191406 7.65625 -14.109375 C 7.40625 -14.035156 6.972656 -13.898438 6.359375 -13.703125 C 5.898438 -13.566406 5.484375 -13.421875 5.109375 -13.265625 C 4.734375 -13.117188 4.257812 -12.925781 3.6875 -12.6875 L 3.03125 -14.859375 C 3.539062 -14.960938 3.957031 -15.046875 4.28125 -15.109375 C 4.613281 -15.179688 4.9375 -15.253906 5.25 -15.328125 C 5.570312 -15.410156 5.96875 -15.523438 6.4375 -15.671875 C 6.914062 -15.828125 7.570312 -16.019531 8.40625 -16.25 L 8.40625 -19.078125 C 8.40625 -19.847656 8.398438 -20.457031 8.390625 -20.90625 C 8.378906 -21.351562 8.363281 -21.734375 8.34375 -22.046875 C 8.332031 -22.367188 8.304688 -22.71875 8.265625 -23.09375 L 10.40625 -22.859375 C 10.65625 -22.816406 10.78125 -22.71875 10.78125 -22.5625 C 10.78125 -22.4375 10.65625 -22.285156 10.40625 -22.109375 C 10.363281 -21.253906 10.332031 -20.535156 10.3125 -19.953125 C 10.289062 -19.367188 10.273438 -18.835938 10.265625 -18.359375 C 10.253906 -17.890625 10.238281 -17.367188 10.21875 -16.796875 C 10.382812 -16.890625 10.507812 -16.972656 10.59375 -17.046875 C 10.6875 -17.128906 10.8125 -17.257812 10.96875 -17.4375 L 12.25 -16.25 C 12.40625 -16.09375 12.484375 -15.957031 12.484375 -15.84375 C 12.484375 -15.644531 12.265625 -15.503906 11.828125 -15.421875 C 11.515625 -15.085938 11.25 -14.804688 11.03125 -14.578125 C 10.8125 -14.347656 10.53125 -14.035156 10.1875 -13.640625 C 10.164062 -13.085938 10.15625 -12.660156 10.15625 -12.359375 C 10.15625 -12.066406 10.148438 -11.734375 10.140625 -11.359375 C 10.734375 -12.066406 11.21875 -12.640625 11.59375 -13.078125 C 11.96875 -13.515625 12.273438 -13.867188 12.515625 -14.140625 C 12.765625 -14.421875 12.984375 -14.664062 13.171875 -14.875 C 13.367188 -15.082031 13.578125 -15.304688 13.796875 -15.546875 C 14.546875 -16.378906 15.191406 -17.015625 15.734375 -17.453125 C 16.273438 -17.898438 16.796875 -18.210938 17.296875 -18.390625 C 17.796875 -18.566406 18.347656 -18.65625 18.953125 -18.65625 C 19.910156 -18.65625 20.648438 -18.414062 21.171875 -17.9375 C 21.703125 -17.46875 21.96875 -16.796875 21.96875 -15.921875 C 21.96875 -15.609375 21.957031 -15.257812 21.9375 -14.875 C 21.914062 -14.488281 21.875 -14.078125 21.8125 -13.640625 C 21.53125 -11.179688 21.316406 -9.117188 21.171875 -7.453125 C 21.023438 -5.796875 20.953125 -4.660156 20.953125 -4.046875 C 20.953125 -3.546875 21.023438 -3.207031 21.171875 -3.03125 C 21.316406 -2.851562 21.582031 -2.765625 21.96875 -2.765625 C 22.382812 -2.765625 22.816406 -2.847656 23.265625 -3.015625 C 23.722656 -3.179688 24.171875 -3.425781 24.609375 -3.75 C 25.140625 -4.144531 25.609375 -4.597656 26.015625 -5.109375 C 26.421875 -5.628906 26.894531 -6.375 27.4375 -7.34375 C 27.632812 -7.082031 27.835938 -6.835938 28.046875 -6.609375 C 28.265625 -6.378906 28.523438 -6.144531 28.828125 -5.90625 C 26.941406 -2.46875 24.601562 -0.75 21.8125 -0.75 C 20.78125 -0.75 20.035156 -1 19.578125 -1.5 C 19.128906 -2.007812 18.90625 -2.828125 18.90625 -3.953125 C 18.90625 -4.328125 18.910156 -4.675781 18.921875 -5 C 18.929688 -5.332031 18.957031 -5.773438 19 -6.328125 C 19.050781 -6.878906 19.128906 -7.660156 19.234375 -8.671875 C 19.347656 -9.679688 19.503906 -11.0625 19.703125 -12.8125 C 19.765625 -13.363281 19.816406 -13.929688 19.859375 -14.515625 C 19.910156 -15.097656 19.9375 -15.507812 19.9375 -15.75 C 19.9375 -16.539062 19.582031 -16.9375 18.875 -16.9375 C 18.4375 -16.9375 18.003906 -16.835938 17.578125 -16.640625 C 17.148438 -16.441406 16.664062 -16.09375 16.125 -15.59375 C 15.582031 -15.101562 14.910156 -14.40625 14.109375 -13.5 C 13.910156 -13.289062 13.484375 -12.816406 12.828125 -12.078125 C 12.179688 -11.335938 11.285156 -10.34375 10.140625 -9.09375 C 10.148438 -7.644531 10.15625 -6.453125 10.15625 -5.515625 C 10.15625 -4.585938 10.160156 -3.832031 10.171875 -3.25 C 10.179688 -2.664062 10.191406 -2.175781 10.203125 -1.78125 C 10.210938 -1.382812 10.222656 -1.003906 10.234375 -0.640625 C 10.242188 -0.273438 10.257812 0.15625 10.28125 0.65625 L 8.046875 0.75 C 8.046875 0.625 8.066406 -0.101562 8.109375 -1.4375 C 8.148438 -2.78125 8.210938 -4.707031 8.296875 -7.21875 L 6.09375 -4.21875 C 6.03125 -4.132812 5.914062 -3.976562 5.75 -3.75 C 5.582031 -3.53125 5.359375 -3.238281 5.078125 -2.875 C 4.765625 -2.5 4.519531 -2.203125 4.34375 -1.984375 C 4.175781 -1.773438 3.988281 -1.507812 3.78125 -1.1875 L 2.578125 -3.125 C 3.210938 -3.789062 3.894531 -4.578125 4.625 -5.484375 C 5.363281 -6.398438 6.066406 -7.328125 6.734375 -8.265625 C 7.398438 -9.210938 7.9375 -10.050781 8.34375 -10.78125 Z M 8.34375 -10.78125 "/></g></g></g></svg>