<svg xmlns="http://www.w3.org/2000/svg" xmlns:xlink="http://www.w3.org/1999/xlink" width="49" zoomAndPan="magnify" viewBox="0 0 36.75 112.499997" height="150" preserveAspectRatio="xMidYMid meet" version="1.2"><defs/><g id="19e9c64cfc"><g style="fill:#000000;fill-opacity:1;"><g transform="translate(-1.687287, 26.78538)"><path style="stroke:none" d="M 4.53125 -14.0625 L 3.0625 -16.796875 C 3.863281 -17.097656 4.503906 -17.332031 4.984375 -17.5 C 5.472656 -17.675781 5.921875 -17.84375 6.328125 -18 C 6.742188 -18.164062 7.234375 -18.375 7.796875 -18.625 C 8.359375 -18.875 9.113281 -19.210938 10.0625 -19.640625 C 12.226562 -20.585938 14.078125 -21.328125 15.609375 -21.859375 C 17.148438 -22.398438 18.535156 -22.78125 19.765625 -23 C 21.003906 -23.226562 22.269531 -23.34375 23.5625 -23.34375 C 26.832031 -23.34375 29.359375 -22.539062 31.140625 -20.9375 C 32.921875 -19.34375 33.8125 -17.078125 33.8125 -14.140625 C 33.8125 -10.171875 32.15625 -7.09375 28.84375 -4.90625 C 27.894531 -4.28125 26.660156 -3.65625 25.140625 -3.03125 C 23.617188 -2.40625 22 -1.867188 20.28125 -1.421875 C 19.65625 -1.242188 18.953125 -1.078125 18.171875 -0.921875 C 17.398438 -0.773438 16.351562 -0.566406 15.03125 -0.296875 C 14.882812 -0.796875 14.734375 -1.207031 14.578125 -1.53125 C 14.429688 -1.851562 14.160156 -2.328125 13.765625 -2.953125 C 15.609375 -3.203125 17.1875 -3.457031 18.5 -3.71875 C 19.8125 -3.976562 20.992188 -4.28125 22.046875 -4.625 C 23.109375 -4.976562 24.164062 -5.394531 25.21875 -5.875 C 29.15625 -7.71875 31.125 -10.445312 31.125 -14.0625 C 31.125 -16.28125 30.472656 -17.988281 29.171875 -19.1875 C 27.878906 -20.382812 26.023438 -20.984375 23.609375 -20.984375 C 21.929688 -20.984375 20.222656 -20.742188 18.484375 -20.265625 C 16.753906 -19.796875 14.71875 -19 12.375 -17.875 C 10.882812 -17.175781 9.710938 -16.617188 8.859375 -16.203125 C 8.015625 -15.796875 7.351562 -15.476562 6.875 -15.25 C 6.40625 -15.03125 6.007812 -14.835938 5.6875 -14.671875 C 5.363281 -14.515625 4.976562 -14.3125 4.53125 -14.0625 Z M 4.53125 -14.0625 "/></g></g><g style="fill:#000000;fill-opacity:1;"><g transform="translate(-1.687287, 63.894341)"><path style="stroke:none" d="M 30.75 -29.625 L 32.015625 -31.15625 C 32.910156 -30.613281 33.695312 -30.070312 34.375 -29.53125 C 35.050781 -29 35.847656 -28.296875 36.765625 -27.421875 L 35.28125 -25.734375 C 34.695312 -26.359375 34.1875 -26.875 33.75 -27.28125 C 33.320312 -27.695312 32.875 -28.082031 32.40625 -28.4375 C 31.945312 -28.800781 31.394531 -29.195312 30.75 -29.625 Z M 4.484375 -14.0625 L 3.03125 -16.796875 C 3.832031 -17.097656 4.472656 -17.332031 4.953125 -17.5 C 5.441406 -17.675781 5.890625 -17.84375 6.296875 -18 C 6.710938 -18.164062 7.203125 -18.375 7.765625 -18.625 C 8.328125 -18.875 9.082031 -19.210938 10.03125 -19.640625 C 12.195312 -20.585938 14.046875 -21.328125 15.578125 -21.859375 C 17.109375 -22.398438 18.488281 -22.78125 19.71875 -23 C 20.957031 -23.226562 22.226562 -23.34375 23.53125 -23.34375 C 26.789062 -23.34375 29.3125 -22.539062 31.09375 -20.9375 C 32.882812 -19.34375 33.78125 -17.078125 33.78125 -14.140625 C 33.78125 -10.171875 32.117188 -7.09375 28.796875 -4.90625 C 27.847656 -4.28125 26.613281 -3.65625 25.09375 -3.03125 C 23.570312 -2.40625 21.953125 -1.867188 20.234375 -1.421875 C 19.609375 -1.242188 18.910156 -1.078125 18.140625 -0.921875 C 17.367188 -0.773438 16.320312 -0.566406 15 -0.296875 C 14.851562 -0.796875 14.703125 -1.207031 14.546875 -1.53125 C 14.398438 -1.851562 14.128906 -2.328125 13.734375 -2.953125 C 15.578125 -3.203125 17.148438 -3.457031 18.453125 -3.71875 C 19.765625 -3.976562 20.953125 -4.28125 22.015625 -4.625 C 23.078125 -4.976562 24.128906 -5.394531 25.171875 -5.875 C 29.109375 -7.71875 31.078125 -10.445312 31.078125 -14.0625 C 31.078125 -16.28125 30.425781 -17.988281 29.125 -19.1875 C 27.832031 -20.382812 25.976562 -20.984375 23.5625 -20.984375 C 21.894531 -20.984375 20.191406 -20.742188 18.453125 -20.265625 C 16.722656 -19.796875 14.6875 -19 12.34375 -17.875 C 10.84375 -17.175781 9.671875 -16.617188 8.828125 -16.203125 C 7.984375 -15.796875 7.320312 -15.476562 6.84375 -15.25 C 6.375 -15.03125 5.972656 -14.835938 5.640625 -14.671875 C 5.316406 -14.515625 4.929688 -14.3125 4.484375 -14.0625 Z M 27.984375 -26.375 L 29.28125 -27.90625 C 30.15625 -27.351562 30.9375 -26.804688 31.625 -26.265625 C 32.3125 -25.734375 33.101562 -25.035156 34 -24.171875 L 32.5 -22.484375 C 31.925781 -23.109375 31.421875 -23.625 30.984375 -24.03125 C 30.554688 -24.445312 30.109375 -24.832031 29.640625 -25.1875 C 29.179688 -25.550781 28.628906 -25.945312 27.984375 -26.375 Z M 27.984375 -26.375 "/></g></g><g style="fill:#000000;fill-opacity:1;"><g transform="translate(-1.687287, 102.084632)"><path style="stroke:none" d="M 24.953125 -27.421875 L 26 -25.21875 C 24.53125 -24.632812 23.3125 -24.175781 22.34375 -23.84375 C 21.382812 -23.507812 20.421875 -23.207031 19.453125 -22.9375 C 19.578125 -22.5625 19.6875 -22.238281 19.78125 -21.96875 C 19.882812 -21.707031 20 -21.421875 20.125 -21.109375 C 20.25 -20.796875 20.421875 -20.382812 20.640625 -19.875 C 20.867188 -19.363281 21.179688 -18.675781 21.578125 -17.8125 C 22.953125 -18.300781 24.175781 -18.789062 25.25 -19.28125 C 26.320312 -19.769531 27.359375 -20.300781 28.359375 -20.875 L 29.546875 -18.703125 C 27.003906 -17.378906 24.695312 -16.378906 22.625 -15.703125 C 23.320312 -14.429688 23.929688 -13.363281 24.453125 -12.5 C 24.984375 -11.644531 25.515625 -10.847656 26.046875 -10.109375 C 26.585938 -9.378906 27.242188 -8.539062 28.015625 -7.59375 L 25.921875 -5.828125 C 23.628906 -7.503906 20.910156 -8.34375 17.765625 -8.34375 C 15.992188 -8.34375 14.570312 -8 13.5 -7.3125 C 12.425781 -6.625 11.890625 -5.71875 11.890625 -4.59375 C 11.890625 -3.226562 12.515625 -2.226562 13.765625 -1.59375 C 15.015625 -0.957031 16.972656 -0.640625 19.640625 -0.640625 C 20.359375 -0.640625 21 -0.660156 21.5625 -0.703125 C 22.125 -0.753906 22.878906 -0.832031 23.828125 -0.9375 C 23.398438 -0.0078125 23.1875 0.8125 23.1875 1.53125 L 23.1875 1.828125 C 22.5625 1.859375 22.054688 1.882812 21.671875 1.90625 C 21.285156 1.925781 20.804688 1.9375 20.234375 1.9375 C 18.535156 1.9375 17.128906 1.851562 16.015625 1.6875 C 14.910156 1.53125 13.9375 1.265625 13.09375 0.890625 C 11.945312 0.398438 11.03125 -0.320312 10.34375 -1.28125 C 9.65625 -2.25 9.3125 -3.304688 9.3125 -4.453125 C 9.3125 -6.296875 10.078125 -7.753906 11.609375 -8.828125 C 13.148438 -9.898438 15.238281 -10.4375 17.875 -10.4375 C 19 -10.4375 19.976562 -10.351562 20.8125 -10.1875 C 21.644531 -10.03125 22.640625 -9.710938 23.796875 -9.234375 C 23.390625 -9.804688 23.066406 -10.273438 22.828125 -10.640625 C 22.597656 -11.003906 22.378906 -11.351562 22.171875 -11.6875 C 21.972656 -12.019531 21.738281 -12.441406 21.46875 -12.953125 C 21.195312 -13.472656 20.835938 -14.15625 20.390625 -15 C 19.160156 -14.644531 17.976562 -14.363281 16.84375 -14.15625 C 15.71875 -13.945312 14.753906 -13.84375 13.953125 -13.84375 C 11.628906 -13.84375 10.46875 -14.753906 10.46875 -16.578125 C 10.46875 -16.867188 10.515625 -17.175781 10.609375 -17.5 C 10.710938 -17.832031 10.890625 -18.242188 11.140625 -18.734375 L 13.203125 -17.875 C 12.953125 -17.457031 12.828125 -17.144531 12.828125 -16.9375 C 12.828125 -16.46875 13.210938 -16.234375 13.984375 -16.234375 C 15.359375 -16.234375 17.128906 -16.53125 19.296875 -17.125 L 18.625 -18.703125 C 18.320312 -19.398438 18.085938 -19.941406 17.921875 -20.328125 C 17.765625 -20.710938 17.628906 -21.046875 17.515625 -21.328125 C 17.410156 -21.617188 17.28125 -21.941406 17.125 -22.296875 C 16.28125 -22.097656 15.453125 -21.921875 14.640625 -21.765625 C 13.828125 -21.617188 12.859375 -21.457031 11.734375 -21.28125 C 10.617188 -21.101562 9.175781 -20.890625 7.40625 -20.640625 L 6.921875 -23.078125 C 7.765625 -23.128906 8.765625 -23.226562 9.921875 -23.375 C 11.085938 -23.53125 12.226562 -23.703125 13.34375 -23.890625 C 14.46875 -24.078125 15.359375 -24.242188 16.015625 -24.390625 C 16.140625 -24.441406 16.222656 -24.46875 16.265625 -24.46875 C 16.316406 -24.46875 16.367188 -24.476562 16.421875 -24.5 C 16.398438 -24.601562 16.367188 -24.703125 16.328125 -24.796875 C 16.285156 -24.898438 16.210938 -25.113281 16.109375 -25.4375 C 16.015625 -25.757812 15.832031 -26.296875 15.5625 -27.046875 C 15.457031 -27.367188 15.378906 -27.609375 15.328125 -27.765625 C 15.285156 -27.929688 15.175781 -28.289062 15 -28.84375 C 14.925781 -29.132812 14.875 -29.332031 14.84375 -29.4375 C 14.820312 -29.539062 14.75 -29.753906 14.625 -30.078125 L 17.5 -30.375 C 17.875 -30.425781 18.0625 -30.265625 18.0625 -29.890625 C 18.0625 -29.785156 18.035156 -29.695312 17.984375 -29.625 C 17.941406 -29.550781 17.78125 -29.398438 17.5 -29.171875 C 17.707031 -28.546875 17.859375 -28.035156 17.953125 -27.640625 C 18.054688 -27.242188 18.171875 -26.863281 18.296875 -26.5 C 18.421875 -26.132812 18.566406 -25.664062 18.734375 -25.09375 C 19.515625 -25.320312 20.195312 -25.535156 20.78125 -25.734375 C 21.363281 -25.929688 21.976562 -26.160156 22.625 -26.421875 C 23.28125 -26.679688 24.054688 -27.015625 24.953125 -27.421875 Z M 24.953125 -27.421875 "/></g></g></g></svg>