<svg xmlns="http://www.w3.org/2000/svg" xmlns:xlink="http://www.w3.org/1999/xlink" width="40" zoomAndPan="magnify" viewBox="0 0 30 96.749999" height="129" preserveAspectRatio="xMidYMid meet" version="1.0"><defs><g/><clipPath id="a014cda9dd"><path d="M 3 74 L 27 74 L 27 96.5 L 3 96.5 Z M 3 74 " clip-rule="nonzero"/></clipPath></defs><g fill="#ffffff" fill-opacity="1"><g transform="translate(3.098366, 22.157605)"><g><path d="M 18.96875 -6.84375 L 19.28125 -7.28125 L 20.5 -6.296875 C 20.625 -6.191406 20.6875 -6.09375 20.6875 -6 C 20.6875 -5.882812 20.632812 -5.800781 20.53125 -5.75 C 20.425781 -5.695312 20.210938 -5.632812 19.890625 -5.5625 C 19.515625 -4.019531 19.175781 -2.796875 18.875 -1.890625 C 18.582031 -0.984375 18.28125 -0.296875 17.96875 0.171875 C 17.65625 0.640625 17.285156 1 16.859375 1.25 C 16.546875 1.425781 16.210938 1.566406 15.859375 1.671875 C 15.503906 1.773438 15.035156 1.851562 14.453125 1.90625 C 13.867188 1.957031 13.0625 2 12.03125 2.03125 C 11.976562 1.539062 11.910156 1.164062 11.828125 0.90625 C 11.753906 0.65625 11.617188 0.367188 11.421875 0.046875 C 11.804688 0.0664062 12.097656 0.0820312 12.296875 0.09375 C 12.503906 0.113281 12.710938 0.125 12.921875 0.125 C 13.898438 0.125 14.59375 0.0976562 15 0.046875 C 15.414062 -0.00390625 15.753906 -0.109375 16.015625 -0.265625 C 16.796875 -0.765625 17.507812 -2.476562 18.15625 -5.40625 L 7.59375 -5.40625 C 7.40625 -5.050781 7.222656 -4.71875 7.046875 -4.40625 C 6.867188 -4.09375 6.710938 -3.820312 6.578125 -3.59375 L 4.890625 -3.953125 C 5.273438 -4.503906 5.703125 -5.21875 6.171875 -6.09375 C 6.648438 -6.976562 7.171875 -8.066406 7.734375 -9.359375 L 5.71875 -9.359375 C 5.28125 -9.359375 4.765625 -9.351562 4.171875 -9.34375 C 3.585938 -9.332031 3.003906 -9.320312 2.421875 -9.3125 C 1.847656 -9.3125 1.347656 -9.300781 0.921875 -9.28125 L 0.921875 -10.96875 C 1.335938 -10.957031 1.828125 -10.941406 2.390625 -10.921875 C 2.960938 -10.898438 3.546875 -10.882812 4.140625 -10.875 C 4.734375 -10.875 5.257812 -10.875 5.71875 -10.875 L 18.390625 -10.875 C 18.910156 -10.875 19.457031 -10.875 20.03125 -10.875 C 20.613281 -10.882812 21.1875 -10.898438 21.75 -10.921875 C 22.3125 -10.941406 22.789062 -10.957031 23.1875 -10.96875 L 23.1875 -9.28125 C 22.769531 -9.300781 22.28125 -9.3125 21.71875 -9.3125 C 21.15625 -9.320312 20.582031 -9.332031 20 -9.34375 C 19.425781 -9.351562 18.890625 -9.359375 18.390625 -9.359375 L 9.578125 -9.359375 C 9.472656 -9.160156 9.359375 -8.925781 9.234375 -8.65625 C 9.109375 -8.382812 8.90625 -7.972656 8.625 -7.421875 L 8.34375 -6.84375 Z M 6.75 -13.328125 L 6.75 -12.25 L 5.15625 -12.25 C 5.1875 -12.539062 5.207031 -12.890625 5.21875 -13.296875 C 5.226562 -13.703125 5.234375 -14.203125 5.234375 -14.796875 L 5.234375 -17.265625 C 5.234375 -17.648438 5.222656 -18.046875 5.203125 -18.453125 C 5.191406 -18.867188 5.175781 -19.179688 5.15625 -19.390625 C 5.570312 -19.367188 5.984375 -19.359375 6.390625 -19.359375 C 6.804688 -19.359375 7.28125 -19.359375 7.8125 -19.359375 L 16.375 -19.359375 C 16.90625 -19.359375 17.375 -19.359375 17.78125 -19.359375 C 18.1875 -19.359375 18.597656 -19.367188 19.015625 -19.390625 C 19.003906 -19.179688 18.988281 -18.867188 18.96875 -18.453125 C 18.957031 -18.046875 18.953125 -17.648438 18.953125 -17.265625 L 18.953125 -14.875 C 18.953125 -13.769531 18.972656 -12.9375 19.015625 -12.375 L 17.359375 -12.375 L 17.359375 -13.328125 Z M 17.359375 -14.703125 L 17.359375 -17.9375 L 6.75 -17.9375 L 6.75 -14.703125 Z M 17.359375 -14.703125 "/></g></g></g><g fill="#ffffff" fill-opacity="1"><g transform="translate(3.098366, 45.52299)"><g><path d="M 11 -16.4375 L 12.375 -15.328125 C 12.476562 -15.253906 12.53125 -15.148438 12.53125 -15.015625 C 12.53125 -14.953125 12.5 -14.898438 12.4375 -14.859375 C 12.375 -14.816406 12.195312 -14.757812 11.90625 -14.6875 C 11.71875 -13.269531 11.484375 -12.019531 11.203125 -10.9375 C 10.929688 -9.863281 10.601562 -8.867188 10.21875 -7.953125 C 9.832031 -7.035156 9.351562 -6.113281 8.78125 -5.1875 C 8.195312 -4.21875 7.585938 -3.351562 6.953125 -2.59375 C 6.316406 -1.84375 5.597656 -1.132812 4.796875 -0.46875 C 3.992188 0.195312 3.046875 0.882812 1.953125 1.59375 C 1.617188 1.070312 1.234375 0.640625 0.796875 0.296875 C 1.585938 -0.191406 2.242188 -0.628906 2.765625 -1.015625 C 3.296875 -1.398438 3.773438 -1.789062 4.203125 -2.1875 C 4.628906 -2.59375 5.078125 -3.050781 5.546875 -3.5625 C 6.578125 -4.757812 7.425781 -6.023438 8.09375 -7.359375 C 7.675781 -7.660156 7.257812 -7.953125 6.84375 -8.234375 C 6.425781 -8.523438 5.992188 -8.800781 5.546875 -9.0625 C 5.316406 -9.207031 5.078125 -9.335938 4.828125 -9.453125 C 4.578125 -9.578125 4.332031 -9.707031 4.09375 -9.84375 C 3.46875 -8.519531 2.765625 -7.328125 1.984375 -6.265625 C 1.765625 -6.523438 1.5625 -6.742188 1.375 -6.921875 C 1.195312 -7.109375 0.976562 -7.285156 0.71875 -7.453125 C 1.5625 -8.578125 2.273438 -9.753906 2.859375 -10.984375 C 3.441406 -12.222656 3.929688 -13.585938 4.328125 -15.078125 C 4.722656 -16.566406 5.039062 -18.226562 5.28125 -20.0625 L 6.921875 -19.71875 C 7.222656 -19.675781 7.375 -19.566406 7.375 -19.390625 C 7.375 -19.316406 7.34375 -19.25 7.28125 -19.1875 C 7.21875 -19.125 7.070312 -19.035156 6.84375 -18.921875 C 6.695312 -17.941406 6.503906 -16.988281 6.265625 -16.0625 L 10.6875 -16.0625 Z M 10.34375 -14.6875 L 5.90625 -14.6875 C 5.75 -14.09375 5.5625 -13.492188 5.34375 -12.890625 C 5.132812 -12.296875 4.921875 -11.710938 4.703125 -11.140625 C 5.054688 -10.972656 5.410156 -10.8125 5.765625 -10.65625 C 6.117188 -10.5 6.472656 -10.332031 6.828125 -10.15625 C 7.160156 -9.976562 7.488281 -9.785156 7.8125 -9.578125 C 8.144531 -9.378906 8.472656 -9.164062 8.796875 -8.9375 C 8.859375 -9.070312 8.914062 -9.210938 8.96875 -9.359375 C 9.195312 -9.929688 9.390625 -10.476562 9.546875 -11 C 9.703125 -11.53125 9.84375 -12.085938 9.96875 -12.671875 C 10.101562 -13.253906 10.226562 -13.925781 10.34375 -14.6875 Z M 16.515625 -10.421875 L 16.515625 -13.046875 C 16.515625 -17.023438 16.46875 -19.382812 16.375 -20.125 L 18.25 -19.96875 C 18.476562 -19.9375 18.59375 -19.851562 18.59375 -19.71875 C 18.59375 -19.59375 18.445312 -19.441406 18.15625 -19.265625 C 18.15625 -19.054688 18.15625 -18.859375 18.15625 -18.671875 C 18.15625 -18.484375 18.15625 -18.207031 18.15625 -17.84375 C 18.15625 -17.488281 18.148438 -16.9375 18.140625 -16.1875 C 18.128906 -15.4375 18.125 -14.390625 18.125 -13.046875 L 18.125 -8.734375 C 18.5625 -8.359375 19.023438 -8.003906 19.515625 -7.671875 C 20.003906 -7.347656 20.578125 -7.015625 21.234375 -6.671875 C 21.898438 -6.335938 22.691406 -5.960938 23.609375 -5.546875 C 23.316406 -5.285156 23.082031 -5.050781 22.90625 -4.84375 C 22.738281 -4.632812 22.566406 -4.351562 22.390625 -4 C 21.492188 -4.414062 20.707031 -4.820312 20.03125 -5.21875 C 19.351562 -5.613281 18.71875 -6.050781 18.125 -6.53125 L 18.125 -4.96875 C 18.125 -3.394531 18.132812 -2.019531 18.15625 -0.84375 C 18.1875 0.332031 18.21875 1.304688 18.25 2.078125 L 16.390625 2.078125 C 16.421875 1.285156 16.445312 0.304688 16.46875 -0.859375 C 16.5 -2.035156 16.515625 -3.40625 16.515625 -4.96875 L 16.515625 -8.03125 C 16.484375 -8.0625 16.453125 -8.09375 16.421875 -8.125 C 16.390625 -8.15625 16.359375 -8.1875 16.328125 -8.21875 C 15.773438 -8.8125 15.289062 -9.378906 14.875 -9.921875 C 14.46875 -10.472656 14.09375 -11.066406 13.75 -11.703125 C 13.40625 -12.335938 13.050781 -13.082031 12.6875 -13.9375 L 13.859375 -14.59375 C 14.328125 -13.6875 14.773438 -12.90625 15.203125 -12.25 C 15.628906 -11.59375 16.066406 -10.984375 16.515625 -10.421875 Z M 16.515625 -10.421875 "/></g></g></g><g fill="#ffffff" fill-opacity="1"><g transform="translate(3.098366, 70.528032)"><g><path d="M 13.90625 -4.703125 L 10.4375 -4.703125 C 10.320312 -3.867188 10.113281 -3.132812 9.8125 -2.5 C 9.519531 -1.875 9.101562 -1.28125 8.5625 -0.71875 C 8.09375 -0.238281 7.601562 0.15625 7.09375 0.46875 C 6.59375 0.78125 5.90625 1.125 5.03125 1.5 C 4.925781 1.125 4.820312 0.84375 4.71875 0.65625 C 4.613281 0.476562 4.460938 0.300781 4.265625 0.125 C 5.128906 -0.21875 5.804688 -0.546875 6.296875 -0.859375 C 6.796875 -1.171875 7.242188 -1.566406 7.640625 -2.046875 C 7.960938 -2.429688 8.222656 -2.832031 8.421875 -3.25 C 8.628906 -3.664062 8.769531 -4.148438 8.84375 -4.703125 L 7.0625 -4.703125 C 6.707031 -4.703125 6.300781 -4.695312 5.84375 -4.6875 C 5.382812 -4.675781 4.988281 -4.664062 4.65625 -4.65625 L 4.65625 -6.140625 C 4.988281 -6.128906 5.382812 -6.117188 5.84375 -6.109375 C 6.300781 -6.097656 6.707031 -6.09375 7.0625 -6.09375 L 9 -6.09375 L 9 -8.65625 L 7.78125 -8.65625 C 7.425781 -8.65625 7.019531 -8.648438 6.5625 -8.640625 C 6.101562 -8.628906 5.707031 -8.617188 5.375 -8.609375 L 5.375 -10.078125 C 5.707031 -10.054688 6.101562 -10.039062 6.5625 -10.03125 C 7.019531 -10.03125 7.425781 -10.03125 7.78125 -10.03125 L 16.34375 -10.03125 C 16.695312 -10.03125 17.097656 -10.03125 17.546875 -10.03125 C 18.003906 -10.039062 18.40625 -10.054688 18.75 -10.078125 L 18.75 -8.609375 C 18.40625 -8.617188 18.003906 -8.628906 17.546875 -8.640625 C 17.097656 -8.648438 16.695312 -8.65625 16.34375 -8.65625 L 15.453125 -8.65625 L 15.453125 -6.09375 L 17.21875 -6.09375 C 17.570312 -6.09375 17.972656 -6.097656 18.421875 -6.109375 C 18.867188 -6.117188 19.269531 -6.128906 19.625 -6.140625 L 19.625 -4.65625 C 19.269531 -4.664062 18.867188 -4.675781 18.421875 -4.6875 C 17.972656 -4.695312 17.570312 -4.703125 17.21875 -4.703125 L 15.453125 -4.703125 L 15.453125 -2.84375 C 15.453125 -1.945312 15.457031 -1.128906 15.46875 -0.390625 C 15.488281 0.347656 15.507812 0.9375 15.53125 1.375 L 13.84375 1.375 C 13.875 0.90625 13.890625 0.332031 13.890625 -0.34375 C 13.898438 -1.03125 13.90625 -1.863281 13.90625 -2.84375 Z M 10.53125 -8.65625 L 10.53125 -6.09375 L 13.90625 -6.09375 L 13.90625 -8.65625 Z M 15.015625 -12.046875 L 15.015625 -11.375 L 13.453125 -11.375 C 13.503906 -11.9375 13.53125 -12.773438 13.53125 -13.890625 L 13.53125 -17.125 C 13.53125 -17.507812 13.523438 -17.90625 13.515625 -18.3125 C 13.503906 -18.71875 13.484375 -19.023438 13.453125 -19.234375 C 13.859375 -19.222656 14.265625 -19.21875 14.671875 -19.21875 C 15.078125 -19.21875 15.554688 -19.21875 16.109375 -19.21875 L 19.671875 -19.21875 C 20.179688 -19.21875 20.625 -19.21875 21 -19.21875 C 21.382812 -19.21875 21.753906 -19.222656 22.109375 -19.234375 C 22.085938 -19.023438 22.066406 -18.71875 22.046875 -18.3125 C 22.035156 -17.90625 22.03125 -17.507812 22.03125 -17.125 L 22.03125 -5.234375 C 22.03125 -4.734375 22.035156 -4.101562 22.046875 -3.34375 C 22.066406 -2.59375 22.085938 -1.671875 22.109375 -0.578125 L 22.109375 -0.3125 C 22.109375 0.1875 22.050781 0.566406 21.9375 0.828125 C 21.820312 1.097656 21.601562 1.320312 21.28125 1.5 C 20.976562 1.675781 20.617188 1.796875 20.203125 1.859375 C 19.796875 1.921875 19.171875 1.953125 18.328125 1.953125 C 18.304688 1.503906 18.265625 1.164062 18.203125 0.9375 C 18.140625 0.71875 18.019531 0.445312 17.84375 0.125 C 18.34375 0.132812 18.710938 0.144531 18.953125 0.15625 C 19.191406 0.175781 19.414062 0.1875 19.625 0.1875 C 20.007812 0.1875 20.253906 0.128906 20.359375 0.015625 C 20.460938 -0.0859375 20.515625 -0.34375 20.515625 -0.75 L 20.515625 -12.046875 Z M 20.515625 -13.421875 L 20.515625 -15 L 15.015625 -15 L 15.015625 -13.421875 Z M 20.515625 -16.28125 L 20.515625 -17.84375 L 15.015625 -17.84375 L 15.015625 -16.28125 Z M 3.5625 -12.046875 L 3.5625 -3.828125 C 3.5625 -2.554688 3.566406 -1.445312 3.578125 -0.5 C 3.597656 0.445312 3.628906 1.21875 3.671875 1.8125 L 1.984375 1.8125 C 2.015625 1.132812 2.03125 0.335938 2.03125 -0.578125 C 2.039062 -1.492188 2.046875 -2.578125 2.046875 -3.828125 L 2.046875 -17.125 C 2.046875 -17.507812 2.039062 -17.90625 2.03125 -18.3125 C 2.03125 -18.71875 2.015625 -19.023438 1.984375 -19.234375 C 2.347656 -19.222656 2.71875 -19.21875 3.09375 -19.21875 C 3.476562 -19.21875 3.914062 -19.21875 4.40625 -19.21875 L 7.859375 -19.21875 C 8.421875 -19.21875 8.90625 -19.21875 9.3125 -19.21875 C 9.726562 -19.21875 10.132812 -19.222656 10.53125 -19.234375 C 10.519531 -19.023438 10.503906 -18.71875 10.484375 -18.3125 C 10.472656 -17.90625 10.46875 -17.507812 10.46875 -17.125 L 10.46875 -13.890625 C 10.46875 -12.773438 10.488281 -11.9375 10.53125 -11.375 L 9 -11.375 L 9 -12.046875 Z M 9 -13.421875 L 9 -15 L 3.5625 -15 L 3.5625 -13.421875 Z M 9 -16.28125 L 9 -17.84375 L 3.5625 -17.84375 L 3.5625 -16.28125 Z M 9 -16.28125 "/></g></g></g><g clip-path="url(#a014cda9dd)"><g fill="#ffffff" fill-opacity="1"><g transform="translate(3.098366, 95.355311)"><g><path d="M 11.234375 -17.484375 L 11.234375 -18.828125 L 11.203125 -20.375 L 12.875 -20.203125 C 13.175781 -20.179688 13.328125 -20.101562 13.328125 -19.96875 C 13.328125 -19.820312 13.175781 -19.660156 12.875 -19.484375 L 12.875 -17.484375 L 17.53125 -17.484375 C 18.363281 -17.484375 19.210938 -17.488281 20.078125 -17.5 C 20.953125 -17.519531 21.703125 -17.546875 22.328125 -17.578125 C 22.304688 -17.140625 22.289062 -16.785156 22.28125 -16.515625 C 22.28125 -16.253906 22.28125 -16 22.28125 -15.75 L 22.28125 -14.921875 C 22.28125 -14.304688 22.300781 -13.597656 22.34375 -12.796875 L 20.59375 -12.796875 C 20.601562 -13.148438 20.613281 -13.523438 20.625 -13.921875 C 20.632812 -14.316406 20.640625 -14.648438 20.640625 -14.921875 L 20.640625 -15.953125 L 3.453125 -15.953125 L 3.453125 -14.921875 C 3.453125 -14.648438 3.457031 -14.316406 3.46875 -13.921875 C 3.488281 -13.523438 3.503906 -13.148438 3.515625 -12.796875 L 1.734375 -12.796875 C 1.785156 -13.597656 1.8125 -14.304688 1.8125 -14.921875 L 1.8125 -15.75 C 1.8125 -16 1.8125 -16.253906 1.8125 -16.515625 C 1.8125 -16.785156 1.800781 -17.140625 1.78125 -17.578125 C 2.394531 -17.546875 3.132812 -17.519531 4 -17.5 C 4.863281 -17.488281 5.71875 -17.484375 6.5625 -17.484375 Z M 12 -11.625 L 12 -7.546875 L 18.203125 -8.21875 C 19.035156 -8.3125 19.734375 -8.390625 20.296875 -8.453125 C 20.859375 -8.523438 21.347656 -8.585938 21.765625 -8.640625 C 22.179688 -8.703125 22.582031 -8.753906 22.96875 -8.796875 L 23.140625 -7.140625 C 22.191406 -7.054688 21.4375 -6.988281 20.875 -6.9375 C 20.3125 -6.894531 19.84375 -6.859375 19.46875 -6.828125 C 19.101562 -6.804688 18.726562 -6.769531 18.34375 -6.71875 L 12 -6.046875 L 12 -1.203125 C 12 -0.960938 12.035156 -0.769531 12.109375 -0.625 C 12.179688 -0.476562 12.347656 -0.375 12.609375 -0.3125 C 12.867188 -0.25 13.273438 -0.207031 13.828125 -0.1875 C 14.378906 -0.175781 15.144531 -0.171875 16.125 -0.171875 C 17.238281 -0.171875 18.109375 -0.191406 18.734375 -0.234375 C 19.359375 -0.285156 19.816406 -0.421875 20.109375 -0.640625 C 20.410156 -0.859375 20.617188 -1.210938 20.734375 -1.703125 C 20.847656 -2.191406 20.953125 -2.878906 21.046875 -3.765625 C 21.429688 -3.566406 21.734375 -3.421875 21.953125 -3.328125 C 22.171875 -3.242188 22.398438 -3.164062 22.640625 -3.09375 C 22.523438 -2.414062 22.429688 -1.898438 22.359375 -1.546875 C 22.285156 -1.203125 22.21875 -0.9375 22.15625 -0.75 C 22.09375 -0.570312 22 -0.367188 21.875 -0.140625 C 21.644531 0.253906 21.363281 0.546875 21.03125 0.734375 C 20.707031 0.929688 20.269531 1.054688 19.71875 1.109375 C 19.394531 1.140625 18.992188 1.171875 18.515625 1.203125 C 18.035156 1.234375 17.535156 1.253906 17.015625 1.265625 C 16.503906 1.285156 16.03125 1.296875 15.59375 1.296875 C 14.46875 1.296875 13.5625 1.269531 12.875 1.21875 C 12.1875 1.175781 11.664062 1.085938 11.3125 0.953125 C 10.957031 0.828125 10.71875 0.640625 10.59375 0.390625 C 10.476562 0.148438 10.421875 -0.179688 10.421875 -0.609375 L 10.421875 -5.875 L 5.765625 -5.375 C 4.910156 -5.289062 4.207031 -5.21875 3.65625 -5.15625 C 3.101562 -5.09375 2.617188 -5.03125 2.203125 -4.96875 C 1.796875 -4.914062 1.390625 -4.859375 0.984375 -4.796875 L 0.8125 -6.46875 C 1.75 -6.539062 2.476562 -6.597656 3 -6.640625 C 3.519531 -6.679688 3.921875 -6.710938 4.203125 -6.734375 C 4.484375 -6.765625 4.71875 -6.789062 4.90625 -6.8125 C 5.101562 -6.832031 5.34375 -6.851562 5.625 -6.875 L 10.421875 -7.375 L 10.421875 -11.140625 C 9.398438 -10.835938 8.332031 -10.5625 7.21875 -10.3125 C 6.113281 -10.0625 4.820312 -9.789062 3.34375 -9.5 C 3.21875 -9.90625 3.113281 -10.195312 3.03125 -10.375 C 2.957031 -10.5625 2.847656 -10.757812 2.703125 -10.96875 C 4.421875 -11.289062 5.929688 -11.601562 7.234375 -11.90625 C 8.546875 -12.21875 9.75 -12.539062 10.84375 -12.875 C 11.9375 -13.207031 12.992188 -13.578125 14.015625 -13.984375 C 15.035156 -14.398438 16.109375 -14.882812 17.234375 -15.4375 L 18.640625 -14.328125 C 18.765625 -14.222656 18.828125 -14.113281 18.828125 -14 C 18.828125 -13.863281 18.710938 -13.796875 18.484375 -13.796875 C 18.441406 -13.796875 18.390625 -13.796875 18.328125 -13.796875 C 18.265625 -13.796875 18.148438 -13.800781 17.984375 -13.8125 C 16.765625 -13.332031 15.675781 -12.914062 14.71875 -12.5625 C 13.757812 -12.207031 12.851562 -11.894531 12 -11.625 Z M 12 -11.625 "/></g></g></g></g></svg>