<svg xmlns="http://www.w3.org/2000/svg" xmlns:xlink="http://www.w3.org/1999/xlink" width="40" zoomAndPan="magnify" viewBox="0 0 30 104.999996" height="140" preserveAspectRatio="xMidYMid meet" version="1.0"><defs><g/></defs><g fill="#000000" fill-opacity="1"><g transform="translate(1.88277, 27.183691)"><g><path d="M 22.03125 -22.21875 L 23.46875 -21.125 C 23.613281 -21.019531 23.6875 -20.894531 23.6875 -20.75 C 23.6875 -20.59375 23.5625 -20.515625 23.3125 -20.515625 C 23.269531 -20.515625 23.207031 -20.519531 23.125 -20.53125 C 23.050781 -20.539062 22.9375 -20.550781 22.78125 -20.5625 C 21.59375 -20.28125 20.613281 -20.046875 19.84375 -19.859375 C 19.082031 -19.671875 18.382812 -19.507812 17.75 -19.375 C 17.75 -18.375 17.765625 -17.375 17.796875 -16.375 C 17.835938 -15.375 17.921875 -14.378906 18.046875 -13.390625 L 21.578125 -13.390625 C 22.109375 -13.390625 22.734375 -13.394531 23.453125 -13.40625 C 24.171875 -13.425781 24.78125 -13.445312 25.28125 -13.46875 L 25.28125 -11.65625 C 24.78125 -11.675781 24.171875 -11.691406 23.453125 -11.703125 C 22.734375 -11.722656 22.109375 -11.734375 21.578125 -11.734375 L 18.28125 -11.734375 C 18.425781 -10.898438 18.59375 -10.117188 18.78125 -9.390625 C 18.976562 -8.660156 19.210938 -7.960938 19.484375 -7.296875 C 19.921875 -6.191406 20.398438 -5.195312 20.921875 -4.3125 C 21.453125 -3.4375 21.988281 -2.726562 22.53125 -2.1875 C 22.851562 -1.863281 23.148438 -1.609375 23.421875 -1.421875 C 23.703125 -1.234375 23.921875 -1.140625 24.078125 -1.140625 C 24.296875 -1.140625 24.429688 -1.316406 24.484375 -1.671875 C 24.535156 -1.972656 24.585938 -2.398438 24.640625 -2.953125 C 24.691406 -3.503906 24.726562 -3.96875 24.75 -4.34375 C 25.332031 -4.019531 25.847656 -3.785156 26.296875 -3.640625 C 26.273438 -3.304688 26.242188 -3.0625 26.203125 -2.90625 C 26.046875 -1.414062 25.835938 -0.375 25.578125 0.21875 C 25.328125 0.820312 24.953125 1.125 24.453125 1.125 C 24.117188 1.125 23.671875 0.945312 23.109375 0.59375 C 22.546875 0.25 21.984375 -0.203125 21.421875 -0.765625 C 20.285156 -1.941406 19.289062 -3.484375 18.4375 -5.390625 C 17.582031 -7.296875 16.960938 -9.410156 16.578125 -11.734375 L 11.578125 -11.734375 L 11.578125 -5.03125 C 12.429688 -5.226562 13.289062 -5.453125 14.15625 -5.703125 C 15.019531 -5.960938 16.015625 -6.257812 17.140625 -6.59375 L 17.40625 -5.15625 C 15.863281 -4.644531 14.3125 -4.15625 12.75 -3.6875 C 11.1875 -3.226562 9.75 -2.832031 8.4375 -2.5 C 8.238281 -2.164062 8.0625 -2 7.90625 -2 C 7.738281 -2 7.613281 -2.101562 7.53125 -2.3125 L 6.734375 -4.078125 C 7.316406 -4.179688 7.863281 -4.28125 8.375 -4.375 C 8.894531 -4.476562 9.375 -4.570312 9.8125 -4.65625 L 9.8125 -16.421875 C 9.8125 -16.953125 9.8125 -17.378906 9.8125 -17.703125 C 9.8125 -18.035156 9.804688 -18.328125 9.796875 -18.578125 C 9.796875 -18.828125 9.789062 -19.101562 9.78125 -19.40625 C 9.769531 -19.71875 9.753906 -20.132812 9.734375 -20.65625 L 11.46875 -19.9375 C 12.988281 -20.125 14.332031 -20.320312 15.5 -20.53125 C 16.675781 -20.75 17.785156 -20.988281 18.828125 -21.25 C 19.867188 -21.519531 20.9375 -21.84375 22.03125 -22.21875 Z M 11.578125 -13.390625 L 16.3125 -13.390625 C 16.238281 -14.003906 16.1875 -14.613281 16.15625 -15.21875 C 16.132812 -15.820312 16.109375 -16.585938 16.078125 -17.515625 C 16.054688 -17.921875 16.046875 -18.242188 16.046875 -18.484375 C 16.046875 -18.734375 16.035156 -18.929688 16.015625 -19.078125 C 15.285156 -18.972656 14.546875 -18.867188 13.796875 -18.765625 C 13.054688 -18.671875 12.316406 -18.582031 11.578125 -18.5 Z M 5.375 -14.90625 L 5.90625 -14.84375 C 6.1875 -14.8125 6.328125 -14.722656 6.328125 -14.578125 C 6.328125 -14.441406 6.160156 -14.265625 5.828125 -14.046875 L 5.828125 -3.171875 C 5.828125 -1.984375 5.832031 -0.925781 5.84375 0 C 5.863281 0.9375 5.882812 1.695312 5.90625 2.28125 L 3.984375 2.28125 C 4.046875 1.082031 4.078125 -0.734375 4.078125 -3.171875 L 4.078125 -12.265625 C 3.785156 -11.640625 3.53125 -11.113281 3.3125 -10.6875 C 3.09375 -10.269531 2.863281 -9.863281 2.625 -9.46875 C 2.382812 -9.082031 2.085938 -8.625 1.734375 -8.09375 C 1.503906 -8.550781 1.328125 -8.875 1.203125 -9.0625 C 1.078125 -9.25 0.890625 -9.472656 0.640625 -9.734375 C 1.503906 -11.035156 2.257812 -12.328125 2.90625 -13.609375 C 3.5625 -14.898438 4.144531 -16.257812 4.65625 -17.6875 C 5.164062 -19.113281 5.632812 -20.6875 6.0625 -22.40625 L 7.84375 -21.6875 C 8.09375 -21.582031 8.21875 -21.457031 8.21875 -21.3125 C 8.21875 -21.207031 8.179688 -21.128906 8.109375 -21.078125 C 8.046875 -21.023438 7.867188 -20.953125 7.578125 -20.859375 C 7.316406 -19.992188 7.082031 -19.257812 6.875 -18.65625 C 6.675781 -18.050781 6.457031 -17.460938 6.21875 -16.890625 C 5.988281 -16.328125 5.707031 -15.664062 5.375 -14.90625 Z M 20.015625 -0.828125 L 20.015625 0.953125 C 19.617188 0.921875 19.171875 0.90625 18.671875 0.90625 C 18.179688 0.90625 17.738281 0.90625 17.34375 0.90625 L 10.03125 0.90625 C 9.644531 0.90625 9.203125 0.90625 8.703125 0.90625 C 8.203125 0.90625 7.765625 0.921875 7.390625 0.953125 L 7.390625 -0.828125 C 7.765625 -0.804688 8.203125 -0.789062 8.703125 -0.78125 C 9.203125 -0.769531 9.644531 -0.765625 10.03125 -0.765625 L 17.34375 -0.765625 C 17.738281 -0.765625 18.179688 -0.769531 18.671875 -0.78125 C 19.171875 -0.789062 19.617188 -0.804688 20.015625 -0.828125 Z M 20.015625 -0.828125 "/></g></g></g><g fill="#000000" fill-opacity="1"><g transform="translate(1.88277, 52.17196)"><g><path d="M 4.203125 -17.484375 L 6.09375 -17.25 C 6.476562 -17.1875 6.671875 -17.035156 6.671875 -16.796875 C 6.671875 -16.679688 6.628906 -16.585938 6.546875 -16.515625 C 6.472656 -16.453125 6.3125 -16.375 6.0625 -16.28125 C 6.007812 -15.789062 5.960938 -15.320312 5.921875 -14.875 C 5.890625 -14.425781 5.863281 -13.925781 5.84375 -13.375 C 5.832031 -12.832031 5.828125 -12.144531 5.828125 -11.3125 C 5.828125 -8.488281 6.332031 -6.285156 7.34375 -4.703125 C 7.664062 -4.210938 7.988281 -3.820312 8.3125 -3.53125 C 8.644531 -3.25 8.941406 -3.109375 9.203125 -3.109375 C 9.503906 -3.109375 9.78125 -3.320312 10.03125 -3.75 C 10.207031 -4.070312 10.410156 -4.570312 10.640625 -5.25 C 10.867188 -5.9375 11.046875 -6.582031 11.171875 -7.1875 C 11.421875 -7.007812 11.609375 -6.867188 11.734375 -6.765625 C 11.859375 -6.671875 11.984375 -6.582031 12.109375 -6.5 C 12.242188 -6.425781 12.4375 -6.300781 12.6875 -6.125 C 12.257812 -4.332031 11.785156 -3.046875 11.265625 -2.265625 C 10.742188 -1.484375 10.078125 -1.09375 9.265625 -1.09375 C 8.660156 -1.09375 8.039062 -1.332031 7.40625 -1.8125 C 6.78125 -2.289062 6.207031 -2.960938 5.6875 -3.828125 C 5.09375 -4.804688 4.664062 -5.898438 4.40625 -7.109375 C 4.144531 -8.316406 4.015625 -9.804688 4.015625 -11.578125 C 4.015625 -12.054688 4.023438 -12.554688 4.046875 -13.078125 C 4.066406 -13.597656 4.082031 -14.179688 4.09375 -14.828125 C 4.144531 -15.515625 4.171875 -15.945312 4.171875 -16.125 C 4.210938 -16.570312 4.234375 -16.863281 4.234375 -17 C 4.234375 -17.144531 4.222656 -17.304688 4.203125 -17.484375 Z M 17.328125 -14.65625 L 18.578125 -15.8125 C 19.597656 -14.800781 20.453125 -13.84375 21.140625 -12.9375 C 21.835938 -12.03125 22.4375 -11.070312 22.9375 -10.0625 C 23.4375 -9.050781 23.890625 -7.890625 24.296875 -6.578125 L 22.375 -5.6875 C 21.894531 -7.519531 21.257812 -9.140625 20.46875 -10.546875 C 19.6875 -11.960938 18.640625 -13.332031 17.328125 -14.65625 Z M 17.328125 -14.65625 "/></g></g></g><g fill="#000000" fill-opacity="1"><g transform="translate(1.88277, 79.018459)"><g><path d="M 4.578125 -2.640625 L 12.375 -2.640625 L 12.375 -16.078125 C 12.375 -17.578125 12.359375 -18.765625 12.328125 -19.640625 C 12.304688 -20.523438 12.273438 -21.179688 12.234375 -21.609375 L 14.3125 -21.421875 C 14.613281 -21.390625 14.765625 -21.300781 14.765625 -21.15625 C 14.765625 -21.007812 14.597656 -20.832031 14.265625 -20.625 C 14.265625 -20.5 14.257812 -20.378906 14.25 -20.265625 C 14.238281 -20.148438 14.234375 -19.953125 14.234375 -19.671875 C 14.234375 -19.398438 14.234375 -18.984375 14.234375 -18.421875 C 14.234375 -17.867188 14.234375 -17.085938 14.234375 -16.078125 L 14.234375 -2.640625 L 22.0625 -2.640625 L 22.0625 -11.875 C 22.0625 -13.394531 22.046875 -14.59375 22.015625 -15.46875 C 21.992188 -16.351562 21.960938 -17 21.921875 -17.40625 L 23.96875 -17.21875 C 24.257812 -17.175781 24.40625 -17.085938 24.40625 -16.953125 C 24.40625 -16.804688 24.242188 -16.632812 23.921875 -16.4375 C 23.921875 -16.320312 23.914062 -16.203125 23.90625 -16.078125 C 23.894531 -15.953125 23.890625 -15.753906 23.890625 -15.484375 C 23.890625 -15.222656 23.890625 -14.804688 23.890625 -14.234375 C 23.890625 -13.671875 23.890625 -12.882812 23.890625 -11.875 L 23.890625 -3.890625 C 23.890625 -1.441406 23.914062 0.367188 23.96875 1.546875 L 22.0625 1.546875 L 22.0625 -0.984375 L 4.578125 -0.984375 L 4.578125 2.078125 L 2.65625 2.078125 C 2.707031 0.867188 2.734375 -0.945312 2.734375 -3.375 L 2.734375 -11.875 C 2.734375 -13.394531 2.722656 -14.59375 2.703125 -15.46875 C 2.691406 -16.351562 2.671875 -17 2.640625 -17.40625 L 4.6875 -17.21875 C 4.96875 -17.175781 5.109375 -17.085938 5.109375 -16.953125 C 5.109375 -16.804688 4.941406 -16.632812 4.609375 -16.4375 C 4.609375 -16.320312 4.609375 -16.203125 4.609375 -16.078125 C 4.609375 -15.953125 4.609375 -15.753906 4.609375 -15.484375 C 4.609375 -15.222656 4.601562 -14.804688 4.59375 -14.234375 C 4.582031 -13.671875 4.578125 -12.882812 4.578125 -11.875 Z M 4.578125 -2.640625 "/></g></g></g><g fill="#000000" fill-opacity="1"><g transform="translate(1.88277, 107.329319)"><g><path d="M 18.65625 -20.703125 L 20.09375 -22.078125 C 20.832031 -21.390625 21.484375 -20.75 22.046875 -20.15625 C 22.609375 -19.5625 23.140625 -18.945312 23.640625 -18.3125 C 24.148438 -17.6875 24.695312 -16.945312 25.28125 -16.09375 L 23.515625 -14.6875 C 21.992188 -17.082031 20.375 -19.085938 18.65625 -20.703125 Z M 18.65625 -20.703125 "/></g></g></g></svg>