<svg xmlns="http://www.w3.org/2000/svg" xmlns:xlink="http://www.w3.org/1999/xlink" width="40" zoomAndPan="magnify" viewBox="0 0 30 228.749995" height="305" preserveAspectRatio="xMidYMid meet" version="1.0"><defs><g/></defs><g fill="#000000" fill-opacity="1"><g transform="translate(2.556179, 22.693905)"><g><path d="M 11.671875 -0.453125 L 11.671875 -5.421875 L 7.640625 -5.421875 C 7.179688 -5.421875 6.773438 -5.414062 6.421875 -5.40625 C 6.078125 -5.40625 5.726562 -5.398438 5.375 -5.390625 C 5.019531 -5.378906 4.585938 -5.363281 4.078125 -5.34375 L 4.078125 -7.328125 C 4.566406 -7.316406 5.140625 -7.300781 5.796875 -7.28125 C 6.460938 -7.269531 7.078125 -7.265625 7.640625 -7.265625 L 17.78125 -7.265625 C 18.476562 -7.265625 19.085938 -7.269531 19.609375 -7.28125 C 20.140625 -7.300781 20.71875 -7.316406 21.34375 -7.328125 L 21.34375 -5.34375 C 21.039062 -5.363281 20.664062 -5.378906 20.21875 -5.390625 C 19.78125 -5.398438 19.34375 -5.40625 18.90625 -5.40625 C 18.476562 -5.414062 18.101562 -5.421875 17.78125 -5.421875 L 13.703125 -5.421875 L 13.703125 -0.453125 L 18.828125 -0.453125 C 19.859375 -0.453125 20.738281 -0.460938 21.46875 -0.484375 C 22.195312 -0.503906 23.003906 -0.53125 23.890625 -0.5625 L 23.890625 1.484375 C 23.453125 1.460938 22.929688 1.445312 22.328125 1.4375 C 21.734375 1.425781 21.128906 1.414062 20.515625 1.40625 C 19.910156 1.40625 19.347656 1.40625 18.828125 1.40625 L 6.640625 1.40625 C 5.992188 1.40625 5.425781 1.40625 4.9375 1.40625 C 4.445312 1.40625 3.945312 1.40625 3.4375 1.40625 C 2.925781 1.414062 2.304688 1.441406 1.578125 1.484375 L 1.578125 -0.5625 C 2.015625 -0.539062 2.535156 -0.519531 3.140625 -0.5 C 3.742188 -0.488281 4.359375 -0.476562 4.984375 -0.46875 C 5.617188 -0.457031 6.171875 -0.453125 6.640625 -0.453125 Z M 13.671875 -18.640625 L 18.515625 -18.640625 C 19.242188 -18.640625 19.878906 -18.644531 20.421875 -18.65625 C 20.960938 -18.664062 21.484375 -18.675781 21.984375 -18.6875 C 22.492188 -18.707031 23.019531 -18.726562 23.5625 -18.75 C 23.539062 -18.289062 23.53125 -17.925781 23.53125 -17.65625 C 23.53125 -17.382812 23.53125 -17.101562 23.53125 -16.8125 L 23.53125 -16.171875 C 23.53125 -15.898438 23.535156 -15.640625 23.546875 -15.390625 C 23.566406 -15.148438 23.585938 -14.859375 23.609375 -14.515625 L 21.515625 -14.515625 C 21.554688 -14.785156 21.578125 -15.070312 21.578125 -15.375 C 21.585938 -15.6875 21.59375 -15.953125 21.59375 -16.171875 L 21.59375 -16.90625 L 4.03125 -16.90625 L 4.03125 -16.171875 C 4.03125 -15.816406 4.03125 -15.472656 4.03125 -15.140625 C 4.039062 -14.804688 4.054688 -14.40625 4.078125 -13.9375 L 2.015625 -13.9375 C 2.066406 -14.78125 2.09375 -15.523438 2.09375 -16.171875 L 2.09375 -16.8125 C 2.09375 -17.101562 2.085938 -17.378906 2.078125 -17.640625 C 2.066406 -17.898438 2.050781 -18.269531 2.03125 -18.75 C 2.675781 -18.726562 3.460938 -18.703125 4.390625 -18.671875 C 5.316406 -18.648438 6.210938 -18.640625 7.078125 -18.640625 L 11.6875 -18.640625 L 11.6875 -19.8125 C 11.6875 -20.21875 11.6875 -20.535156 11.6875 -20.765625 C 11.6875 -20.992188 11.679688 -21.21875 11.671875 -21.4375 L 13.703125 -21.265625 C 14.003906 -21.242188 14.15625 -21.160156 14.15625 -21.015625 C 14.15625 -20.878906 13.992188 -20.707031 13.671875 -20.5 Z M 9.015625 -16.53125 L 10.84375 -15.859375 C 11.113281 -15.765625 11.25 -15.65625 11.25 -15.53125 C 11.25 -15.34375 11.054688 -15.191406 10.671875 -15.078125 C 10.160156 -13.867188 9.554688 -12.816406 8.859375 -11.921875 C 8.160156 -11.035156 7.300781 -10.238281 6.28125 -9.53125 C 5.269531 -8.832031 4.015625 -8.148438 2.515625 -7.484375 C 2.367188 -7.878906 2.226562 -8.1875 2.09375 -8.40625 C 1.96875 -8.625 1.765625 -8.910156 1.484375 -9.265625 C 2.921875 -9.859375 4.117188 -10.488281 5.078125 -11.15625 C 6.035156 -11.832031 6.828125 -12.601562 7.453125 -13.46875 C 8.085938 -14.332031 8.609375 -15.351562 9.015625 -16.53125 Z M 13.75 -16.34375 L 15.84375 -16.171875 C 16.144531 -16.148438 16.296875 -16.054688 16.296875 -15.890625 C 16.296875 -15.753906 16.128906 -15.59375 15.796875 -15.40625 L 15.796875 -12.359375 C 15.796875 -12.066406 15.851562 -11.847656 15.96875 -11.703125 C 16.082031 -11.554688 16.332031 -11.460938 16.71875 -11.421875 C 17.113281 -11.378906 17.726562 -11.359375 18.5625 -11.359375 C 19.46875 -11.359375 20.148438 -11.382812 20.609375 -11.4375 C 21.078125 -11.5 21.390625 -11.609375 21.546875 -11.765625 C 21.679688 -11.898438 21.773438 -12.09375 21.828125 -12.34375 C 21.878906 -12.601562 21.910156 -13.097656 21.921875 -13.828125 C 22.265625 -13.710938 22.535156 -13.617188 22.734375 -13.546875 C 22.941406 -13.484375 23.140625 -13.425781 23.328125 -13.375 C 23.546875 -13.320312 23.679688 -13.289062 23.734375 -13.28125 C 23.785156 -13.269531 23.863281 -13.25 23.96875 -13.21875 C 23.894531 -12.21875 23.796875 -11.507812 23.671875 -11.09375 C 23.546875 -10.675781 23.335938 -10.359375 23.046875 -10.140625 C 22.472656 -9.710938 21.039062 -9.5 18.75 -9.5 C 17.601562 -9.5 16.695312 -9.53125 16.03125 -9.59375 C 15.363281 -9.664062 14.847656 -9.785156 14.484375 -9.953125 C 14.015625 -10.160156 13.78125 -10.710938 13.78125 -11.609375 L 13.78125 -14.71875 C 13.78125 -15.175781 13.78125 -15.503906 13.78125 -15.703125 C 13.78125 -15.898438 13.78125 -16.035156 13.78125 -16.109375 C 13.78125 -16.179688 13.769531 -16.257812 13.75 -16.34375 Z M 13.75 -16.34375 "/></g></g></g><g fill="#000000" fill-opacity="1"><g transform="translate(6.298335, 25.464661)"><g/></g></g><g fill="#000000" fill-opacity="1"><g transform="translate(2.556179, 55.785979)"><g><path d="M 16.9375 -18.921875 L 17.796875 -17.171875 C 17.109375 -16.898438 16.515625 -16.671875 16.015625 -16.484375 C 15.523438 -16.296875 15.078125 -16.132812 14.671875 -16 C 14.265625 -15.875 13.835938 -15.753906 13.390625 -15.640625 C 13.578125 -15.054688 13.78125 -14.507812 14 -14 C 14.226562 -13.5 14.492188 -12.957031 14.796875 -12.375 C 15.691406 -12.71875 16.492188 -13.050781 17.203125 -13.375 C 17.910156 -13.695312 18.601562 -14.066406 19.28125 -14.484375 L 20.25 -12.703125 C 19.632812 -12.378906 19.085938 -12.109375 18.609375 -11.890625 C 18.140625 -11.671875 17.671875 -11.46875 17.203125 -11.28125 C 16.734375 -11.09375 16.203125 -10.890625 15.609375 -10.671875 C 16.015625 -9.890625 16.394531 -9.203125 16.75 -8.609375 C 17.113281 -8.015625 17.5 -7.445312 17.90625 -6.90625 C 18.3125 -6.375 18.78125 -5.796875 19.3125 -5.171875 L 17.671875 -3.765625 C 16.785156 -4.410156 15.914062 -4.878906 15.0625 -5.171875 C 14.21875 -5.460938 13.296875 -5.609375 12.296875 -5.609375 C 10.992188 -5.609375 10 -5.382812 9.3125 -4.9375 C 8.632812 -4.5 8.296875 -3.90625 8.296875 -3.15625 C 8.296875 -2.269531 8.691406 -1.617188 9.484375 -1.203125 C 10.273438 -0.785156 11.5625 -0.578125 13.34375 -0.578125 C 13.882812 -0.578125 14.394531 -0.59375 14.875 -0.625 C 15.363281 -0.664062 15.890625 -0.722656 16.453125 -0.796875 C 16.316406 -0.453125 16.203125 -0.09375 16.109375 0.28125 C 16.015625 0.664062 15.96875 1.054688 15.96875 1.453125 C 15.59375 1.472656 15.210938 1.484375 14.828125 1.484375 C 14.453125 1.492188 13.890625 1.5 13.140625 1.5 C 11.460938 1.5 10.113281 1.289062 9.09375 0.875 C 8.070312 0.457031 7.335938 -0.0820312 6.890625 -0.75 C 6.441406 -1.414062 6.21875 -2.132812 6.21875 -2.90625 C 6.21875 -4.207031 6.738281 -5.265625 7.78125 -6.078125 C 8.820312 -6.898438 10.296875 -7.3125 12.203125 -7.3125 C 12.710938 -7.3125 13.160156 -7.289062 13.546875 -7.25 C 13.941406 -7.207031 14.347656 -7.117188 14.765625 -6.984375 L 16.09375 -6.421875 L 15.234375 -7.515625 C 15.015625 -7.921875 14.78125 -8.332031 14.53125 -8.75 C 14.28125 -9.164062 14.035156 -9.601562 13.796875 -10.0625 C 11.984375 -9.53125 10.484375 -9.265625 9.296875 -9.265625 C 8.535156 -9.265625 7.941406 -9.445312 7.515625 -9.8125 C 7.085938 -10.175781 6.875 -10.679688 6.875 -11.328125 C 6.875 -11.566406 6.90625 -11.804688 6.96875 -12.046875 C 7.03125 -12.285156 7.144531 -12.59375 7.3125 -12.96875 L 9.046875 -12.421875 C 8.890625 -12.140625 8.8125 -11.90625 8.8125 -11.71875 C 8.8125 -11.363281 9.039062 -11.1875 9.5 -11.1875 C 9.957031 -11.1875 10.453125 -11.234375 10.984375 -11.328125 C 11.523438 -11.429688 12.164062 -11.59375 12.90625 -11.8125 C 12.65625 -12.351562 12.421875 -12.890625 12.203125 -13.421875 C 11.984375 -13.960938 11.757812 -14.523438 11.53125 -15.109375 C 10.75 -14.921875 9.800781 -14.734375 8.6875 -14.546875 C 7.582031 -14.359375 6.332031 -14.171875 4.9375 -13.984375 L 4.53125 -15.96875 C 6.894531 -16.175781 9.023438 -16.484375 10.921875 -16.890625 C 10.804688 -17.273438 10.691406 -17.65625 10.578125 -18.03125 C 10.472656 -18.40625 10.351562 -18.78125 10.21875 -19.15625 C 10.144531 -19.34375 10.066406 -19.550781 9.984375 -19.78125 C 9.910156 -20.007812 9.804688 -20.316406 9.671875 -20.703125 L 12.046875 -20.90625 L 12.15625 -20.90625 C 12.375 -20.90625 12.484375 -20.796875 12.484375 -20.578125 C 12.484375 -20.515625 12.460938 -20.457031 12.421875 -20.40625 C 12.390625 -20.351562 12.28125 -20.238281 12.09375 -20.0625 C 12.226562 -19.59375 12.347656 -19.148438 12.453125 -18.734375 C 12.554688 -18.316406 12.6875 -17.863281 12.84375 -17.375 C 13.332031 -17.507812 13.773438 -17.640625 14.171875 -17.765625 C 14.566406 -17.890625 14.984375 -18.046875 15.421875 -18.234375 C 15.859375 -18.421875 16.363281 -18.648438 16.9375 -18.921875 Z M 16.9375 -18.921875 "/></g></g></g><g fill="#000000" fill-opacity="1"><g transform="translate(6.298335, 58.771157)"><g/></g></g><g fill="#000000" fill-opacity="1"><g transform="translate(2.556179, 89.306898)"><g><path d="M 13.703125 -18.59375 L 18.5625 -18.59375 C 19.289062 -18.59375 19.925781 -18.597656 20.46875 -18.609375 C 21.019531 -18.617188 21.546875 -18.628906 22.046875 -18.640625 C 22.546875 -18.660156 23.066406 -18.6875 23.609375 -18.71875 C 23.585938 -18.257812 23.578125 -17.890625 23.578125 -17.609375 C 23.578125 -17.328125 23.578125 -17.046875 23.578125 -16.765625 L 23.578125 -15.734375 C 23.578125 -15.378906 23.585938 -15.035156 23.609375 -14.703125 C 23.628906 -14.378906 23.644531 -13.988281 23.65625 -13.53125 L 21.578125 -13.53125 C 21.609375 -13.894531 21.628906 -14.28125 21.640625 -14.6875 C 21.648438 -15.101562 21.65625 -15.453125 21.65625 -15.734375 L 21.65625 -16.859375 L 3.6875 -16.859375 L 3.6875 -15.734375 C 3.6875 -15.378906 3.695312 -15.035156 3.71875 -14.703125 C 3.738281 -14.378906 3.753906 -13.988281 3.765625 -13.53125 L 1.703125 -13.53125 C 1.722656 -13.9375 1.734375 -14.320312 1.734375 -14.6875 C 1.742188 -15.0625 1.75 -15.410156 1.75 -15.734375 L 1.75 -16.765625 C 1.75 -17.046875 1.75 -17.320312 1.75 -17.59375 C 1.75 -17.863281 1.742188 -18.238281 1.734375 -18.71875 C 2.378906 -18.6875 3.160156 -18.65625 4.078125 -18.625 C 5.003906 -18.601562 5.90625 -18.59375 6.78125 -18.59375 L 11.765625 -18.59375 L 11.765625 -19.8125 C 11.765625 -20.21875 11.757812 -20.535156 11.75 -20.765625 C 11.738281 -20.992188 11.726562 -21.21875 11.71875 -21.4375 L 13.734375 -21.265625 C 14.035156 -21.242188 14.1875 -21.148438 14.1875 -20.984375 C 14.1875 -20.921875 14.15625 -20.851562 14.09375 -20.78125 C 14.039062 -20.71875 13.921875 -20.625 13.734375 -20.5 Z M 10.390625 -13.09375 L 8.15625 -13.09375 C 7.695312 -13.09375 7.289062 -13.085938 6.9375 -13.078125 C 6.59375 -13.066406 6.242188 -13.054688 5.890625 -13.046875 C 5.546875 -13.046875 5.117188 -13.035156 4.609375 -13.015625 L 4.609375 -14.953125 C 5.097656 -14.929688 5.671875 -14.910156 6.328125 -14.890625 C 6.984375 -14.878906 7.59375 -14.875 8.15625 -14.875 L 17.09375 -14.875 C 17.789062 -14.875 18.394531 -14.878906 18.90625 -14.890625 C 19.425781 -14.910156 20 -14.929688 20.625 -14.953125 L 20.625 -13.015625 C 20.320312 -13.035156 19.953125 -13.046875 19.515625 -13.046875 C 19.085938 -13.054688 18.65625 -13.066406 18.21875 -13.078125 C 17.789062 -13.085938 17.414062 -13.09375 17.09375 -13.09375 L 14.3125 -13.09375 C 14.550781 -12.414062 14.8125 -11.75 15.09375 -11.09375 C 15.382812 -10.4375 15.726562 -9.800781 16.125 -9.1875 C 17.257812 -9.882812 18.191406 -10.492188 18.921875 -11.015625 C 19.648438 -11.546875 20.335938 -12.117188 20.984375 -12.734375 L 22.71875 -11.5625 C 22.882812 -11.445312 22.96875 -11.335938 22.96875 -11.234375 C 22.96875 -11.128906 22.921875 -11.0625 22.828125 -11.03125 C 22.734375 -11 22.546875 -10.984375 22.265625 -10.984375 C 21.347656 -10.398438 20.660156 -9.960938 20.203125 -9.671875 C 19.742188 -9.390625 19.382812 -9.179688 19.125 -9.046875 L 17.03125 -7.890625 C 17.664062 -7.046875 18.328125 -6.289062 19.015625 -5.625 C 19.703125 -4.96875 20.5 -4.34375 21.40625 -3.75 C 22.3125 -3.15625 23.410156 -2.515625 24.703125 -1.828125 C 24.273438 -1.460938 23.960938 -1.164062 23.765625 -0.9375 C 23.578125 -0.71875 23.378906 -0.414062 23.171875 -0.03125 C 21.796875 -0.875 20.625 -1.660156 19.65625 -2.390625 C 18.6875 -3.117188 17.847656 -3.882812 17.140625 -4.6875 C 16.441406 -5.488281 15.78125 -6.394531 15.15625 -7.40625 C 14.78125 -8.039062 14.453125 -8.628906 14.171875 -9.171875 C 13.890625 -9.710938 13.640625 -10.273438 13.421875 -10.859375 C 13.210938 -11.441406 13 -12.109375 12.78125 -12.859375 C 12.457031 -12.609375 12.117188 -12.359375 11.765625 -12.109375 C 11.421875 -11.859375 11.082031 -11.609375 10.75 -11.359375 C 12.15625 -10.117188 13.171875 -8.820312 13.796875 -7.46875 C 14.429688 -6.125 14.75 -4.5625 14.75 -2.78125 C 14.75 -0.582031 14.210938 0.835938 13.140625 1.484375 C 12.890625 1.617188 12.625 1.726562 12.34375 1.8125 C 12.0625 1.894531 11.675781 1.953125 11.1875 1.984375 C 10.707031 2.015625 10.039062 2.039062 9.1875 2.0625 C 9.175781 1.625 9.128906 1.265625 9.046875 0.984375 C 8.972656 0.710938 8.84375 0.316406 8.65625 -0.203125 C 9.050781 -0.179688 9.382812 -0.160156 9.65625 -0.140625 C 9.9375 -0.128906 10.21875 -0.125 10.5 -0.125 C 11.019531 -0.125 11.425781 -0.179688 11.71875 -0.296875 C 12.007812 -0.421875 12.210938 -0.609375 12.328125 -0.859375 C 12.460938 -1.148438 12.554688 -1.515625 12.609375 -1.953125 C 12.671875 -2.398438 12.703125 -2.882812 12.703125 -3.40625 C 12.703125 -3.726562 12.675781 -4.070312 12.625 -4.4375 C 11.15625 -3.445312 9.550781 -2.550781 7.8125 -1.75 C 6.082031 -0.957031 4.054688 -0.1875 1.734375 0.5625 C 1.597656 0.132812 1.46875 -0.191406 1.34375 -0.421875 C 1.226562 -0.648438 1.050781 -0.925781 0.8125 -1.25 C 2.289062 -1.632812 3.648438 -2.054688 4.890625 -2.515625 C 6.128906 -2.972656 7.335938 -3.503906 8.515625 -4.109375 C 9.703125 -4.710938 10.929688 -5.429688 12.203125 -6.265625 C 12.097656 -6.554688 11.984375 -6.832031 11.859375 -7.09375 C 11.734375 -7.351562 11.601562 -7.613281 11.46875 -7.875 C 10.507812 -7.257812 9.582031 -6.710938 8.6875 -6.234375 C 7.800781 -5.765625 6.835938 -5.3125 5.796875 -4.875 C 4.765625 -4.445312 3.546875 -3.976562 2.140625 -3.46875 C 1.972656 -3.875 1.820312 -4.175781 1.6875 -4.375 C 1.5625 -4.582031 1.378906 -4.820312 1.140625 -5.09375 C 2.585938 -5.550781 3.832031 -5.976562 4.875 -6.375 C 5.914062 -6.78125 6.875 -7.210938 7.75 -7.671875 C 8.625 -8.128906 9.53125 -8.660156 10.46875 -9.265625 C 10.300781 -9.492188 10.125 -9.703125 9.9375 -9.890625 C 9.757812 -10.085938 9.578125 -10.289062 9.390625 -10.5 C 8.429688 -9.914062 7.394531 -9.367188 6.28125 -8.859375 C 5.164062 -8.347656 3.90625 -7.820312 2.5 -7.28125 C 2.34375 -7.625 2.195312 -7.898438 2.0625 -8.109375 C 1.925781 -8.328125 1.707031 -8.613281 1.40625 -8.96875 C 2.738281 -9.40625 3.910156 -9.820312 4.921875 -10.21875 C 5.929688 -10.625 6.875 -11.054688 7.75 -11.515625 C 8.625 -11.972656 9.503906 -12.5 10.390625 -13.09375 Z M 10.390625 -13.09375 "/></g></g></g><g fill="#000000" fill-opacity="1"><g transform="translate(6.298335, 92.077654)"><g/></g></g><g fill="#000000" fill-opacity="1"><g transform="translate(2.556179, 122.992763)"><g><path d="M 12.703125 -15.453125 L 13.625 -15.078125 C 13.832031 -14.992188 13.9375 -14.890625 13.9375 -14.765625 C 13.9375 -14.628906 13.816406 -14.488281 13.578125 -14.34375 C 13.335938 -13.195312 13.109375 -12.21875 12.890625 -11.40625 C 12.679688 -10.59375 12.457031 -9.847656 12.21875 -9.171875 C 11.988281 -8.492188 11.71875 -7.78125 11.40625 -7.03125 C 10.664062 -5.207031 9.882812 -3.894531 9.0625 -3.09375 C 8.25 -2.289062 7.332031 -1.890625 6.3125 -1.890625 C 5.46875 -1.890625 4.753906 -2.132812 4.171875 -2.625 C 3.597656 -3.113281 3.160156 -3.773438 2.859375 -4.609375 C 2.566406 -5.441406 2.421875 -6.359375 2.421875 -7.359375 C 2.421875 -8.703125 2.695312 -9.972656 3.25 -11.171875 C 3.800781 -12.367188 4.566406 -13.425781 5.546875 -14.34375 C 6.535156 -15.269531 7.695312 -15.992188 9.03125 -16.515625 C 10.363281 -17.046875 11.8125 -17.3125 13.375 -17.3125 C 14.664062 -17.3125 15.898438 -17.132812 17.078125 -16.78125 C 18.253906 -16.425781 19.304688 -15.894531 20.234375 -15.1875 C 21.160156 -14.488281 21.890625 -13.613281 22.421875 -12.5625 C 22.960938 -11.507812 23.234375 -10.273438 23.234375 -8.859375 C 23.234375 -6.503906 22.46875 -4.601562 20.9375 -3.15625 C 19.40625 -1.71875 17.179688 -0.5625 14.265625 0.3125 C 14.128906 -0.0820312 14.007812 -0.378906 13.90625 -0.578125 C 13.800781 -0.785156 13.691406 -0.96875 13.578125 -1.125 C 13.472656 -1.289062 13.316406 -1.484375 13.109375 -1.703125 C 15.847656 -2.347656 17.835938 -3.257812 19.078125 -4.4375 C 20.328125 -5.625 20.953125 -7.097656 20.953125 -8.859375 C 20.953125 -10.273438 20.601562 -11.472656 19.90625 -12.453125 C 19.21875 -13.441406 18.296875 -14.191406 17.140625 -14.703125 C 15.984375 -15.222656 14.71875 -15.484375 13.34375 -15.484375 C 13.257812 -15.484375 13.171875 -15.484375 13.078125 -15.484375 C 12.984375 -15.484375 12.859375 -15.472656 12.703125 -15.453125 Z M 11.4375 -15.359375 C 10.5 -15.191406 9.609375 -14.863281 8.765625 -14.375 C 7.929688 -13.894531 7.195312 -13.289062 6.5625 -12.5625 C 5.925781 -11.84375 5.425781 -11.035156 5.0625 -10.140625 C 4.695312 -9.253906 4.515625 -8.3125 4.515625 -7.3125 C 4.515625 -6.269531 4.671875 -5.4375 4.984375 -4.8125 C 5.304688 -4.195312 5.75 -3.890625 6.3125 -3.890625 C 6.875 -3.890625 7.378906 -4.132812 7.828125 -4.625 C 8.273438 -5.125 8.726562 -5.941406 9.1875 -7.078125 C 9.800781 -8.585938 10.3125 -10.078125 10.71875 -11.546875 C 11.125 -13.015625 11.363281 -14.285156 11.4375 -15.359375 Z M 11.4375 -15.359375 "/></g></g></g><g fill="#000000" fill-opacity="1"><g transform="translate(6.298335, 125.384151)"><g/></g></g><g fill="#000000" fill-opacity="1"><g transform="translate(2.556179, 155.921339)"><g><path d="M 3 -9.34375 L 1.828125 -11.6875 C 2.335938 -11.851562 2.8125 -12.019531 3.25 -12.1875 C 3.695312 -12.363281 4.1875 -12.566406 4.71875 -12.796875 C 5.257812 -13.023438 5.910156 -13.300781 6.671875 -13.625 C 8.128906 -14.269531 9.394531 -14.78125 10.46875 -15.15625 C 11.539062 -15.53125 12.515625 -15.796875 13.390625 -15.953125 C 14.273438 -16.117188 15.160156 -16.203125 16.046875 -16.203125 C 18.316406 -16.203125 20.082031 -15.632812 21.34375 -14.5 C 22.601562 -13.375 23.234375 -11.785156 23.234375 -9.734375 C 23.234375 -8.128906 22.816406 -6.703125 21.984375 -5.453125 C 21.160156 -4.210938 19.796875 -3.132812 17.890625 -2.21875 C 15.984375 -1.3125 13.390625 -0.570312 10.109375 0 C 10.023438 -0.300781 9.941406 -0.550781 9.859375 -0.75 C 9.785156 -0.945312 9.6875 -1.148438 9.5625 -1.359375 C 9.445312 -1.578125 9.289062 -1.851562 9.09375 -2.1875 C 11.332031 -2.5 13.210938 -2.890625 14.734375 -3.359375 C 16.253906 -3.835938 17.46875 -4.390625 18.375 -5.015625 C 19.28125 -5.640625 19.925781 -6.34375 20.3125 -7.125 C 20.707031 -7.90625 20.90625 -8.753906 20.90625 -9.671875 C 20.90625 -11.140625 20.484375 -12.253906 19.640625 -13.015625 C 18.804688 -13.773438 17.597656 -14.15625 16.015625 -14.15625 C 15.390625 -14.15625 14.78125 -14.113281 14.1875 -14.03125 C 13.59375 -13.945312 12.941406 -13.796875 12.234375 -13.578125 C 11.535156 -13.359375 10.71875 -13.046875 9.78125 -12.640625 C 8.84375 -12.242188 7.710938 -11.722656 6.390625 -11.078125 C 5.898438 -10.835938 5.375 -10.570312 4.8125 -10.28125 C 4.25 -10 3.644531 -9.6875 3 -9.34375 Z M 3 -9.34375 "/></g></g></g><g fill="#000000" fill-opacity="1"><g transform="translate(6.298335, 158.69065)"><g/></g></g><g fill="#000000" fill-opacity="1"><g transform="translate(2.556179, 189.593602)"><g><path d="M 3 -9.34375 L 1.828125 -11.6875 C 2.335938 -11.851562 2.8125 -12.019531 3.25 -12.1875 C 3.695312 -12.363281 4.1875 -12.566406 4.71875 -12.796875 C 5.257812 -13.023438 5.910156 -13.300781 6.671875 -13.625 C 8.128906 -14.269531 9.394531 -14.78125 10.46875 -15.15625 C 11.539062 -15.53125 12.515625 -15.796875 13.390625 -15.953125 C 14.273438 -16.117188 15.160156 -16.203125 16.046875 -16.203125 C 18.316406 -16.203125 20.082031 -15.632812 21.34375 -14.5 C 22.601562 -13.375 23.234375 -11.785156 23.234375 -9.734375 C 23.234375 -8.128906 22.816406 -6.703125 21.984375 -5.453125 C 21.160156 -4.210938 19.796875 -3.132812 17.890625 -2.21875 C 15.984375 -1.3125 13.390625 -0.570312 10.109375 0 C 10.023438 -0.300781 9.941406 -0.550781 9.859375 -0.75 C 9.785156 -0.945312 9.6875 -1.148438 9.5625 -1.359375 C 9.445312 -1.578125 9.289062 -1.851562 9.09375 -2.1875 C 11.332031 -2.5 13.210938 -2.890625 14.734375 -3.359375 C 16.253906 -3.835938 17.46875 -4.390625 18.375 -5.015625 C 19.28125 -5.640625 19.925781 -6.34375 20.3125 -7.125 C 20.707031 -7.90625 20.90625 -8.753906 20.90625 -9.671875 C 20.90625 -11.140625 20.484375 -12.253906 19.640625 -13.015625 C 18.804688 -13.773438 17.597656 -14.15625 16.015625 -14.15625 C 15.390625 -14.15625 14.78125 -14.113281 14.1875 -14.03125 C 13.59375 -13.945312 12.941406 -13.796875 12.234375 -13.578125 C 11.535156 -13.359375 10.71875 -13.046875 9.78125 -12.640625 C 8.84375 -12.242188 7.710938 -11.722656 6.390625 -11.078125 C 5.898438 -10.835938 5.375 -10.570312 4.8125 -10.28125 C 4.25 -10 3.644531 -9.6875 3 -9.34375 Z M 18.921875 -18.640625 L 19.890625 -19.734375 C 20.347656 -19.453125 20.765625 -19.175781 21.140625 -18.90625 C 21.515625 -18.644531 21.882812 -18.359375 22.25 -18.046875 C 22.613281 -17.734375 23.023438 -17.347656 23.484375 -16.890625 L 22.359375 -15.71875 C 21.929688 -16.175781 21.546875 -16.566406 21.203125 -16.890625 C 20.867188 -17.210938 20.523438 -17.507812 20.171875 -17.78125 C 19.816406 -18.050781 19.398438 -18.335938 18.921875 -18.640625 Z M 20.890625 -20.75 L 21.859375 -21.828125 C 22.316406 -21.535156 22.726562 -21.257812 23.09375 -21 C 23.46875 -20.738281 23.835938 -20.445312 24.203125 -20.125 C 24.566406 -19.8125 24.976562 -19.4375 25.4375 -19 L 24.34375 -17.796875 C 23.9375 -18.273438 23.554688 -18.671875 23.203125 -18.984375 C 22.859375 -19.296875 22.503906 -19.585938 22.140625 -19.859375 C 21.773438 -20.128906 21.359375 -20.425781 20.890625 -20.75 Z M 20.890625 -20.75 "/></g></g></g><g fill="#000000" fill-opacity="1"><g transform="translate(6.298335, 191.997155)"><g/></g></g><g fill="#000000" fill-opacity="1"><g transform="translate(2.556179, 222.318487)"><g><path d="M 16.9375 -18.921875 L 17.796875 -17.171875 C 17.109375 -16.898438 16.515625 -16.671875 16.015625 -16.484375 C 15.523438 -16.296875 15.078125 -16.132812 14.671875 -16 C 14.265625 -15.875 13.835938 -15.753906 13.390625 -15.640625 C 13.578125 -15.054688 13.78125 -14.507812 14 -14 C 14.226562 -13.5 14.492188 -12.957031 14.796875 -12.375 C 15.691406 -12.71875 16.492188 -13.050781 17.203125 -13.375 C 17.910156 -13.695312 18.601562 -14.066406 19.28125 -14.484375 L 20.25 -12.703125 C 19.632812 -12.378906 19.085938 -12.109375 18.609375 -11.890625 C 18.140625 -11.671875 17.671875 -11.46875 17.203125 -11.28125 C 16.734375 -11.09375 16.203125 -10.890625 15.609375 -10.671875 C 16.015625 -9.890625 16.394531 -9.203125 16.75 -8.609375 C 17.113281 -8.015625 17.5 -7.445312 17.90625 -6.90625 C 18.3125 -6.375 18.78125 -5.796875 19.3125 -5.171875 L 17.671875 -3.765625 C 16.785156 -4.410156 15.914062 -4.878906 15.0625 -5.171875 C 14.21875 -5.460938 13.296875 -5.609375 12.296875 -5.609375 C 10.992188 -5.609375 10 -5.382812 9.3125 -4.9375 C 8.632812 -4.5 8.296875 -3.90625 8.296875 -3.15625 C 8.296875 -2.269531 8.691406 -1.617188 9.484375 -1.203125 C 10.273438 -0.785156 11.5625 -0.578125 13.34375 -0.578125 C 13.882812 -0.578125 14.394531 -0.59375 14.875 -0.625 C 15.363281 -0.664062 15.890625 -0.722656 16.453125 -0.796875 C 16.316406 -0.453125 16.203125 -0.09375 16.109375 0.28125 C 16.015625 0.664062 15.96875 1.054688 15.96875 1.453125 C 15.59375 1.472656 15.210938 1.484375 14.828125 1.484375 C 14.453125 1.492188 13.890625 1.5 13.140625 1.5 C 11.460938 1.5 10.113281 1.289062 9.09375 0.875 C 8.070312 0.457031 7.335938 -0.0820312 6.890625 -0.75 C 6.441406 -1.414062 6.21875 -2.132812 6.21875 -2.90625 C 6.21875 -4.207031 6.738281 -5.265625 7.78125 -6.078125 C 8.820312 -6.898438 10.296875 -7.3125 12.203125 -7.3125 C 12.710938 -7.3125 13.160156 -7.289062 13.546875 -7.25 C 13.941406 -7.207031 14.347656 -7.117188 14.765625 -6.984375 L 16.09375 -6.421875 L 15.234375 -7.515625 C 15.015625 -7.921875 14.78125 -8.332031 14.53125 -8.75 C 14.28125 -9.164062 14.035156 -9.601562 13.796875 -10.0625 C 11.984375 -9.53125 10.484375 -9.265625 9.296875 -9.265625 C 8.535156 -9.265625 7.941406 -9.445312 7.515625 -9.8125 C 7.085938 -10.175781 6.875 -10.679688 6.875 -11.328125 C 6.875 -11.566406 6.90625 -11.804688 6.96875 -12.046875 C 7.03125 -12.285156 7.144531 -12.59375 7.3125 -12.96875 L 9.046875 -12.421875 C 8.890625 -12.140625 8.8125 -11.90625 8.8125 -11.71875 C 8.8125 -11.363281 9.039062 -11.1875 9.5 -11.1875 C 9.957031 -11.1875 10.453125 -11.234375 10.984375 -11.328125 C 11.523438 -11.429688 12.164062 -11.59375 12.90625 -11.8125 C 12.65625 -12.351562 12.421875 -12.890625 12.203125 -13.421875 C 11.984375 -13.960938 11.757812 -14.523438 11.53125 -15.109375 C 10.75 -14.921875 9.800781 -14.734375 8.6875 -14.546875 C 7.582031 -14.359375 6.332031 -14.171875 4.9375 -13.984375 L 4.53125 -15.96875 C 6.894531 -16.175781 9.023438 -16.484375 10.921875 -16.890625 C 10.804688 -17.273438 10.691406 -17.65625 10.578125 -18.03125 C 10.472656 -18.40625 10.351562 -18.78125 10.21875 -19.15625 C 10.144531 -19.34375 10.066406 -19.550781 9.984375 -19.78125 C 9.910156 -20.007812 9.804688 -20.316406 9.671875 -20.703125 L 12.046875 -20.90625 L 12.15625 -20.90625 C 12.375 -20.90625 12.484375 -20.796875 12.484375 -20.578125 C 12.484375 -20.515625 12.460938 -20.457031 12.421875 -20.40625 C 12.390625 -20.351562 12.28125 -20.238281 12.09375 -20.0625 C 12.226562 -19.59375 12.347656 -19.148438 12.453125 -18.734375 C 12.554688 -18.316406 12.6875 -17.863281 12.84375 -17.375 C 13.332031 -17.507812 13.773438 -17.640625 14.171875 -17.765625 C 14.566406 -17.890625 14.984375 -18.046875 15.421875 -18.234375 C 15.859375 -18.421875 16.363281 -18.648438 16.9375 -18.921875 Z M 16.9375 -18.921875 "/></g></g></g><g fill="#000000" fill-opacity="1"><g transform="translate(6.298348, 225.503533)"><g/></g></g></svg>