<svg xmlns="http://www.w3.org/2000/svg" xmlns:xlink="http://www.w3.org/1999/xlink" width="40" zoomAndPan="magnify" viewBox="0 0 30 112.499997" height="150" preserveAspectRatio="xMidYMid meet" version="1.2"><defs/><g id="4ab19070fa"><g style="fill:#000000;fill-opacity:1;"><g transform="translate(1.35887, 26.018349)"><path style="stroke:none" d="M 12.703125 -0.265625 L 12.703125 -6.015625 L 8.203125 -6.015625 C 7.640625 -6.015625 7.007812 -6.007812 6.3125 -6 C 5.613281 -6 4.972656 -5.976562 4.390625 -5.9375 L 4.390625 -7.765625 C 4.910156 -7.742188 5.523438 -7.726562 6.234375 -7.71875 C 6.941406 -7.71875 7.597656 -7.71875 8.203125 -7.71875 L 19.046875 -7.71875 C 19.410156 -7.71875 19.828125 -7.71875 20.296875 -7.71875 C 20.773438 -7.726562 21.242188 -7.738281 21.703125 -7.75 C 22.171875 -7.757812 22.554688 -7.765625 22.859375 -7.765625 L 22.859375 -5.9375 C 22.535156 -5.957031 22.132812 -5.972656 21.65625 -5.984375 C 21.1875 -5.992188 20.71875 -6 20.25 -6 C 19.789062 -6.007812 19.390625 -6.015625 19.046875 -6.015625 L 14.5 -6.015625 L 14.5 -0.265625 L 20.171875 -0.265625 C 20.742188 -0.265625 21.359375 -0.269531 22.015625 -0.28125 C 22.671875 -0.289062 23.316406 -0.304688 23.953125 -0.328125 C 24.585938 -0.347656 25.132812 -0.363281 25.59375 -0.375 L 25.59375 1.53125 C 25.113281 1.507812 24.554688 1.488281 23.921875 1.46875 C 23.285156 1.445312 22.640625 1.429688 21.984375 1.421875 C 21.335938 1.421875 20.734375 1.421875 20.171875 1.421875 L 7.140625 1.421875 C 6.648438 1.421875 6.070312 1.421875 5.40625 1.421875 C 4.75 1.429688 4.09375 1.445312 3.4375 1.46875 C 2.78125 1.488281 2.207031 1.507812 1.71875 1.53125 L 1.71875 -0.375 C 2.1875 -0.363281 2.742188 -0.347656 3.390625 -0.328125 C 4.035156 -0.304688 4.691406 -0.289062 5.359375 -0.28125 C 6.035156 -0.269531 6.628906 -0.265625 7.140625 -0.265625 Z M 14.5 -19.84375 L 19.84375 -19.84375 C 20.78125 -19.84375 21.738281 -19.847656 22.71875 -19.859375 C 23.707031 -19.878906 24.554688 -19.910156 25.265625 -19.953125 C 25.242188 -19.460938 25.226562 -19.066406 25.21875 -18.765625 C 25.207031 -18.460938 25.203125 -18.15625 25.203125 -17.84375 L 25.203125 -17.296875 C 25.203125 -16.773438 25.226562 -16.1875 25.28125 -15.53125 L 23.359375 -15.53125 C 23.390625 -15.820312 23.410156 -16.128906 23.421875 -16.453125 C 23.429688 -16.785156 23.4375 -17.066406 23.4375 -17.296875 L 23.4375 -18.234375 L 4.03125 -18.234375 L 4.03125 -17.296875 C 4.03125 -16.992188 4.039062 -16.617188 4.0625 -16.171875 C 4.082031 -15.722656 4.097656 -15.300781 4.109375 -14.90625 L 2.1875 -14.90625 C 2.238281 -15.8125 2.265625 -16.609375 2.265625 -17.296875 L 2.265625 -17.84375 C 2.265625 -18.15625 2.257812 -18.460938 2.25 -18.765625 C 2.238281 -19.066406 2.222656 -19.460938 2.203125 -19.953125 C 2.898438 -19.910156 3.742188 -19.878906 4.734375 -19.859375 C 5.722656 -19.847656 6.679688 -19.84375 7.609375 -19.84375 L 12.71875 -19.84375 L 12.71875 -21.203125 L 12.703125 -22.9375 L 14.53125 -22.75 C 14.851562 -22.726562 15.015625 -22.640625 15.015625 -22.484375 C 15.015625 -22.316406 14.84375 -22.132812 14.5 -21.9375 Z M 9.734375 -17.796875 L 11.5 -17.171875 C 11.789062 -17.054688 11.9375 -16.925781 11.9375 -16.78125 C 11.9375 -16.582031 11.71875 -16.429688 11.28125 -16.328125 C 10.738281 -14.992188 10.097656 -13.835938 9.359375 -12.859375 C 8.617188 -11.878906 7.71875 -11.003906 6.65625 -10.234375 C 5.59375 -9.472656 4.28125 -8.734375 2.71875 -8.015625 C 2.539062 -8.535156 2.21875 -9.050781 1.75 -9.5625 C 3.25 -10.238281 4.507812 -10.957031 5.53125 -11.71875 C 6.550781 -12.476562 7.394531 -13.347656 8.0625 -14.328125 C 8.738281 -15.316406 9.296875 -16.472656 9.734375 -17.796875 Z M 16.84375 -16.5625 L 16.84375 -13.1875 C 16.84375 -12.863281 16.90625 -12.613281 17.03125 -12.4375 C 17.15625 -12.269531 17.40625 -12.15625 17.78125 -12.09375 C 18.15625 -12.039062 18.722656 -12.015625 19.484375 -12.015625 C 20.878906 -12.015625 21.867188 -12.054688 22.453125 -12.140625 C 23.035156 -12.222656 23.390625 -12.378906 23.515625 -12.609375 C 23.585938 -12.742188 23.640625 -12.863281 23.671875 -12.96875 C 23.710938 -13.082031 23.742188 -13.269531 23.765625 -13.53125 C 23.785156 -13.789062 23.800781 -14.210938 23.8125 -14.796875 C 23.957031 -14.722656 24.191406 -14.632812 24.515625 -14.53125 C 24.847656 -14.4375 25.25 -14.316406 25.71875 -14.171875 C 25.632812 -13.171875 25.523438 -12.457031 25.390625 -12.03125 C 25.265625 -11.601562 25.050781 -11.269531 24.75 -11.03125 C 24.34375 -10.707031 23.710938 -10.507812 22.859375 -10.4375 C 22.628906 -10.414062 22.300781 -10.394531 21.875 -10.375 C 21.457031 -10.363281 21.046875 -10.347656 20.640625 -10.328125 C 20.234375 -10.304688 19.910156 -10.296875 19.671875 -10.296875 C 18.378906 -10.296875 17.394531 -10.347656 16.71875 -10.453125 C 16.039062 -10.566406 15.578125 -10.78125 15.328125 -11.09375 C 15.078125 -11.414062 14.953125 -11.867188 14.953125 -12.453125 L 14.953125 -15.828125 C 14.953125 -16.316406 14.953125 -16.664062 14.953125 -16.875 C 14.953125 -17.082031 14.953125 -17.226562 14.953125 -17.3125 C 14.953125 -17.394531 14.945312 -17.484375 14.9375 -17.578125 L 16.875 -17.390625 C 17.195312 -17.367188 17.359375 -17.273438 17.359375 -17.109375 C 17.359375 -16.953125 17.1875 -16.769531 16.84375 -16.5625 Z M 16.84375 -16.5625 "/></g></g><g style="fill:#000000;fill-opacity:1;"><g transform="translate(1.35887, 51.818683)"><path style="stroke:none" d="M 18.171875 -19.96875 L 18.9375 -18.359375 C 17.863281 -17.941406 16.976562 -17.609375 16.28125 -17.359375 C 15.582031 -17.117188 14.878906 -16.898438 14.171875 -16.703125 C 14.265625 -16.429688 14.347656 -16.195312 14.421875 -16 C 14.492188 -15.8125 14.570312 -15.601562 14.65625 -15.375 C 14.75 -15.15625 14.875 -14.859375 15.03125 -14.484375 C 15.195312 -14.109375 15.425781 -13.601562 15.71875 -12.96875 C 16.71875 -13.332031 17.609375 -13.691406 18.390625 -14.046875 C 19.171875 -14.398438 19.925781 -14.785156 20.65625 -15.203125 L 21.53125 -13.625 C 19.675781 -12.664062 17.992188 -11.9375 16.484375 -11.4375 C 16.992188 -10.519531 17.4375 -9.742188 17.8125 -9.109375 C 18.195312 -8.484375 18.582031 -7.898438 18.96875 -7.359375 C 19.363281 -6.828125 19.84375 -6.21875 20.40625 -5.53125 L 18.890625 -4.25 C 17.210938 -5.46875 15.226562 -6.078125 12.9375 -6.078125 C 11.65625 -6.078125 10.625 -5.828125 9.84375 -5.328125 C 9.0625 -4.828125 8.671875 -4.171875 8.671875 -3.359375 C 8.671875 -2.359375 9.125 -1.625 10.03125 -1.15625 C 10.9375 -0.695312 12.363281 -0.46875 14.3125 -0.46875 C 14.832031 -0.46875 15.296875 -0.484375 15.703125 -0.515625 C 16.117188 -0.554688 16.671875 -0.613281 17.359375 -0.6875 C 17.046875 -0.0078125 16.890625 0.59375 16.890625 1.125 L 16.890625 1.328125 C 16.441406 1.347656 16.078125 1.367188 15.796875 1.390625 C 15.515625 1.410156 15.164062 1.421875 14.75 1.421875 C 13.507812 1.421875 12.484375 1.359375 11.671875 1.234375 C 10.867188 1.117188 10.15625 0.925781 9.53125 0.65625 C 8.695312 0.289062 8.03125 -0.238281 7.53125 -0.9375 C 7.03125 -1.632812 6.78125 -2.40625 6.78125 -3.25 C 6.78125 -4.59375 7.335938 -5.65625 8.453125 -6.4375 C 9.578125 -7.21875 11.101562 -7.609375 13.03125 -7.609375 C 13.84375 -7.609375 14.550781 -7.546875 15.15625 -7.421875 C 15.769531 -7.304688 16.492188 -7.078125 17.328125 -6.734375 C 17.035156 -7.148438 16.800781 -7.488281 16.625 -7.75 C 16.457031 -8.007812 16.300781 -8.265625 16.15625 -8.515625 C 16.007812 -8.765625 15.835938 -9.070312 15.640625 -9.4375 C 15.441406 -9.8125 15.175781 -10.304688 14.84375 -10.921875 C 13.957031 -10.671875 13.097656 -10.46875 12.265625 -10.3125 C 11.441406 -10.15625 10.742188 -10.078125 10.171875 -10.078125 C 8.472656 -10.078125 7.625 -10.742188 7.625 -12.078125 C 7.625 -12.296875 7.660156 -12.519531 7.734375 -12.75 C 7.804688 -12.988281 7.9375 -13.289062 8.125 -13.65625 L 9.625 -13.03125 C 9.4375 -12.71875 9.34375 -12.488281 9.34375 -12.34375 C 9.34375 -12 9.625 -11.828125 10.1875 -11.828125 C 11.1875 -11.828125 12.476562 -12.046875 14.0625 -12.484375 L 13.578125 -13.625 C 13.359375 -14.132812 13.1875 -14.53125 13.0625 -14.8125 C 12.945312 -15.09375 12.847656 -15.335938 12.765625 -15.546875 C 12.679688 -15.753906 12.585938 -15.984375 12.484375 -16.234375 C 11.859375 -16.085938 11.25 -15.960938 10.65625 -15.859375 C 10.070312 -15.753906 9.367188 -15.632812 8.546875 -15.5 C 7.734375 -15.375 6.679688 -15.222656 5.390625 -15.046875 L 5.046875 -16.8125 C 5.660156 -16.851562 6.390625 -16.925781 7.234375 -17.03125 C 8.078125 -17.132812 8.90625 -17.253906 9.71875 -17.390625 C 10.539062 -17.535156 11.1875 -17.660156 11.65625 -17.765625 C 11.75 -17.804688 11.8125 -17.828125 11.84375 -17.828125 C 11.882812 -17.828125 11.925781 -17.832031 11.96875 -17.84375 C 11.945312 -17.914062 11.921875 -17.988281 11.890625 -18.0625 C 11.867188 -18.132812 11.820312 -18.289062 11.75 -18.53125 C 11.675781 -18.769531 11.539062 -19.160156 11.34375 -19.703125 C 11.269531 -19.941406 11.210938 -20.117188 11.171875 -20.234375 C 11.140625 -20.347656 11.054688 -20.609375 10.921875 -21.015625 C 10.867188 -21.234375 10.832031 -21.378906 10.8125 -21.453125 C 10.800781 -21.523438 10.75 -21.675781 10.65625 -21.90625 L 12.75 -22.125 C 13.019531 -22.164062 13.15625 -22.046875 13.15625 -21.765625 C 13.15625 -21.691406 13.132812 -21.628906 13.09375 -21.578125 C 13.0625 -21.523438 12.945312 -21.414062 12.75 -21.25 C 12.894531 -20.800781 13.003906 -20.429688 13.078125 -20.140625 C 13.148438 -19.847656 13.234375 -19.566406 13.328125 -19.296875 C 13.421875 -19.035156 13.53125 -18.695312 13.65625 -18.28125 C 14.21875 -18.445312 14.710938 -18.601562 15.140625 -18.75 C 15.566406 -18.894531 16.015625 -19.0625 16.484375 -19.25 C 16.953125 -19.4375 17.515625 -19.675781 18.171875 -19.96875 Z M 18.171875 -19.96875 "/></g></g><g style="fill:#000000;fill-opacity:1;"><g transform="translate(1.35887, 80.526093)"><path style="stroke:none" d="M 14.5 -19.78125 L 19.625 -19.78125 C 20.5625 -19.78125 21.519531 -19.789062 22.5 -19.8125 C 23.488281 -19.832031 24.328125 -19.859375 25.015625 -19.890625 C 24.992188 -19.398438 24.984375 -19.003906 24.984375 -18.703125 C 24.984375 -18.398438 24.984375 -18.109375 24.984375 -17.828125 L 24.984375 -16.84375 C 24.984375 -16.132812 25.007812 -15.34375 25.0625 -14.46875 L 23.140625 -14.46875 C 23.171875 -14.863281 23.191406 -15.28125 23.203125 -15.71875 C 23.210938 -16.15625 23.21875 -16.53125 23.21875 -16.84375 L 23.21875 -18.171875 L 3.8125 -18.171875 L 3.8125 -16.84375 C 3.8125 -16.53125 3.820312 -16.15625 3.84375 -15.71875 C 3.863281 -15.28125 3.878906 -14.863281 3.890625 -14.46875 L 1.96875 -14.46875 C 2.019531 -15.34375 2.046875 -16.132812 2.046875 -16.84375 L 2.046875 -17.828125 C 2.046875 -18.109375 2.039062 -18.398438 2.03125 -18.703125 C 2.019531 -19.003906 2.003906 -19.398438 1.984375 -19.890625 C 2.679688 -19.859375 3.523438 -19.832031 4.515625 -19.8125 C 5.503906 -19.789062 6.460938 -19.78125 7.390625 -19.78125 L 12.703125 -19.78125 L 12.703125 -21.203125 C 12.703125 -21.566406 12.703125 -21.898438 12.703125 -22.203125 C 12.703125 -22.515625 12.691406 -22.757812 12.671875 -22.9375 L 14.53125 -22.75 C 14.851562 -22.726562 15.015625 -22.640625 15.015625 -22.484375 C 15.015625 -22.316406 14.851562 -22.132812 14.53125 -21.9375 Z M 11.53125 -14.140625 L 8.578125 -14.140625 C 8.015625 -14.140625 7.382812 -14.132812 6.6875 -14.125 C 5.988281 -14.113281 5.359375 -14.101562 4.796875 -14.09375 L 4.796875 -15.859375 C 5.328125 -15.835938 5.941406 -15.816406 6.640625 -15.796875 C 7.335938 -15.785156 7.984375 -15.78125 8.578125 -15.78125 L 18.203125 -15.78125 C 18.585938 -15.78125 19.015625 -15.785156 19.484375 -15.796875 C 19.953125 -15.804688 20.414062 -15.816406 20.875 -15.828125 C 21.332031 -15.847656 21.710938 -15.859375 22.015625 -15.859375 L 22.015625 -14.09375 C 21.503906 -14.101562 20.875 -14.113281 20.125 -14.125 C 19.375 -14.132812 18.734375 -14.140625 18.203125 -14.140625 L 15.046875 -14.140625 C 15.296875 -13.359375 15.582031 -12.59375 15.90625 -11.84375 C 16.238281 -11.101562 16.613281 -10.390625 17.03125 -9.703125 C 18.28125 -10.441406 19.328125 -11.113281 20.171875 -11.71875 C 21.023438 -12.332031 21.796875 -12.976562 22.484375 -13.65625 L 24.109375 -12.5 C 24.316406 -12.363281 24.421875 -12.25 24.421875 -12.15625 C 24.421875 -12.0625 24.363281 -11.992188 24.25 -11.953125 C 24.144531 -11.921875 23.9375 -11.894531 23.625 -11.875 C 22.625 -11.28125 21.878906 -10.835938 21.390625 -10.546875 C 20.898438 -10.253906 20.519531 -10.035156 20.25 -9.890625 C 19.46875 -9.472656 18.90625 -9.164062 18.5625 -8.96875 C 18.21875 -8.78125 17.960938 -8.644531 17.796875 -8.5625 C 17.960938 -8.320312 18.132812 -8.09375 18.3125 -7.875 C 18.488281 -7.65625 18.671875 -7.425781 18.859375 -7.1875 C 19.492188 -6.46875 20.140625 -5.8125 20.796875 -5.21875 C 21.460938 -4.625 22.234375 -4.050781 23.109375 -3.5 C 23.984375 -2.945312 25.046875 -2.34375 26.296875 -1.6875 C 25.878906 -1.34375 25.570312 -1.070312 25.375 -0.875 C 25.1875 -0.675781 24.992188 -0.394531 24.796875 -0.03125 C 23.546875 -0.789062 22.476562 -1.488281 21.59375 -2.125 C 20.71875 -2.757812 19.953125 -3.40625 19.296875 -4.0625 C 18.640625 -4.71875 18.003906 -5.441406 17.390625 -6.234375 C 16.515625 -7.398438 15.785156 -8.570312 15.203125 -9.75 C 14.617188 -10.9375 14.101562 -12.300781 13.65625 -13.84375 C 13.3125 -13.550781 12.945312 -13.257812 12.5625 -12.96875 C 12.175781 -12.675781 11.785156 -12.394531 11.390625 -12.125 C 12.898438 -10.800781 13.984375 -9.421875 14.640625 -7.984375 C 15.304688 -6.546875 15.640625 -4.863281 15.640625 -2.9375 C 15.640625 -0.738281 15.125 0.726562 14.09375 1.46875 C 13.832031 1.65625 13.546875 1.796875 13.234375 1.890625 C 12.929688 1.992188 12.53125 2.066406 12.03125 2.109375 C 11.53125 2.160156 10.851562 2.191406 10 2.203125 C 9.96875 1.785156 9.910156 1.421875 9.828125 1.109375 C 9.742188 0.804688 9.601562 0.453125 9.40625 0.046875 C 9.84375 0.0664062 10.203125 0.0820312 10.484375 0.09375 C 10.765625 0.101562 11.050781 0.109375 11.34375 0.109375 C 12.007812 0.109375 12.507812 0.015625 12.84375 -0.171875 C 13.1875 -0.367188 13.421875 -0.734375 13.546875 -1.265625 C 13.671875 -1.804688 13.734375 -2.570312 13.734375 -3.5625 C 13.734375 -4.019531 13.707031 -4.445312 13.65625 -4.84375 C 12.601562 -4.125 11.488281 -3.453125 10.3125 -2.828125 C 9.144531 -2.210938 7.867188 -1.628906 6.484375 -1.078125 C 5.109375 -0.523438 3.554688 0.03125 1.828125 0.59375 C 1.703125 0.226562 1.570312 -0.0703125 1.4375 -0.3125 C 1.3125 -0.5625 1.140625 -0.832031 0.921875 -1.125 C 2.484375 -1.5 3.925781 -1.929688 5.25 -2.421875 C 6.582031 -2.910156 7.894531 -3.488281 9.1875 -4.15625 C 10.476562 -4.832031 11.832031 -5.632812 13.25 -6.5625 C 13.113281 -6.90625 12.976562 -7.238281 12.84375 -7.5625 C 12.707031 -7.894531 12.539062 -8.207031 12.34375 -8.5 C 11.320312 -7.832031 10.320312 -7.234375 9.34375 -6.703125 C 8.363281 -6.171875 7.3125 -5.671875 6.1875 -5.203125 C 5.0625 -4.734375 3.753906 -4.234375 2.265625 -3.703125 C 2.117188 -4.066406 1.976562 -4.34375 1.84375 -4.53125 C 1.71875 -4.726562 1.546875 -4.941406 1.328125 -5.171875 C 2.835938 -5.660156 4.15625 -6.132812 5.28125 -6.59375 C 6.40625 -7.050781 7.453125 -7.535156 8.421875 -8.046875 C 9.398438 -8.566406 10.40625 -9.164062 11.4375 -9.84375 C 11.226562 -10.09375 11.015625 -10.335938 10.796875 -10.578125 C 10.578125 -10.828125 10.347656 -11.070312 10.109375 -11.3125 C 9.078125 -10.6875 7.957031 -10.085938 6.75 -9.515625 C 5.539062 -8.953125 4.171875 -8.378906 2.640625 -7.796875 C 2.515625 -8.097656 2.382812 -8.34375 2.25 -8.53125 C 2.113281 -8.726562 1.890625 -9 1.578125 -9.34375 C 3.035156 -9.832031 4.320312 -10.304688 5.4375 -10.765625 C 6.550781 -11.234375 7.597656 -11.738281 8.578125 -12.28125 C 9.566406 -12.832031 10.550781 -13.453125 11.53125 -14.140625 Z M 11.53125 -14.140625 "/></g></g><g style="fill:#000000;fill-opacity:1;"><g transform="translate(1.35887, 107.789044)"><path style="stroke:none" d="M 13.21875 -16.765625 L 14.171875 -16.4375 C 14.390625 -16.363281 14.5 -16.253906 14.5 -16.109375 C 14.5 -15.941406 14.367188 -15.785156 14.109375 -15.640625 C 13.910156 -14.535156 13.710938 -13.539062 13.515625 -12.65625 C 13.316406 -11.78125 13.101562 -10.960938 12.875 -10.203125 C 12.644531 -9.453125 12.378906 -8.6875 12.078125 -7.90625 C 11.273438 -5.863281 10.460938 -4.398438 9.640625 -3.515625 C 8.828125 -2.640625 7.867188 -2.203125 6.765625 -2.203125 C 5.578125 -2.203125 4.617188 -2.71875 3.890625 -3.75 C 3.171875 -4.789062 2.8125 -6.164062 2.8125 -7.875 C 2.8125 -9.144531 3.050781 -10.359375 3.53125 -11.515625 C 4.007812 -12.679688 4.691406 -13.742188 5.578125 -14.703125 C 6.472656 -15.671875 7.519531 -16.460938 8.71875 -17.078125 C 10.40625 -17.953125 12.285156 -18.390625 14.359375 -18.390625 C 16.109375 -18.390625 17.71875 -18.085938 19.1875 -17.484375 C 20.65625 -16.890625 21.851562 -16.039062 22.78125 -14.9375 C 23.976562 -13.519531 24.578125 -11.703125 24.578125 -9.484375 C 24.578125 -6.359375 23.078125 -3.890625 20.078125 -2.078125 C 19.703125 -1.835938 19.335938 -1.628906 18.984375 -1.453125 C 18.640625 -1.285156 18.207031 -1.097656 17.6875 -0.890625 C 17.175781 -0.691406 16.445312 -0.421875 15.5 -0.078125 C 15.375 -0.441406 15.265625 -0.710938 15.171875 -0.890625 C 15.085938 -1.078125 15 -1.238281 14.90625 -1.375 C 14.8125 -1.507812 14.675781 -1.675781 14.5 -1.875 C 15.425781 -2.144531 16.175781 -2.382812 16.75 -2.59375 C 17.320312 -2.8125 17.820312 -3.023438 18.25 -3.234375 C 18.675781 -3.453125 19.113281 -3.71875 19.5625 -4.03125 C 21.539062 -5.414062 22.53125 -7.257812 22.53125 -9.5625 C 22.53125 -12.101562 21.53125 -14.019531 19.53125 -15.3125 C 18.863281 -15.75 18.050781 -16.109375 17.09375 -16.390625 C 16.144531 -16.671875 15.253906 -16.8125 14.421875 -16.8125 C 14.304688 -16.8125 14.195312 -16.8125 14.09375 -16.8125 C 14 -16.8125 13.707031 -16.796875 13.21875 -16.765625 Z M 12.1875 -16.65625 C 11.4375 -16.445312 10.796875 -16.234375 10.265625 -16.015625 C 9.742188 -15.804688 9.273438 -15.554688 8.859375 -15.265625 C 8.441406 -14.984375 8.023438 -14.644531 7.609375 -14.25 C 6.679688 -13.363281 5.96875 -12.375 5.46875 -11.28125 C 4.976562 -10.1875 4.734375 -9.050781 4.734375 -7.875 C 4.734375 -6.78125 4.925781 -5.867188 5.3125 -5.140625 C 5.695312 -4.421875 6.171875 -4.0625 6.734375 -4.0625 C 7.316406 -4.0625 7.859375 -4.34375 8.359375 -4.90625 C 8.867188 -5.46875 9.390625 -6.367188 9.921875 -7.609375 C 10.367188 -8.660156 10.757812 -9.738281 11.09375 -10.84375 C 11.4375 -11.945312 11.703125 -13.003906 11.890625 -14.015625 C 12.085938 -15.023438 12.1875 -15.90625 12.1875 -16.65625 Z M 12.1875 -16.65625 "/></g></g></g></svg>