<svg xmlns="http://www.w3.org/2000/svg" xmlns:xlink="http://www.w3.org/1999/xlink" width="40" zoomAndPan="magnify" viewBox="0 0 30 262.499992" height="350" preserveAspectRatio="xMidYMid meet" version="1.0"><defs><g/><clipPath id="976f7081c5"><path d="M 0.0273438 6 L 29.96875 6 L 29.96875 35 L 0.0273438 35 Z M 0.0273438 6 " clip-rule="nonzero"/></clipPath><clipPath id="4cdbf63851"><path d="M 0.0273438 126 L 29.96875 126 L 29.96875 153 L 0.0273438 153 Z M 0.0273438 126 " clip-rule="nonzero"/></clipPath><clipPath id="29861adea7"><path d="M 0.0273438 185 L 28 185 L 28 213 L 0.0273438 213 Z M 0.0273438 185 " clip-rule="nonzero"/></clipPath></defs><g clip-path="url(#976f7081c5)"><g fill="#000000" fill-opacity="1"><g transform="translate(-0.0405887, 31.681895)"><g><path d="M 24.875 -25.09375 L 26.5 -23.859375 C 26.65625 -23.734375 26.734375 -23.59375 26.734375 -23.4375 C 26.734375 -23.257812 26.597656 -23.171875 26.328125 -23.171875 C 26.285156 -23.171875 26.21875 -23.175781 26.125 -23.1875 C 26.03125 -23.195312 25.894531 -23.207031 25.71875 -23.21875 C 24.375 -22.90625 23.269531 -22.640625 22.40625 -22.421875 C 21.550781 -22.210938 20.765625 -22.03125 20.046875 -21.875 C 20.046875 -20.75 20.0625 -19.617188 20.09375 -18.484375 C 20.132812 -17.359375 20.226562 -16.234375 20.375 -15.109375 L 24.375 -15.109375 C 24.96875 -15.109375 25.671875 -15.117188 26.484375 -15.140625 C 27.296875 -15.160156 27.984375 -15.179688 28.546875 -15.203125 L 28.546875 -13.15625 C 27.984375 -13.175781 27.296875 -13.195312 26.484375 -13.21875 C 25.671875 -13.238281 24.96875 -13.25 24.375 -13.25 L 20.640625 -13.25 C 20.796875 -12.3125 20.984375 -11.429688 21.203125 -10.609375 C 21.429688 -9.785156 21.695312 -8.992188 22 -8.234375 C 22.5 -6.992188 23.039062 -5.875 23.625 -4.875 C 24.21875 -3.882812 24.828125 -3.082031 25.453125 -2.46875 C 25.804688 -2.101562 26.140625 -1.816406 26.453125 -1.609375 C 26.765625 -1.398438 27.007812 -1.296875 27.1875 -1.296875 C 27.425781 -1.296875 27.578125 -1.492188 27.640625 -1.890625 C 27.703125 -2.234375 27.757812 -2.710938 27.8125 -3.328125 C 27.875 -3.953125 27.914062 -4.472656 27.9375 -4.890625 C 28.601562 -4.535156 29.1875 -4.273438 29.6875 -4.109375 C 29.664062 -3.734375 29.632812 -3.457031 29.59375 -3.28125 C 29.414062 -1.59375 29.179688 -0.414062 28.890625 0.25 C 28.597656 0.925781 28.171875 1.265625 27.609375 1.265625 C 27.234375 1.265625 26.726562 1.066406 26.09375 0.671875 C 25.46875 0.285156 24.832031 -0.226562 24.1875 -0.875 C 22.90625 -2.195312 21.78125 -3.929688 20.8125 -6.078125 C 19.851562 -8.234375 19.15625 -10.625 18.71875 -13.25 L 13.078125 -13.25 L 13.078125 -5.671875 C 14.035156 -5.898438 15.003906 -6.15625 15.984375 -6.4375 C 16.960938 -6.726562 18.082031 -7.066406 19.34375 -7.453125 L 19.65625 -5.828125 C 17.90625 -5.242188 16.148438 -4.691406 14.390625 -4.171875 C 12.628906 -3.648438 11.007812 -3.203125 9.53125 -2.828125 C 9.300781 -2.441406 9.097656 -2.25 8.921875 -2.25 C 8.742188 -2.25 8.601562 -2.367188 8.5 -2.609375 L 7.609375 -4.59375 C 8.265625 -4.71875 8.882812 -4.832031 9.46875 -4.9375 C 10.050781 -5.050781 10.59375 -5.160156 11.09375 -5.265625 L 11.09375 -18.53125 C 11.09375 -19.132812 11.09375 -19.617188 11.09375 -19.984375 C 11.09375 -20.359375 11.085938 -20.6875 11.078125 -20.96875 C 11.066406 -21.25 11.054688 -21.5625 11.046875 -21.90625 C 11.035156 -22.257812 11.019531 -22.726562 11 -23.3125 L 12.953125 -22.5 C 14.671875 -22.71875 16.191406 -22.945312 17.515625 -23.1875 C 18.835938 -23.4375 20.082031 -23.707031 21.25 -24 C 22.425781 -24.300781 23.632812 -24.664062 24.875 -25.09375 Z M 13.078125 -15.109375 L 18.421875 -15.109375 C 18.335938 -15.816406 18.28125 -16.507812 18.25 -17.1875 C 18.21875 -17.863281 18.179688 -18.722656 18.140625 -19.765625 C 18.128906 -20.234375 18.125 -20.601562 18.125 -20.875 C 18.125 -21.15625 18.113281 -21.378906 18.09375 -21.546875 C 17.269531 -21.421875 16.4375 -21.300781 15.59375 -21.1875 C 14.75 -21.082031 13.910156 -20.976562 13.078125 -20.875 Z M 6.0625 -16.828125 L 6.671875 -16.765625 C 6.992188 -16.722656 7.15625 -16.625 7.15625 -16.46875 C 7.15625 -16.300781 6.960938 -16.097656 6.578125 -15.859375 L 6.578125 -3.578125 C 6.578125 -2.234375 6.585938 -1.035156 6.609375 0.015625 C 6.628906 1.066406 6.648438 1.921875 6.671875 2.578125 L 4.5 2.578125 C 4.5625 1.222656 4.59375 -0.828125 4.59375 -3.578125 L 4.59375 -13.859375 C 4.269531 -13.148438 3.984375 -12.554688 3.734375 -12.078125 C 3.484375 -11.597656 3.222656 -11.132812 2.953125 -10.6875 C 2.679688 -10.25 2.347656 -9.734375 1.953125 -9.140625 C 1.691406 -9.660156 1.488281 -10.023438 1.34375 -10.234375 C 1.207031 -10.441406 1 -10.695312 0.71875 -11 C 1.695312 -12.457031 2.550781 -13.910156 3.28125 -15.359375 C 4.019531 -16.816406 4.675781 -18.351562 5.25 -19.96875 C 5.832031 -21.582031 6.363281 -23.359375 6.84375 -25.296875 L 8.859375 -24.484375 C 9.140625 -24.367188 9.28125 -24.226562 9.28125 -24.0625 C 9.28125 -23.945312 9.238281 -23.859375 9.15625 -23.796875 C 9.082031 -23.734375 8.882812 -23.65625 8.5625 -23.5625 C 8.257812 -22.570312 7.992188 -21.738281 7.765625 -21.0625 C 7.535156 -20.382812 7.289062 -19.722656 7.03125 -19.078125 C 6.769531 -18.441406 6.445312 -17.691406 6.0625 -16.828125 Z M 22.59375 -0.9375 L 22.59375 1.078125 C 22.15625 1.035156 21.65625 1.015625 21.09375 1.015625 C 20.53125 1.015625 20.03125 1.015625 19.59375 1.015625 L 11.328125 1.015625 C 10.890625 1.015625 10.390625 1.015625 9.828125 1.015625 C 9.265625 1.015625 8.773438 1.035156 8.359375 1.078125 L 8.359375 -0.9375 C 8.773438 -0.914062 9.265625 -0.898438 9.828125 -0.890625 C 10.390625 -0.878906 10.890625 -0.875 11.328125 -0.875 L 19.59375 -0.875 C 20.03125 -0.875 20.53125 -0.878906 21.09375 -0.890625 C 21.65625 -0.898438 22.15625 -0.914062 22.59375 -0.9375 Z M 22.59375 -0.9375 "/></g></g></g></g><g fill="#000000" fill-opacity="1"><g transform="translate(-0.0405887, 59.778531)"><g><path d="M 4.75 -19.734375 L 6.875 -19.46875 C 7.320312 -19.40625 7.546875 -19.234375 7.546875 -18.953125 C 7.546875 -18.835938 7.5 -18.738281 7.40625 -18.65625 C 7.3125 -18.570312 7.125 -18.484375 6.84375 -18.390625 C 6.789062 -17.828125 6.742188 -17.296875 6.703125 -16.796875 C 6.660156 -16.296875 6.628906 -15.734375 6.609375 -15.109375 C 6.585938 -14.492188 6.578125 -13.710938 6.578125 -12.765625 C 6.578125 -9.585938 7.148438 -7.101562 8.296875 -5.3125 C 8.648438 -4.757812 9.015625 -4.320312 9.390625 -4 C 9.765625 -3.675781 10.097656 -3.515625 10.390625 -3.515625 C 10.734375 -3.515625 11.046875 -3.753906 11.328125 -4.234375 C 11.523438 -4.597656 11.753906 -5.164062 12.015625 -5.9375 C 12.273438 -6.707031 12.476562 -7.429688 12.625 -8.109375 C 12.90625 -7.910156 13.113281 -7.753906 13.25 -7.640625 C 13.394531 -7.535156 13.539062 -7.4375 13.6875 -7.34375 C 13.832031 -7.257812 14.046875 -7.113281 14.328125 -6.90625 C 13.847656 -4.882812 13.3125 -3.429688 12.71875 -2.546875 C 12.132812 -1.671875 11.378906 -1.234375 10.453125 -1.234375 C 9.773438 -1.234375 9.078125 -1.503906 8.359375 -2.046875 C 7.648438 -2.585938 7.007812 -3.347656 6.4375 -4.328125 C 5.75 -5.429688 5.257812 -6.660156 4.96875 -8.015625 C 4.675781 -9.378906 4.53125 -11.066406 4.53125 -13.078125 C 4.53125 -13.609375 4.539062 -14.171875 4.5625 -14.765625 C 4.582031 -15.359375 4.601562 -16.015625 4.625 -16.734375 C 4.6875 -17.515625 4.71875 -18.003906 4.71875 -18.203125 C 4.757812 -18.703125 4.78125 -19.03125 4.78125 -19.1875 C 4.78125 -19.351562 4.769531 -19.535156 4.75 -19.734375 Z M 19.5625 -16.5625 L 20.96875 -17.84375 C 22.132812 -16.707031 23.109375 -15.628906 23.890625 -14.609375 C 24.671875 -13.585938 25.335938 -12.503906 25.890625 -11.359375 C 26.453125 -10.210938 26.96875 -8.898438 27.4375 -7.421875 L 25.265625 -6.4375 C 24.722656 -8.5 24.003906 -10.320312 23.109375 -11.90625 C 22.222656 -13.5 21.039062 -15.050781 19.5625 -16.5625 Z M 19.5625 -16.5625 "/></g></g></g><g fill="#000000" fill-opacity="1"><g transform="translate(-0.0405887, 90.178986)"><g><path d="M 5.171875 -2.96875 L 13.96875 -2.96875 L 13.96875 -18.140625 C 13.96875 -19.847656 13.953125 -21.195312 13.921875 -22.1875 C 13.890625 -23.175781 13.859375 -23.910156 13.828125 -24.390625 L 16.171875 -24.1875 C 16.503906 -24.144531 16.671875 -24.046875 16.671875 -23.890625 C 16.671875 -23.722656 16.484375 -23.519531 16.109375 -23.28125 C 16.109375 -23.144531 16.101562 -23.007812 16.09375 -22.875 C 16.082031 -22.75 16.078125 -22.53125 16.078125 -22.21875 C 16.078125 -21.90625 16.078125 -21.429688 16.078125 -20.796875 C 16.078125 -20.171875 16.078125 -19.285156 16.078125 -18.140625 L 16.078125 -2.96875 L 24.90625 -2.96875 L 24.90625 -13.40625 C 24.90625 -15.125 24.890625 -16.476562 24.859375 -17.46875 C 24.828125 -18.457031 24.796875 -19.1875 24.765625 -19.65625 L 27.078125 -19.4375 C 27.390625 -19.394531 27.546875 -19.296875 27.546875 -19.140625 C 27.546875 -18.984375 27.367188 -18.789062 27.015625 -18.5625 C 27.015625 -18.425781 27.007812 -18.285156 27 -18.140625 C 26.988281 -18.003906 26.984375 -17.785156 26.984375 -17.484375 C 26.984375 -17.179688 26.984375 -16.707031 26.984375 -16.0625 C 26.984375 -15.425781 26.984375 -14.539062 26.984375 -13.40625 L 26.984375 -4.390625 C 26.984375 -1.617188 27.015625 0.425781 27.078125 1.75 L 24.90625 1.75 L 24.90625 -1.109375 L 5.171875 -1.109375 L 5.171875 2.34375 L 3 2.34375 C 3.0625 0.976562 3.09375 -1.070312 3.09375 -3.8125 L 3.09375 -13.40625 C 3.09375 -15.125 3.082031 -16.476562 3.0625 -17.46875 C 3.039062 -18.457031 3.007812 -19.1875 2.96875 -19.65625 L 5.28125 -19.4375 C 5.601562 -19.394531 5.765625 -19.296875 5.765625 -19.140625 C 5.765625 -18.984375 5.578125 -18.789062 5.203125 -18.5625 C 5.203125 -18.425781 5.203125 -18.285156 5.203125 -18.140625 C 5.203125 -18.003906 5.203125 -17.785156 5.203125 -17.484375 C 5.203125 -17.179688 5.195312 -16.707031 5.1875 -16.0625 C 5.175781 -15.425781 5.171875 -14.539062 5.171875 -13.40625 Z M 5.171875 -2.96875 "/></g></g></g><g fill="#000000" fill-opacity="1"><g transform="translate(-0.0405887, 119.687955)"><g><path d="M 21.0625 -23.375 L 22.6875 -24.9375 C 23.53125 -24.15625 24.265625 -23.425781 24.890625 -22.75 C 25.523438 -22.082031 26.125 -21.394531 26.6875 -20.6875 C 27.257812 -19.976562 27.878906 -19.140625 28.546875 -18.171875 L 26.5625 -16.578125 C 24.84375 -19.285156 23.007812 -21.550781 21.0625 -23.375 Z M 21.0625 -23.375 "/></g></g></g><g clip-path="url(#4cdbf63851)"><g fill="#000000" fill-opacity="1"><g transform="translate(-0.0405887, 150.398946)"><g><path d="M 18.03125 -14.640625 L 21.0625 -14.640625 C 21.519531 -15.335938 21.882812 -15.960938 22.15625 -16.515625 C 22.425781 -17.078125 22.703125 -17.734375 22.984375 -18.484375 L 12.234375 -18.484375 L 12.234375 -17.21875 C 12.234375 -14.070312 12.035156 -11.367188 11.640625 -9.109375 C 11.253906 -6.859375 10.617188 -4.800781 9.734375 -2.9375 C 9.359375 -3.382812 9.082031 -3.679688 8.90625 -3.828125 C 8.738281 -3.984375 8.484375 -4.191406 8.140625 -4.453125 C 8.921875 -6.171875 9.484375 -8.054688 9.828125 -10.109375 C 10.179688 -12.160156 10.359375 -14.597656 10.359375 -17.421875 L 10.359375 -21.640625 C 10.359375 -22.097656 10.347656 -22.582031 10.328125 -23.09375 C 10.316406 -23.601562 10.300781 -24 10.28125 -24.28125 C 10.800781 -24.257812 11.3125 -24.242188 11.8125 -24.234375 C 12.3125 -24.222656 12.898438 -24.21875 13.578125 -24.21875 L 24.390625 -24.21875 C 25.078125 -24.21875 25.671875 -24.222656 26.171875 -24.234375 C 26.671875 -24.242188 27.179688 -24.257812 27.703125 -24.28125 C 27.679688 -24 27.660156 -23.609375 27.640625 -23.109375 C 27.617188 -22.609375 27.609375 -22.117188 27.609375 -21.640625 L 27.609375 -20.578125 C 27.609375 -20.054688 27.617188 -19.507812 27.640625 -18.9375 C 27.660156 -18.375 27.679688 -17.953125 27.703125 -17.671875 L 25.71875 -17.671875 L 25.71875 -18.484375 L 23.046875 -18.484375 L 24.9375 -17.515625 C 25.113281 -17.429688 25.203125 -17.3125 25.203125 -17.15625 C 25.203125 -17.050781 25.140625 -16.972656 25.015625 -16.921875 C 24.898438 -16.878906 24.6875 -16.835938 24.375 -16.796875 C 24.226562 -16.554688 24.054688 -16.28125 23.859375 -15.96875 C 23.660156 -15.65625 23.390625 -15.210938 23.046875 -14.640625 L 24.875 -14.640625 C 25.320312 -14.640625 25.828125 -14.640625 26.390625 -14.640625 C 26.960938 -14.648438 27.460938 -14.664062 27.890625 -14.6875 L 27.890625 -12.859375 C 27.460938 -12.878906 26.960938 -12.894531 26.390625 -12.90625 C 25.828125 -12.914062 25.320312 -12.921875 24.875 -12.921875 L 21.09375 -12.921875 L 21.09375 -11.03125 L 24.21875 -11.03125 C 24.675781 -11.03125 25.1875 -11.035156 25.75 -11.046875 C 26.3125 -11.054688 26.800781 -11.070312 27.21875 -11.09375 L 27.21875 -9.25 C 26.800781 -9.269531 26.3125 -9.285156 25.75 -9.296875 C 25.1875 -9.304688 24.675781 -9.3125 24.21875 -9.3125 L 21.09375 -9.3125 L 21.09375 -7.265625 L 25.546875 -7.265625 C 25.984375 -7.265625 26.484375 -7.269531 27.046875 -7.28125 C 27.609375 -7.289062 28.109375 -7.304688 28.546875 -7.328125 L 28.546875 -5.46875 C 28.109375 -5.488281 27.609375 -5.503906 27.046875 -5.515625 C 26.484375 -5.523438 25.984375 -5.53125 25.546875 -5.53125 L 21.09375 -5.53125 C 21.09375 -4.582031 21.097656 -3.722656 21.109375 -2.953125 C 21.117188 -2.179688 21.132812 -1.566406 21.15625 -1.109375 L 19.046875 -1.109375 C 19.109375 -2.128906 19.140625 -3.601562 19.140625 -5.53125 L 15.03125 -5.53125 C 14.582031 -5.53125 14.078125 -5.523438 13.515625 -5.515625 C 12.960938 -5.503906 12.472656 -5.488281 12.046875 -5.46875 L 12.046875 -7.328125 C 12.472656 -7.304688 12.960938 -7.289062 13.515625 -7.28125 C 14.078125 -7.269531 14.582031 -7.265625 15.03125 -7.265625 L 19.140625 -7.265625 L 19.140625 -9.3125 L 16.40625 -9.3125 C 15.96875 -9.3125 15.460938 -9.304688 14.890625 -9.296875 C 14.316406 -9.285156 13.820312 -9.269531 13.40625 -9.25 L 13.40625 -11.09375 C 13.820312 -11.070312 14.316406 -11.054688 14.890625 -11.046875 C 15.460938 -11.035156 15.96875 -11.03125 16.40625 -11.03125 L 19.140625 -11.03125 L 19.140625 -12.921875 L 16.171875 -12.921875 C 15.722656 -12.921875 15.21875 -12.914062 14.65625 -12.90625 C 14.101562 -12.894531 13.613281 -12.878906 13.1875 -12.859375 L 13.1875 -14.6875 C 13.613281 -14.664062 14.101562 -14.648438 14.65625 -14.640625 C 15.21875 -14.640625 15.722656 -14.640625 16.171875 -14.640625 L 17.15625 -14.640625 C 16.507812 -15.773438 15.878906 -16.664062 15.265625 -17.3125 L 16.671875 -18.296875 C 17.078125 -17.878906 17.40625 -17.515625 17.65625 -17.203125 C 17.90625 -16.890625 18.128906 -16.585938 18.328125 -16.296875 C 18.523438 -16.003906 18.742188 -15.660156 18.984375 -15.265625 Z M 25.71875 -20.09375 L 25.71875 -22.5 L 12.234375 -22.5 L 12.234375 -20.09375 Z M 7.515625 -9.921875 L 7.515625 -3.453125 C 7.890625 -2.972656 8.273438 -2.578125 8.671875 -2.265625 C 9.078125 -1.953125 9.59375 -1.65625 10.21875 -1.375 C 10.800781 -1.113281 11.359375 -0.90625 11.890625 -0.75 C 12.429688 -0.59375 13.03125 -0.46875 13.6875 -0.375 C 14.351562 -0.28125 15.128906 -0.210938 16.015625 -0.171875 C 16.898438 -0.140625 17.972656 -0.125 19.234375 -0.125 C 20.347656 -0.125 21.507812 -0.132812 22.71875 -0.15625 C 23.9375 -0.175781 25.101562 -0.207031 26.21875 -0.25 C 27.332031 -0.300781 28.285156 -0.347656 29.078125 -0.390625 C 28.878906 -0.0234375 28.738281 0.296875 28.65625 0.578125 C 28.582031 0.867188 28.523438 1.238281 28.484375 1.6875 C 27.203125 1.707031 26.144531 1.722656 25.3125 1.734375 C 24.476562 1.753906 23.738281 1.769531 23.09375 1.78125 C 22.457031 1.789062 21.78125 1.796875 21.0625 1.796875 C 20.34375 1.796875 19.441406 1.796875 18.359375 1.796875 C 16.429688 1.796875 14.789062 1.671875 13.4375 1.421875 C 12.09375 1.171875 10.828125 0.765625 9.640625 0.203125 C 8.984375 -0.0859375 8.414062 -0.4375 7.9375 -0.84375 C 7.457031 -1.257812 7.003906 -1.757812 6.578125 -2.34375 C 6.296875 -2.019531 6.046875 -1.753906 5.828125 -1.546875 C 5.609375 -1.335938 5.390625 -1.125 5.171875 -0.90625 C 5.085938 -0.820312 4.9375 -0.679688 4.71875 -0.484375 C 4.5 -0.296875 4.21875 -0.046875 3.875 0.265625 C 3.789062 0.347656 3.671875 0.460938 3.515625 0.609375 C 3.359375 0.765625 3.164062 0.941406 2.9375 1.140625 C 2.800781 1.578125 2.65625 1.796875 2.5 1.796875 C 2.394531 1.796875 2.265625 1.707031 2.109375 1.53125 L 0.78125 -0.09375 C 1.71875 -0.675781 2.550781 -1.226562 3.28125 -1.75 C 4.019531 -2.269531 4.789062 -2.878906 5.59375 -3.578125 L 5.59375 -10.640625 L 4 -10.640625 C 3.59375 -10.640625 3.101562 -10.632812 2.53125 -10.625 C 1.96875 -10.613281 1.503906 -10.597656 1.140625 -10.578125 L 1.140625 -12.59375 C 1.484375 -12.570312 1.929688 -12.554688 2.484375 -12.546875 C 3.046875 -12.535156 3.550781 -12.53125 4 -12.53125 L 4.8125 -12.53125 C 5.507812 -12.53125 6.015625 -12.53125 6.328125 -12.53125 C 6.640625 -12.53125 6.867188 -12.535156 7.015625 -12.546875 C 7.160156 -12.554688 7.347656 -12.570312 7.578125 -12.59375 C 7.578125 -12.40625 7.570312 -12.242188 7.5625 -12.109375 C 7.550781 -11.984375 7.546875 -11.765625 7.546875 -11.453125 C 7.546875 -11.148438 7.535156 -10.640625 7.515625 -9.921875 Z M 2.21875 -22.6875 L 3.578125 -23.921875 C 4.191406 -23.378906 4.722656 -22.878906 5.171875 -22.421875 C 5.628906 -21.972656 6.050781 -21.515625 6.4375 -21.046875 C 6.832031 -20.578125 7.238281 -20.039062 7.65625 -19.4375 L 5.921875 -18.125 C 5.578125 -18.625 5.28125 -19.039062 5.03125 -19.375 C 4.78125 -19.71875 4.535156 -20.039062 4.296875 -20.34375 C 4.054688 -20.644531 3.773438 -20.972656 3.453125 -21.328125 C 3.128906 -21.691406 2.71875 -22.144531 2.21875 -22.6875 Z M 2.21875 -22.6875 "/></g></g></g></g><g fill="#000000" fill-opacity="1"><g transform="translate(-0.0405887, 179.978031)"><g><path d="M 4.75 -19.734375 L 6.875 -19.46875 C 7.320312 -19.40625 7.546875 -19.234375 7.546875 -18.953125 C 7.546875 -18.835938 7.5 -18.738281 7.40625 -18.65625 C 7.3125 -18.570312 7.125 -18.484375 6.84375 -18.390625 C 6.789062 -17.828125 6.742188 -17.296875 6.703125 -16.796875 C 6.660156 -16.296875 6.628906 -15.734375 6.609375 -15.109375 C 6.585938 -14.492188 6.578125 -13.710938 6.578125 -12.765625 C 6.578125 -9.585938 7.148438 -7.101562 8.296875 -5.3125 C 8.648438 -4.757812 9.015625 -4.320312 9.390625 -4 C 9.765625 -3.675781 10.097656 -3.515625 10.390625 -3.515625 C 10.734375 -3.515625 11.046875 -3.753906 11.328125 -4.234375 C 11.523438 -4.597656 11.753906 -5.164062 12.015625 -5.9375 C 12.273438 -6.707031 12.476562 -7.429688 12.625 -8.109375 C 12.90625 -7.910156 13.113281 -7.753906 13.25 -7.640625 C 13.394531 -7.535156 13.539062 -7.4375 13.6875 -7.34375 C 13.832031 -7.257812 14.046875 -7.113281 14.328125 -6.90625 C 13.847656 -4.882812 13.3125 -3.429688 12.71875 -2.546875 C 12.132812 -1.671875 11.378906 -1.234375 10.453125 -1.234375 C 9.773438 -1.234375 9.078125 -1.503906 8.359375 -2.046875 C 7.648438 -2.585938 7.007812 -3.347656 6.4375 -4.328125 C 5.75 -5.429688 5.257812 -6.660156 4.96875 -8.015625 C 4.675781 -9.378906 4.53125 -11.066406 4.53125 -13.078125 C 4.53125 -13.609375 4.539062 -14.171875 4.5625 -14.765625 C 4.582031 -15.359375 4.601562 -16.015625 4.625 -16.734375 C 4.6875 -17.515625 4.71875 -18.003906 4.71875 -18.203125 C 4.757812 -18.703125 4.78125 -19.03125 4.78125 -19.1875 C 4.78125 -19.351562 4.769531 -19.535156 4.75 -19.734375 Z M 19.5625 -16.5625 L 20.96875 -17.84375 C 22.132812 -16.707031 23.109375 -15.628906 23.890625 -14.609375 C 24.671875 -13.585938 25.335938 -12.503906 25.890625 -11.359375 C 26.453125 -10.210938 26.96875 -8.898438 27.4375 -7.421875 L 25.265625 -6.4375 C 24.722656 -8.5 24.003906 -10.320312 23.109375 -11.90625 C 22.222656 -13.5 21.039062 -15.050781 19.5625 -16.5625 Z M 19.5625 -16.5625 "/></g></g></g><g clip-path="url(#29861adea7)"><g fill="#000000" fill-opacity="1"><g transform="translate(-0.0405887, 210.258276)"><g><path d="M 14.296875 -17.09375 L 14.6875 -17.609375 L 16.1875 -16.3125 C 16.351562 -16.175781 16.4375 -16.035156 16.4375 -15.890625 C 16.4375 -15.710938 16.265625 -15.570312 15.921875 -15.46875 L 15.78125 -15.421875 C 15.257812 -13.316406 14.675781 -11.492188 14.03125 -9.953125 C 13.394531 -8.421875 12.613281 -6.988281 11.6875 -5.65625 C 10.96875 -4.613281 10.179688 -3.644531 9.328125 -2.75 C 8.472656 -1.851562 7.484375 -0.988281 6.359375 -0.15625 C 5.242188 0.664062 3.925781 1.53125 2.40625 2.4375 C 2.28125 2.238281 2.179688 2.082031 2.109375 1.96875 C 2.046875 1.851562 1.953125 1.726562 1.828125 1.59375 C 1.648438 1.394531 1.53125 1.253906 1.46875 1.171875 C 1.40625 1.085938 1.316406 0.96875 1.203125 0.8125 C 2.703125 -0.0703125 3.976562 -0.90625 5.03125 -1.6875 C 6.082031 -2.46875 7.003906 -3.257812 7.796875 -4.0625 C 8.585938 -4.875 9.320312 -5.785156 10 -6.796875 C 8.625 -8.253906 7.144531 -9.613281 5.5625 -10.875 C 5.101562 -10.070312 4.597656 -9.304688 4.046875 -8.578125 C 3.492188 -7.847656 2.804688 -7.050781 1.984375 -6.1875 C 1.859375 -6.382812 1.691406 -6.625 1.484375 -6.90625 C 1.273438 -7.1875 1.03125 -7.519531 0.75 -7.90625 C 1.425781 -8.664062 2.015625 -9.378906 2.515625 -10.046875 C 3.023438 -10.722656 3.476562 -11.40625 3.875 -12.09375 C 4.28125 -12.78125 4.660156 -13.546875 5.015625 -14.390625 C 5.535156 -15.578125 5.972656 -16.742188 6.328125 -17.890625 C 6.691406 -19.046875 6.992188 -20.265625 7.234375 -21.546875 L 4.5 -21.546875 C 4.0625 -21.546875 3.5625 -21.539062 3 -21.53125 C 2.4375 -21.519531 1.9375 -21.503906 1.5 -21.484375 L 1.5 -23.5 C 1.9375 -23.476562 2.4375 -23.460938 3 -23.453125 C 3.5625 -23.441406 4.0625 -23.4375 4.5 -23.4375 L 14.78125 -23.4375 C 15.238281 -23.4375 15.75 -23.441406 16.3125 -23.453125 C 16.875 -23.460938 17.363281 -23.476562 17.78125 -23.5 L 17.78125 -21.484375 C 17.363281 -21.503906 16.875 -21.519531 16.3125 -21.53125 C 15.75 -21.539062 15.238281 -21.546875 14.78125 -21.546875 L 9.28125 -21.546875 C 8.976562 -20.078125 8.617188 -18.59375 8.203125 -17.09375 Z M 6.671875 -13.046875 L 6.40625 -12.5 C 6.84375 -12.195312 7.273438 -11.898438 7.703125 -11.609375 C 8.140625 -11.316406 8.554688 -11.003906 8.953125 -10.671875 C 9.734375 -10.046875 10.460938 -9.375 11.140625 -8.65625 C 11.742188 -9.695312 12.234375 -10.773438 12.609375 -11.890625 C 12.992188 -13.015625 13.347656 -14.148438 13.671875 -15.296875 L 7.609375 -15.296875 C 7.347656 -14.578125 7.035156 -13.828125 6.671875 -13.046875 Z M 25.0625 -24.515625 L 27.34375 -24.3125 C 27.644531 -24.269531 27.796875 -24.164062 27.796875 -24 C 27.796875 -23.84375 27.613281 -23.65625 27.25 -23.4375 C 27.25 -23.175781 27.242188 -22.929688 27.234375 -22.703125 C 27.222656 -22.472656 27.21875 -22.128906 27.21875 -21.671875 C 27.21875 -21.222656 27.210938 -20.53125 27.203125 -19.59375 C 27.191406 -18.664062 27.1875 -17.363281 27.1875 -15.6875 L 27.1875 -8.296875 C 27.1875 -7.796875 27.191406 -7.210938 27.203125 -6.546875 C 27.210938 -5.890625 27.226562 -5.085938 27.25 -4.140625 C 27.269531 -3.203125 27.289062 -2.039062 27.3125 -0.65625 L 27.3125 -0.390625 C 27.3125 0.234375 27.234375 0.707031 27.078125 1.03125 C 26.929688 1.363281 26.679688 1.628906 26.328125 1.828125 C 26.066406 1.972656 25.796875 2.082031 25.515625 2.15625 C 25.234375 2.238281 24.859375 2.300781 24.390625 2.34375 C 23.929688 2.382812 23.28125 2.414062 22.4375 2.4375 C 22.40625 1.894531 22.347656 1.46875 22.265625 1.15625 C 22.179688 0.84375 22.039062 0.507812 21.84375 0.15625 C 22.300781 0.175781 22.6875 0.191406 23 0.203125 C 23.3125 0.222656 23.640625 0.234375 23.984375 0.234375 C 24.554688 0.234375 24.90625 0.164062 25.03125 0.03125 C 25.164062 -0.09375 25.234375 -0.429688 25.234375 -0.984375 L 25.234375 -15.6875 C 25.234375 -20.65625 25.175781 -23.597656 25.0625 -24.515625 Z M 19.171875 -21.9375 L 21.328125 -21.71875 C 21.671875 -21.675781 21.84375 -21.578125 21.84375 -21.421875 C 21.84375 -21.265625 21.648438 -21.066406 21.265625 -20.828125 C 21.265625 -20.703125 21.265625 -20.578125 21.265625 -20.453125 C 21.265625 -20.335938 21.265625 -20.15625 21.265625 -19.90625 C 21.265625 -19.65625 21.257812 -19.269531 21.25 -18.75 C 21.25 -18.226562 21.25 -17.5 21.25 -16.5625 L 21.25 -8.46875 C 21.25 -7.332031 21.253906 -6.300781 21.265625 -5.375 C 21.285156 -4.457031 21.304688 -3.726562 21.328125 -3.1875 L 19.203125 -3.1875 C 19.242188 -3.769531 19.269531 -4.488281 19.28125 -5.34375 C 19.289062 -6.207031 19.296875 -7.25 19.296875 -8.46875 L 19.296875 -16.5625 C 19.296875 -18.039062 19.285156 -19.191406 19.265625 -20.015625 C 19.242188 -20.847656 19.210938 -21.488281 19.171875 -21.9375 Z M 19.171875 -21.9375 "/></g></g></g></g><g fill="#000000" fill-opacity="1"><g transform="translate(-0.0405887, 242.241367)"><g><path d="M 14 -7.09375 L 7.546875 -7.09375 L 7.546875 -5.765625 L 5.5 -5.765625 C 5.539062 -6.128906 5.566406 -6.566406 5.578125 -7.078125 C 5.585938 -7.585938 5.59375 -8.222656 5.59375 -8.984375 L 5.59375 -14.78125 C 5.59375 -15.238281 5.585938 -15.726562 5.578125 -16.25 C 5.566406 -16.769531 5.550781 -17.160156 5.53125 -17.421875 C 6.050781 -17.398438 6.5625 -17.382812 7.0625 -17.375 C 7.5625 -17.363281 8.148438 -17.359375 8.828125 -17.359375 L 14 -17.359375 L 14 -19.765625 L 7.578125 -19.765625 C 7.054688 -19.765625 6.453125 -19.757812 5.765625 -19.75 C 5.085938 -19.738281 4.425781 -19.722656 3.78125 -19.703125 C 3.144531 -19.691406 2.613281 -19.675781 2.1875 -19.65625 L 2.1875 -21.71875 C 2.613281 -21.71875 3.144531 -21.707031 3.78125 -21.6875 C 4.425781 -21.664062 5.085938 -21.648438 5.765625 -21.640625 C 6.453125 -21.640625 7.054688 -21.640625 7.578125 -21.640625 L 13.96875 -21.640625 C 13.945312 -22.515625 13.925781 -23.242188 13.90625 -23.828125 C 13.882812 -24.410156 13.859375 -24.832031 13.828125 -25.09375 L 16.109375 -24.875 C 16.410156 -24.832031 16.5625 -24.734375 16.5625 -24.578125 C 16.5625 -24.421875 16.378906 -24.226562 16.015625 -24 C 16.015625 -23.800781 16.007812 -23.617188 16 -23.453125 C 15.988281 -23.285156 15.984375 -23.066406 15.984375 -22.796875 C 15.984375 -22.523438 15.984375 -22.140625 15.984375 -21.640625 L 22.390625 -21.640625 C 22.910156 -21.640625 23.503906 -21.640625 24.171875 -21.640625 C 24.835938 -21.648438 25.492188 -21.664062 26.140625 -21.6875 C 26.785156 -21.707031 27.335938 -21.726562 27.796875 -21.75 L 27.796875 -19.65625 C 27.335938 -19.675781 26.785156 -19.691406 26.140625 -19.703125 C 25.492188 -19.722656 24.835938 -19.738281 24.171875 -19.75 C 23.503906 -19.757812 22.910156 -19.765625 22.390625 -19.765625 L 15.984375 -19.765625 C 15.960938 -19.367188 15.953125 -18.96875 15.953125 -18.5625 C 15.953125 -18.164062 15.953125 -17.765625 15.953125 -17.359375 L 21.25 -17.359375 C 21.925781 -17.359375 22.515625 -17.363281 23.015625 -17.375 C 23.515625 -17.382812 24.023438 -17.398438 24.546875 -17.421875 C 24.523438 -17.160156 24.507812 -16.769531 24.5 -16.25 C 24.488281 -15.726562 24.484375 -15.238281 24.484375 -14.78125 L 24.484375 -9.375 C 24.484375 -7.988281 24.515625 -6.945312 24.578125 -6.25 L 22.53125 -6.25 L 22.53125 -7.09375 L 15.953125 -7.09375 L 15.953125 -4.484375 L 22.921875 -4.484375 C 23.523438 -4.484375 24.1875 -4.484375 24.90625 -4.484375 C 25.625 -4.492188 26.335938 -4.507812 27.046875 -4.53125 C 27.765625 -4.550781 28.382812 -4.570312 28.90625 -4.59375 L 28.90625 -2.5 C 28.382812 -2.519531 27.765625 -2.535156 27.046875 -2.546875 C 26.335938 -2.566406 25.625 -2.582031 24.90625 -2.59375 C 24.1875 -2.601562 23.523438 -2.609375 22.921875 -2.609375 L 15.984375 -2.609375 C 15.984375 -1.523438 16 -0.550781 16.03125 0.3125 C 16.0625 1.1875 16.085938 1.941406 16.109375 2.578125 L 13.875 2.578125 C 13.914062 1.941406 13.941406 1.1875 13.953125 0.3125 C 13.960938 -0.550781 13.976562 -1.523438 14 -2.609375 L 7.125 -2.609375 C 6.539062 -2.609375 5.882812 -2.601562 5.15625 -2.59375 C 4.425781 -2.582031 3.707031 -2.566406 3 -2.546875 C 2.300781 -2.535156 1.679688 -2.519531 1.140625 -2.5 L 1.140625 -4.59375 C 1.679688 -4.570312 2.300781 -4.550781 3 -4.53125 C 3.707031 -4.507812 4.425781 -4.492188 5.15625 -4.484375 C 5.882812 -4.484375 6.539062 -4.484375 7.125 -4.484375 L 14 -4.484375 Z M 14 -13.25 L 14 -15.5 L 7.546875 -15.5 L 7.546875 -13.25 Z M 15.953125 -13.25 L 22.53125 -13.25 L 22.53125 -15.5 L 15.953125 -15.5 Z M 14 -11.359375 L 7.546875 -11.359375 L 7.546875 -8.953125 L 14 -8.953125 Z M 15.953125 -11.359375 L 15.953125 -8.953125 L 22.53125 -8.953125 L 22.53125 -11.359375 Z M 15.953125 -11.359375 "/></g></g></g><g fill="#000000" fill-opacity="1"><g transform="translate(-0.0405887, 269.937329)"><g><path d="M 21.0625 -23.375 L 22.6875 -24.9375 C 23.53125 -24.15625 24.265625 -23.425781 24.890625 -22.75 C 25.523438 -22.082031 26.125 -21.394531 26.6875 -20.6875 C 27.257812 -19.976562 27.878906 -19.140625 28.546875 -18.171875 L 26.5625 -16.578125 C 24.84375 -19.285156 23.007812 -21.550781 21.0625 -23.375 Z M 21.0625 -23.375 "/></g></g></g></svg>