<svg xmlns="http://www.w3.org/2000/svg" xmlns:xlink="http://www.w3.org/1999/xlink" width="41" zoomAndPan="magnify" viewBox="0 0 30.75 202.499996" height="270" preserveAspectRatio="xMidYMid meet" version="1.2"><defs/><g id="40b97c009c"><g style="fill:#000000;fill-opacity:1;"><g transform="translate(-0.0296216, 30.351582)"><path style="stroke:none" d="M 24.53125 -8.140625 L 25.09375 -8.6875 L 26.65625 -7.15625 C 26.800781 -7.019531 26.875 -6.890625 26.875 -6.765625 C 26.875 -6.648438 26.804688 -6.554688 26.671875 -6.484375 C 26.546875 -6.410156 26.242188 -6.296875 25.765625 -6.140625 C 25.203125 -5.285156 24.601562 -4.484375 23.96875 -3.734375 C 23.34375 -2.984375 22.625 -2.285156 21.8125 -1.640625 C 21.882812 -1.628906 21.953125 -1.609375 22.015625 -1.578125 C 22.078125 -1.546875 22.144531 -1.507812 22.21875 -1.46875 C 22.800781 -1.207031 23.363281 -0.988281 23.90625 -0.8125 C 24.457031 -0.632812 25.128906 -0.445312 25.921875 -0.25 C 26.710938 -0.0625 27.738281 0.160156 29 0.421875 C 28.78125 0.640625 28.597656 0.863281 28.453125 1.09375 C 28.316406 1.320312 28.117188 1.707031 27.859375 2.25 C 26.578125 1.96875 25.492188 1.703125 24.609375 1.453125 C 23.722656 1.203125 22.941406 0.929688 22.265625 0.640625 C 21.597656 0.347656 20.9375 0.015625 20.28125 -0.359375 C 20.257812 -0.378906 20.226562 -0.398438 20.1875 -0.421875 C 20.144531 -0.441406 20.101562 -0.460938 20.0625 -0.484375 C 19.363281 -0.0546875 18.648438 0.320312 17.921875 0.65625 C 17.191406 1 16.394531 1.316406 15.53125 1.609375 C 14.664062 1.910156 13.648438 2.222656 12.484375 2.546875 C 12.410156 2.203125 12.3125 1.898438 12.1875 1.640625 C 12.070312 1.390625 11.914062 1.101562 11.71875 0.78125 C 13.289062 0.382812 14.601562 0.00390625 15.65625 -0.359375 C 16.71875 -0.734375 17.671875 -1.160156 18.515625 -1.640625 C 17.953125 -2.160156 17.441406 -2.710938 16.984375 -3.296875 C 16.523438 -3.890625 16.097656 -4.519531 15.703125 -5.1875 C 14.160156 -3.03125 12.148438 -1.082031 9.671875 0.65625 C 9.515625 0.351562 9.332031 0.0625 9.125 -0.21875 C 8.914062 -0.507812 8.726562 -0.726562 8.5625 -0.875 C 9.882812 -1.75 10.988281 -2.628906 11.875 -3.515625 C 12.757812 -4.410156 13.601562 -5.460938 14.40625 -6.671875 C 14.789062 -7.253906 15.128906 -7.820312 15.421875 -8.375 C 15.722656 -8.925781 15.992188 -9.476562 16.234375 -10.03125 L 15.75 -10.03125 C 15.25 -10.03125 14.640625 -10.023438 13.921875 -10.015625 C 13.203125 -10.003906 12.613281 -9.988281 12.15625 -9.96875 L 12.15625 -11.890625 C 12.613281 -11.867188 13.179688 -11.851562 13.859375 -11.84375 C 14.546875 -11.832031 15.175781 -11.828125 15.75 -11.828125 L 16.890625 -11.828125 C 17.015625 -12.265625 17.132812 -12.691406 17.25 -13.109375 C 17.375 -13.535156 17.472656 -13.96875 17.546875 -14.40625 L 15.484375 -14.40625 C 15.046875 -14.40625 14.539062 -14.40625 13.96875 -14.40625 C 13.40625 -14.40625 12.910156 -14.382812 12.484375 -14.34375 L 12.484375 -16.265625 C 12.910156 -16.242188 13.40625 -16.226562 13.96875 -16.21875 C 14.539062 -16.207031 15.046875 -16.203125 15.484375 -16.203125 L 22.4375 -16.203125 C 22.875 -16.859375 23.234375 -17.457031 23.515625 -18 C 23.796875 -18.539062 24.054688 -19.132812 24.296875 -19.78125 C 24.535156 -20.425781 24.796875 -21.210938 25.078125 -22.140625 L 27.203125 -21.296875 C 27.421875 -21.210938 27.53125 -21.113281 27.53125 -21 C 27.53125 -20.875 27.488281 -20.78125 27.40625 -20.71875 C 27.320312 -20.664062 27.132812 -20.578125 26.84375 -20.453125 C 26.457031 -19.617188 26.070312 -18.875 25.6875 -18.21875 C 25.3125 -17.570312 24.882812 -16.898438 24.40625 -16.203125 L 24.796875 -16.203125 C 25.234375 -16.203125 25.734375 -16.207031 26.296875 -16.21875 C 26.859375 -16.226562 27.359375 -16.242188 27.796875 -16.265625 L 27.796875 -14.34375 C 27.359375 -14.382812 26.859375 -14.40625 26.296875 -14.40625 C 25.734375 -14.40625 25.234375 -14.40625 24.796875 -14.40625 L 19.5 -14.40625 C 19.414062 -13.96875 19.3125 -13.535156 19.1875 -13.109375 C 19.070312 -12.691406 18.96875 -12.265625 18.875 -11.828125 L 25.25 -11.828125 C 25.832031 -11.828125 26.46875 -11.832031 27.15625 -11.84375 C 27.84375 -11.851562 28.40625 -11.867188 28.84375 -11.890625 L 28.84375 -9.96875 C 28.382812 -9.988281 27.796875 -10.003906 27.078125 -10.015625 C 26.359375 -10.023438 25.75 -10.03125 25.25 -10.03125 L 18.265625 -10.03125 C 18.023438 -9.414062 17.757812 -8.785156 17.46875 -8.140625 Z M 23.6875 -6.4375 L 16.71875 -6.4375 C 17.175781 -5.71875 17.679688 -5.035156 18.234375 -4.390625 C 18.796875 -3.742188 19.425781 -3.171875 20.125 -2.671875 C 21.539062 -3.722656 22.726562 -4.976562 23.6875 -6.4375 Z M 1.703125 -10.390625 L 1.078125 -12.40625 C 1.421875 -12.40625 1.753906 -12.410156 2.078125 -12.421875 C 2.410156 -12.429688 2.726562 -12.441406 3.03125 -12.453125 C 3.40625 -12.972656 3.773438 -13.488281 4.140625 -14 C 4.515625 -14.507812 4.863281 -15.023438 5.1875 -15.546875 C 4.46875 -16.242188 3.765625 -16.875 3.078125 -17.4375 C 2.398438 -18.007812 1.742188 -18.515625 1.109375 -18.953125 L 2.125 -20.375 C 2.300781 -20.25 2.46875 -20.128906 2.625 -20.015625 C 2.789062 -19.910156 2.941406 -19.804688 3.078125 -19.703125 C 3.597656 -20.609375 4.082031 -21.554688 4.53125 -22.546875 C 4.988281 -23.546875 5.328125 -24.378906 5.546875 -25.046875 L 7.484375 -24.171875 C 7.671875 -24.085938 7.765625 -23.988281 7.765625 -23.875 C 7.765625 -23.675781 7.5625 -23.535156 7.15625 -23.453125 C 7.019531 -23.148438 6.722656 -22.609375 6.265625 -21.828125 C 5.804688 -21.054688 5.195312 -20.019531 4.4375 -18.71875 C 4.75 -18.5 5.050781 -18.269531 5.34375 -18.03125 C 5.632812 -17.789062 5.929688 -17.539062 6.234375 -17.28125 C 6.273438 -17.363281 6.3125 -17.4375 6.34375 -17.5 C 6.382812 -17.570312 6.425781 -17.648438 6.46875 -17.734375 C 6.988281 -18.671875 7.382812 -19.421875 7.65625 -19.984375 C 7.925781 -20.554688 8.171875 -21.144531 8.390625 -21.75 L 10.390625 -20.75 C 10.585938 -20.675781 10.6875 -20.578125 10.6875 -20.453125 C 10.6875 -20.296875 10.5 -20.15625 10.125 -20.03125 C 9.507812 -18.976562 8.984375 -18.097656 8.546875 -17.390625 C 8.117188 -16.679688 7.734375 -16.0625 7.390625 -15.53125 C 7.054688 -15 6.71875 -14.503906 6.375 -14.046875 C 6.039062 -13.585938 5.65625 -13.085938 5.21875 -12.546875 C 5.832031 -12.585938 6.441406 -12.632812 7.046875 -12.6875 C 7.660156 -12.738281 8.273438 -12.800781 8.890625 -12.875 C 8.773438 -13.15625 8.648438 -13.429688 8.515625 -13.703125 C 8.390625 -13.972656 8.25 -14.257812 8.09375 -14.5625 L 9.5625 -15.421875 C 10.019531 -14.722656 10.429688 -14.007812 10.796875 -13.28125 C 11.171875 -12.550781 11.523438 -11.695312 11.859375 -10.71875 L 10 -9.796875 L 9.46875 -11.40625 C 9.125 -11.375 8.78125 -11.328125 8.4375 -11.265625 C 8.101562 -11.203125 7.765625 -11.148438 7.421875 -11.109375 L 7.421875 -3.71875 C 7.421875 -0.9375 7.453125 1.109375 7.515625 2.421875 L 5.390625 2.421875 C 5.453125 1.109375 5.484375 -0.9375 5.484375 -3.71875 L 5.484375 -10.8125 C 5.003906 -10.75 4.523438 -10.679688 4.046875 -10.609375 C 3.566406 -10.546875 3.097656 -10.484375 2.640625 -10.421875 C 2.441406 -10.140625 2.257812 -10 2.09375 -10 C 1.9375 -10 1.804688 -10.128906 1.703125 -10.390625 Z M 8.171875 -8.328125 L 9.703125 -9.140625 C 10.023438 -8.640625 10.285156 -8.210938 10.484375 -7.859375 C 10.679688 -7.515625 10.851562 -7.175781 11 -6.84375 C 11.15625 -6.507812 11.3125 -6.140625 11.46875 -5.734375 C 11.632812 -5.328125 11.816406 -4.8125 12.015625 -4.1875 L 10.125 -3.421875 C 9.882812 -4.253906 9.671875 -4.953125 9.484375 -5.515625 C 9.296875 -6.085938 9.097656 -6.585938 8.890625 -7.015625 C 8.691406 -7.453125 8.453125 -7.890625 8.171875 -8.328125 Z M 26.71875 -23.15625 L 26.234375 -23.15625 C 25.078125 -22.894531 23.992188 -22.660156 22.984375 -22.453125 C 21.972656 -22.242188 20.953125 -22.054688 19.921875 -21.890625 C 18.898438 -21.734375 17.78125 -21.570312 16.5625 -21.40625 C 15.34375 -21.25 13.9375 -21.082031 12.34375 -20.90625 C 12.21875 -21.28125 12.097656 -21.59375 11.984375 -21.84375 C 11.878906 -22.09375 11.75 -22.367188 11.59375 -22.671875 C 13.445312 -22.835938 15.113281 -23.015625 16.59375 -23.203125 C 18.070312 -23.390625 19.523438 -23.628906 20.953125 -23.921875 C 22.378906 -24.210938 23.929688 -24.578125 25.609375 -25.015625 L 27.015625 -23.78125 C 27.140625 -23.695312 27.203125 -23.597656 27.203125 -23.484375 C 27.203125 -23.265625 27.039062 -23.15625 26.71875 -23.15625 Z M 2.34375 -8.5625 L 4.1875 -8.140625 C 4.40625 -8.085938 4.515625 -7.988281 4.515625 -7.84375 C 4.515625 -7.707031 4.46875 -7.609375 4.375 -7.546875 L 4.140625 -7.40625 C 4.054688 -6.257812 3.945312 -5.25 3.8125 -4.375 C 3.6875 -3.507812 3.523438 -2.710938 3.328125 -1.984375 C 3.128906 -1.265625 2.867188 -0.523438 2.546875 0.234375 C 1.984375 -0.140625 1.363281 -0.445312 0.6875 -0.6875 C 1.101562 -1.5625 1.429688 -2.390625 1.671875 -3.171875 C 1.910156 -3.953125 2.082031 -4.757812 2.1875 -5.59375 C 2.289062 -6.4375 2.34375 -7.378906 2.34375 -8.421875 Z M 13.296875 -20.34375 L 14.859375 -21.140625 C 15.253906 -20.640625 15.628906 -20.078125 15.984375 -19.453125 C 16.347656 -18.828125 16.722656 -18.082031 17.109375 -17.21875 L 15.25 -16.328125 C 14.882812 -17.203125 14.5625 -17.921875 14.28125 -18.484375 C 14.007812 -19.054688 13.679688 -19.675781 13.296875 -20.34375 Z M 18.09375 -20.90625 L 19.703125 -21.6875 C 20.441406 -20.6875 21.171875 -19.328125 21.890625 -17.609375 L 19.984375 -16.796875 C 19.765625 -17.484375 19.507812 -18.140625 19.21875 -18.765625 C 18.925781 -19.390625 18.550781 -20.101562 18.09375 -20.90625 Z M 18.09375 -20.90625 "/></g></g><g style="fill:#000000;fill-opacity:1;"><g transform="translate(-0.0296216, 60.33157)"><path style="stroke:none" d="M 17.375 -19.203125 L 15.875 -17.765625 C 15.175781 -18.222656 14.453125 -18.550781 13.703125 -18.75 C 12.953125 -18.945312 12.078125 -19.046875 11.078125 -19.046875 C 9.703125 -19.046875 9.015625 -18.554688 9.015625 -17.578125 C 9.015625 -17.242188 9.101562 -16.851562 9.28125 -16.40625 C 9.46875 -15.96875 9.78125 -15.351562 10.21875 -14.5625 C 10.351562 -14.613281 10.695312 -14.757812 11.25 -15 C 11.8125 -15.238281 12.601562 -15.570312 13.625 -16 C 14.925781 -16.53125 16.015625 -16.972656 16.890625 -17.328125 C 17.773438 -17.679688 18.539062 -17.945312 19.1875 -18.125 C 19.832031 -18.300781 20.429688 -18.421875 20.984375 -18.484375 C 21.546875 -18.554688 22.148438 -18.59375 22.796875 -18.59375 C 24.234375 -18.59375 25.378906 -18.210938 26.234375 -17.453125 C 27.097656 -16.703125 27.53125 -15.6875 27.53125 -14.40625 C 27.53125 -12.664062 26.738281 -11.320312 25.15625 -10.375 C 23.582031 -9.425781 21.359375 -8.953125 18.484375 -8.953125 C 18.097656 -8.953125 17.734375 -8.960938 17.390625 -8.984375 C 17.054688 -9.003906 16.601562 -9.046875 16.03125 -9.109375 C 16.050781 -9.222656 16.0625 -9.316406 16.0625 -9.390625 C 16.0625 -9.460938 16.0625 -9.535156 16.0625 -9.609375 C 16.0625 -9.929688 16.050781 -10.203125 16.03125 -10.421875 C 16.007812 -10.640625 15.957031 -10.910156 15.875 -11.234375 C 16.570312 -11.148438 17.132812 -11.085938 17.5625 -11.046875 C 18 -11.015625 18.523438 -11 19.140625 -11 C 21.210938 -11 22.785156 -11.296875 23.859375 -11.890625 C 24.941406 -12.492188 25.484375 -13.375 25.484375 -14.53125 C 25.484375 -15.320312 25.226562 -15.894531 24.71875 -16.25 C 24.21875 -16.613281 23.4375 -16.796875 22.375 -16.796875 C 21.851562 -16.796875 21.347656 -16.757812 20.859375 -16.6875 C 20.367188 -16.625 19.816406 -16.503906 19.203125 -16.328125 C 18.597656 -16.148438 17.863281 -15.894531 17 -15.5625 C 16.144531 -15.226562 15.082031 -14.789062 13.8125 -14.25 C 13.332031 -14.050781 12.910156 -13.867188 12.546875 -13.703125 C 12.191406 -13.535156 11.691406 -13.300781 11.046875 -13 C 11.523438 -12.082031 12.269531 -10.457031 13.28125 -8.125 C 14.289062 -5.800781 15.554688 -2.789062 17.078125 0.90625 L 14.921875 1.734375 C 13.878906 -1.234375 12.90625 -3.835938 12 -6.078125 C 11.101562 -8.316406 10.1875 -10.332031 9.25 -12.125 L 6.3125 -10.6875 C 6 -10.53125 5.75 -10.40625 5.5625 -10.3125 C 5.382812 -10.226562 5.203125 -10.140625 5.015625 -10.046875 C 4.828125 -9.960938 4.523438 -9.816406 4.109375 -9.609375 C 3.867188 -9.492188 3.675781 -9.398438 3.53125 -9.328125 C 3.394531 -9.253906 3.132812 -9.117188 2.75 -8.921875 L 1.703125 -11.234375 C 2.140625 -11.390625 2.535156 -11.523438 2.890625 -11.640625 C 3.242188 -11.765625 3.519531 -11.867188 3.71875 -11.953125 C 4.21875 -12.128906 4.613281 -12.269531 4.90625 -12.375 C 5.207031 -12.488281 5.5 -12.597656 5.78125 -12.703125 C 6.0625 -12.816406 6.394531 -12.953125 6.78125 -13.109375 C 7.175781 -13.273438 7.710938 -13.5 8.390625 -13.78125 C 8.347656 -13.894531 8.300781 -14 8.25 -14.09375 C 8.195312 -14.195312 8.097656 -14.398438 7.953125 -14.703125 C 7.804688 -15.003906 7.550781 -15.492188 7.1875 -16.171875 C 6.945312 -16.648438 6.828125 -17.179688 6.828125 -17.765625 C 6.828125 -18.660156 7.175781 -19.367188 7.875 -19.890625 C 8.570312 -20.410156 9.53125 -20.671875 10.75 -20.671875 C 11.226562 -20.671875 11.757812 -20.628906 12.34375 -20.546875 C 12.9375 -20.460938 13.4375 -20.351562 13.84375 -20.21875 C 14.0625 -20.15625 14.222656 -20.109375 14.328125 -20.078125 C 14.441406 -20.046875 14.535156 -20.03125 14.609375 -20.03125 C 13.929688 -20.988281 13.59375 -21.988281 13.59375 -23.03125 C 13.59375 -23.195312 13.601562 -23.382812 13.625 -23.59375 C 13.644531 -23.800781 13.675781 -24.035156 13.71875 -24.296875 L 15.484375 -24.109375 C 15.460938 -23.953125 15.445312 -23.789062 15.4375 -23.625 C 15.425781 -23.46875 15.421875 -23.351562 15.421875 -23.28125 C 15.421875 -22.894531 15.46875 -22.53125 15.5625 -22.1875 C 15.664062 -21.851562 15.863281 -21.457031 16.15625 -21 C 16.445312 -20.539062 16.851562 -19.941406 17.375 -19.203125 Z M 17.375 -19.203125 "/></g></g><g style="fill:#000000;fill-opacity:1;"><g transform="translate(-0.0296216, 90.13053)"><path style="stroke:none" d="M 12.3125 -16.390625 L 13.03125 -16.46875 C 13.363281 -16.507812 13.707031 -16.554688 14.0625 -16.609375 C 14.414062 -16.660156 14.789062 -16.6875 15.1875 -16.6875 C 16.125 -16.6875 16.972656 -16.304688 17.734375 -15.546875 C 18.066406 -15.179688 18.304688 -14.8125 18.453125 -14.4375 C 18.609375 -14.0625 18.6875 -13.601562 18.6875 -13.0625 C 18.6875 -12.039062 18.609375 -10.9375 18.453125 -9.75 C 18.296875 -8.5625 18.078125 -7.394531 17.796875 -6.25 C 17.515625 -5.113281 17.179688 -4.097656 16.796875 -3.203125 C 16.359375 -2.148438 15.789062 -1.378906 15.09375 -0.890625 C 14.394531 -0.398438 13.515625 -0.15625 12.453125 -0.15625 C 11.960938 -0.15625 11.488281 -0.1875 11.03125 -0.25 C 10.582031 -0.320312 10.050781 -0.457031 9.4375 -0.65625 C 9.476562 -0.894531 9.503906 -1.078125 9.515625 -1.203125 C 9.523438 -1.335938 9.535156 -1.507812 9.546875 -1.71875 C 9.554688 -1.925781 9.566406 -2.253906 9.578125 -2.703125 C 10.222656 -2.535156 10.765625 -2.410156 11.203125 -2.328125 C 11.640625 -2.253906 12.050781 -2.21875 12.4375 -2.21875 C 13.1875 -2.21875 13.769531 -2.4375 14.1875 -2.875 C 14.613281 -3.3125 15.015625 -4.109375 15.390625 -5.265625 C 15.628906 -6.046875 15.84375 -6.882812 16.03125 -7.78125 C 16.226562 -8.6875 16.382812 -9.570312 16.5 -10.4375 C 16.625 -11.300781 16.6875 -12.046875 16.6875 -12.671875 C 16.6875 -13.367188 16.507812 -13.925781 16.15625 -14.34375 C 15.8125 -14.769531 15.347656 -14.984375 14.765625 -14.984375 C 14.585938 -14.984375 14.394531 -14.976562 14.1875 -14.96875 C 13.988281 -14.957031 13.707031 -14.921875 13.34375 -14.859375 C 12.976562 -14.796875 12.441406 -14.707031 11.734375 -14.59375 C 11.097656 -12.613281 10.441406 -10.796875 9.765625 -9.140625 C 9.085938 -7.492188 8.328125 -5.90625 7.484375 -4.375 C 6.648438 -2.851562 5.679688 -1.265625 4.578125 0.390625 C 4.316406 0.046875 4.050781 -0.21875 3.78125 -0.40625 C 3.519531 -0.59375 3.164062 -0.785156 2.71875 -0.984375 C 3.519531 -2.023438 4.222656 -3.015625 4.828125 -3.953125 C 5.441406 -4.890625 6.015625 -5.859375 6.546875 -6.859375 C 7.078125 -7.859375 7.585938 -8.953125 8.078125 -10.140625 C 8.566406 -11.328125 9.085938 -12.691406 9.640625 -14.234375 C 8.328125 -13.992188 7.148438 -13.78125 6.109375 -13.59375 C 5.066406 -13.414062 4.171875 -13.25 3.421875 -13.09375 L 3 -15.28125 C 3.519531 -15.320312 4 -15.351562 4.4375 -15.375 C 4.875 -15.40625 5.347656 -15.453125 5.859375 -15.515625 C 6.367188 -15.578125 6.972656 -15.648438 7.671875 -15.734375 C 8.367188 -15.828125 9.226562 -15.941406 10.25 -16.078125 C 10.507812 -16.898438 10.753906 -17.742188 10.984375 -18.609375 C 11.210938 -19.484375 11.414062 -20.304688 11.59375 -21.078125 C 11.769531 -21.859375 11.890625 -22.5 11.953125 -23 L 14.046875 -22.46875 C 14.347656 -22.40625 14.5 -22.273438 14.5 -22.078125 C 14.5 -21.859375 14.269531 -21.664062 13.8125 -21.5 C 13.6875 -21.019531 13.578125 -20.613281 13.484375 -20.28125 C 13.398438 -19.957031 13.3125 -19.632812 13.21875 -19.3125 C 13.132812 -19 13.019531 -18.617188 12.875 -18.171875 C 12.738281 -17.722656 12.550781 -17.128906 12.3125 -16.390625 Z M 19.984375 -15.875 L 21.09375 -17.375 C 22.289062 -16.613281 23.332031 -15.851562 24.21875 -15.09375 C 25.101562 -14.332031 25.925781 -13.507812 26.6875 -12.625 C 27.445312 -11.738281 28.207031 -10.695312 28.96875 -9.5 L 27.140625 -8.03125 C 25.378906 -11.21875 22.992188 -13.832031 19.984375 -15.875 Z M 19.984375 -15.875 "/></g></g><g style="fill:#000000;fill-opacity:1;"><g transform="translate(-0.0296216, 120.234296)"><path style="stroke:none" d="M 19.296875 -13.53125 L 20.421875 -12.375 C 20.003906 -12.007812 19.726562 -11.6875 19.59375 -11.40625 C 19.46875 -11.132812 19.40625 -10.738281 19.40625 -10.21875 C 19.40625 -9.851562 19.425781 -9.484375 19.46875 -9.109375 C 19.507812 -8.742188 19.578125 -8.210938 19.671875 -7.515625 C 19.734375 -7.097656 19.78125 -6.785156 19.8125 -6.578125 C 19.84375 -6.367188 19.878906 -6.035156 19.921875 -5.578125 C 19.941406 -5.390625 19.957031 -5.269531 19.96875 -5.21875 C 19.976562 -5.175781 19.992188 -5.070312 20.015625 -4.90625 C 20.867188 -4.550781 21.625 -4.203125 22.28125 -3.859375 C 22.945312 -3.523438 23.601562 -3.15625 24.25 -2.75 C 24.894531 -2.351562 25.609375 -1.875 26.390625 -1.3125 C 26.023438 -1.050781 25.742188 -0.8125 25.546875 -0.59375 C 25.347656 -0.375 25.128906 -0.0351562 24.890625 0.421875 C 24.234375 -0.140625 23.644531 -0.613281 23.125 -1 C 22.601562 -1.394531 22.097656 -1.742188 21.609375 -2.046875 C 21.117188 -2.359375 20.585938 -2.664062 20.015625 -2.96875 C 19.972656 -2.289062 19.90625 -1.765625 19.8125 -1.390625 C 19.71875 -1.023438 19.582031 -0.691406 19.40625 -0.390625 C 18.613281 0.867188 17.128906 1.5 14.953125 1.5 C 13.429688 1.5 12.226562 1.164062 11.34375 0.5 C 10.46875 -0.15625 10.03125 -1.0625 10.03125 -2.21875 C 10.03125 -3.332031 10.460938 -4.25 11.328125 -4.96875 C 12.203125 -5.6875 13.304688 -6.046875 14.640625 -6.046875 C 15.203125 -6.046875 15.75 -6.007812 16.28125 -5.9375 C 16.8125 -5.875 17.382812 -5.757812 18 -5.59375 C 17.882812 -6.59375 17.78125 -7.546875 17.6875 -8.453125 C 17.59375 -9.367188 17.546875 -9.992188 17.546875 -10.328125 C 17.546875 -11.046875 17.679688 -11.644531 17.953125 -12.125 C 18.222656 -12.601562 18.671875 -13.070312 19.296875 -13.53125 Z M 18.09375 -3.78125 C 17.550781 -3.976562 16.984375 -4.128906 16.390625 -4.234375 C 15.804688 -4.347656 15.222656 -4.40625 14.640625 -4.40625 C 13.847656 -4.40625 13.191406 -4.207031 12.671875 -3.8125 C 12.148438 -3.425781 11.890625 -2.925781 11.890625 -2.3125 C 11.890625 -1.6875 12.160156 -1.191406 12.703125 -0.828125 C 13.253906 -0.472656 14.015625 -0.296875 14.984375 -0.296875 C 16.378906 -0.296875 17.296875 -0.6875 17.734375 -1.46875 C 17.890625 -1.769531 18 -2.238281 18.0625 -2.875 C 18.082031 -3.03125 18.09375 -3.179688 18.09375 -3.328125 C 18.09375 -3.484375 18.09375 -3.632812 18.09375 -3.78125 Z M 11.953125 -24.296875 L 13.984375 -23.609375 C 14.242188 -23.503906 14.375 -23.382812 14.375 -23.25 C 14.375 -23.039062 14.175781 -22.847656 13.78125 -22.671875 L 12.4375 -18.90625 C 13.164062 -19.0625 13.851562 -19.25 14.5 -19.46875 C 15.15625 -19.6875 15.765625 -19.925781 16.328125 -20.1875 L 17.140625 -18.453125 C 16.191406 -18.066406 15.296875 -17.757812 14.453125 -17.53125 C 13.617188 -17.300781 12.707031 -17.109375 11.71875 -16.953125 C 11.09375 -15.210938 10.257812 -13.207031 9.21875 -10.9375 C 8.96875 -10.351562 8.738281 -9.859375 8.53125 -9.453125 C 8.332031 -9.046875 8.140625 -8.660156 7.953125 -8.296875 C 7.765625 -7.941406 7.550781 -7.546875 7.3125 -7.109375 C 7.070312 -6.679688 6.765625 -6.160156 6.390625 -5.546875 C 6.023438 -4.941406 5.5625 -4.179688 5 -3.265625 C 4.675781 -3.566406 4.398438 -3.796875 4.171875 -3.953125 C 3.941406 -4.109375 3.609375 -4.28125 3.171875 -4.46875 C 4.453125 -6.238281 5.625 -8.128906 6.6875 -10.140625 C 7.757812 -12.148438 8.753906 -14.34375 9.671875 -16.71875 C 9.191406 -16.695312 8.804688 -16.675781 8.515625 -16.65625 C 8.234375 -16.632812 7.972656 -16.617188 7.734375 -16.609375 C 7.492188 -16.597656 7.203125 -16.59375 6.859375 -16.59375 C 6.441406 -16.59375 6.0625 -16.601562 5.71875 -16.625 C 5.382812 -16.644531 4.925781 -16.664062 4.34375 -16.6875 L 4.25 -18.65625 C 4.894531 -18.582031 5.46875 -18.53125 5.96875 -18.5 C 6.476562 -18.46875 7.046875 -18.453125 7.671875 -18.453125 C 8.128906 -18.453125 8.535156 -18.460938 8.890625 -18.484375 C 9.253906 -18.503906 9.742188 -18.539062 10.359375 -18.59375 C 10.816406 -19.875 11.179688 -21.003906 11.453125 -21.984375 C 11.722656 -22.960938 11.890625 -23.734375 11.953125 -24.296875 Z M 18.78125 -15.578125 L 19.296875 -17.28125 C 20.804688 -17.019531 22.113281 -16.679688 23.21875 -16.265625 C 24.332031 -15.847656 25.4375 -15.289062 26.53125 -14.59375 L 25.546875 -12.84375 C 24.453125 -13.582031 23.375 -14.171875 22.3125 -14.609375 C 21.257812 -15.054688 20.082031 -15.378906 18.78125 -15.578125 Z M 18.78125 -15.578125 "/></g></g><g style="fill:#000000;fill-opacity:1;"><g transform="translate(-0.0296216, 150.637581)"><path style="stroke:none" d="M 25.765625 -19.59375 L 17.375 -19.59375 C 17.007812 -18.832031 16.628906 -18.085938 16.234375 -17.359375 C 15.835938 -16.628906 15.410156 -15.90625 14.953125 -15.1875 C 16.367188 -15.269531 17.78125 -15.375 19.1875 -15.5 C 20.59375 -15.632812 21.992188 -15.789062 23.390625 -15.96875 C 22.910156 -16.507812 22.242188 -17.175781 21.390625 -17.96875 L 22.609375 -19.171875 C 23.472656 -18.472656 24.179688 -17.851562 24.734375 -17.3125 C 25.296875 -16.769531 25.796875 -16.222656 26.234375 -15.671875 C 26.671875 -15.128906 27.140625 -14.46875 27.640625 -13.6875 L 25.84375 -12.4375 C 25.34375 -13.289062 24.894531 -14 24.5 -14.5625 C 23.625 -14.414062 22.847656 -14.296875 22.171875 -14.203125 C 21.503906 -14.117188 20.8125 -14.03125 20.09375 -13.9375 C 19.375 -13.851562 18.476562 -13.75 17.40625 -13.625 C 14.582031 -13.320312 12.425781 -13.082031 10.9375 -12.90625 C 10.695312 -12.59375 10.515625 -12.4375 10.390625 -12.4375 C 10.210938 -12.4375 10.0625 -12.582031 9.9375 -12.875 L 9.28125 -14.890625 C 9.925781 -14.929688 10.539062 -14.960938 11.125 -14.984375 C 11.71875 -15.015625 12.28125 -15.039062 12.8125 -15.0625 C 13.28125 -15.78125 13.703125 -16.519531 14.078125 -17.28125 C 14.453125 -18.039062 14.800781 -18.8125 15.125 -19.59375 L 11.65625 -19.59375 C 11.21875 -19.59375 10.710938 -19.585938 10.140625 -19.578125 C 9.566406 -19.566406 9.070312 -19.550781 8.65625 -19.53125 L 8.65625 -21.5 C 9.070312 -21.476562 9.566406 -21.460938 10.140625 -21.453125 C 10.710938 -21.453125 11.21875 -21.453125 11.65625 -21.453125 L 16.890625 -21.453125 L 16.890625 -23.359375 L 16.859375 -25.28125 L 18.953125 -25.078125 C 19.335938 -25.054688 19.53125 -24.953125 19.53125 -24.765625 C 19.53125 -24.585938 19.332031 -24.390625 18.9375 -24.171875 L 18.9375 -21.453125 L 25.765625 -21.453125 C 26.203125 -21.453125 26.695312 -21.453125 27.25 -21.453125 C 27.8125 -21.460938 28.300781 -21.476562 28.71875 -21.5 L 28.71875 -19.53125 C 28.300781 -19.550781 27.8125 -19.566406 27.25 -19.578125 C 26.695312 -19.585938 26.203125 -19.59375 25.765625 -19.59375 Z M 23.6875 -10.65625 L 23.6875 -0.921875 C 23.6875 -0.671875 23.757812 -0.503906 23.90625 -0.421875 C 24.0625 -0.335938 24.410156 -0.296875 24.953125 -0.296875 C 25.410156 -0.296875 25.765625 -0.316406 26.015625 -0.359375 C 26.265625 -0.398438 26.441406 -0.523438 26.546875 -0.734375 C 26.660156 -0.941406 26.734375 -1.28125 26.765625 -1.75 C 26.796875 -2.21875 26.820312 -2.882812 26.84375 -3.75 C 27.15625 -3.601562 27.445312 -3.476562 27.71875 -3.375 C 27.988281 -3.28125 28.375 -3.164062 28.875 -3.03125 C 28.8125 -1.988281 28.734375 -1.1875 28.640625 -0.625 C 28.554688 -0.0703125 28.429688 0.328125 28.265625 0.578125 C 28.109375 0.828125 27.882812 1.046875 27.59375 1.234375 C 27.351562 1.347656 27 1.429688 26.53125 1.484375 C 26.070312 1.535156 25.4375 1.5625 24.625 1.5625 C 23.519531 1.5625 22.773438 1.425781 22.390625 1.15625 C 22.003906 0.882812 21.8125 0.347656 21.8125 -0.453125 L 21.8125 -10.65625 C 21.8125 -11.039062 21.804688 -11.410156 21.796875 -11.765625 C 21.785156 -12.128906 21.769531 -12.410156 21.75 -12.609375 L 23.75 -12.40625 C 24.113281 -12.382812 24.296875 -12.28125 24.296875 -12.09375 C 24.296875 -11.914062 24.101562 -11.71875 23.71875 -11.5 C 23.695312 -11.164062 23.6875 -10.957031 23.6875 -10.875 C 23.6875 -10.789062 23.6875 -10.71875 23.6875 -10.65625 Z M 12.015625 -12.515625 L 14.234375 -12.28125 C 14.628906 -12.238281 14.828125 -12.117188 14.828125 -11.921875 C 14.828125 -11.742188 14.628906 -11.570312 14.234375 -11.40625 L 14.234375 -9.703125 C 14.210938 -7.910156 14.117188 -6.4375 13.953125 -5.28125 C 13.796875 -4.132812 13.519531 -3.175781 13.125 -2.40625 C 12.738281 -1.644531 12.195312 -0.921875 11.5 -0.234375 C 10.90625 0.335938 10.253906 0.820312 9.546875 1.21875 C 8.847656 1.625 7.921875 2.046875 6.765625 2.484375 C 6.628906 2.148438 6.515625 1.894531 6.421875 1.71875 C 6.335938 1.550781 6.242188 1.390625 6.140625 1.234375 C 6.035156 1.085938 5.882812 0.882812 5.6875 0.625 C 6.925781 0.1875 7.894531 -0.234375 8.59375 -0.640625 C 9.289062 -1.054688 9.867188 -1.539062 10.328125 -2.09375 C 10.828125 -2.695312 11.210938 -3.320312 11.484375 -3.96875 C 11.753906 -4.613281 11.941406 -5.398438 12.046875 -6.328125 C 12.160156 -7.265625 12.21875 -8.453125 12.21875 -9.890625 C 12.21875 -10.503906 12.203125 -10.988281 12.171875 -11.34375 C 12.140625 -11.707031 12.085938 -12.097656 12.015625 -12.515625 Z M 18.75 -11.375 L 18.71875 -8.5625 L 18.71875 -2.96875 C 18.71875 -1.988281 18.726562 -1.125 18.75 -0.375 C 18.769531 0.375 18.789062 0.96875 18.8125 1.40625 L 16.71875 1.40625 C 16.757812 0.882812 16.78125 0.257812 16.78125 -0.46875 C 16.78125 -1.195312 16.78125 -2.03125 16.78125 -2.96875 L 16.78125 -8.5625 C 16.78125 -10.40625 16.75 -11.710938 16.6875 -12.484375 L 18.8125 -12.28125 C 19.144531 -12.238281 19.3125 -12.140625 19.3125 -11.984375 C 19.3125 -11.835938 19.125 -11.632812 18.75 -11.375 Z M 2.578125 -23.21875 L 4.109375 -24.5 C 4.609375 -24.082031 5.039062 -23.691406 5.40625 -23.328125 C 5.769531 -22.972656 6.128906 -22.585938 6.484375 -22.171875 C 6.835938 -21.765625 7.234375 -21.285156 7.671875 -20.734375 L 5.875 -19.3125 C 5.488281 -19.894531 5.128906 -20.394531 4.796875 -20.8125 C 4.472656 -21.238281 4.140625 -21.632812 3.796875 -22 C 3.460938 -22.375 3.054688 -22.78125 2.578125 -23.21875 Z M 1.171875 -16.625 L 2.71875 -17.90625 C 3.539062 -17.207031 4.21875 -16.582031 4.75 -16.03125 C 5.28125 -15.488281 5.832031 -14.859375 6.40625 -14.140625 L 4.609375 -12.671875 C 4.148438 -13.285156 3.753906 -13.796875 3.421875 -14.203125 C 3.097656 -14.617188 2.765625 -15.007812 2.421875 -15.375 C 2.085938 -15.75 1.671875 -16.164062 1.171875 -16.625 Z M 6.40625 -11.328125 L 8.0625 -9.859375 C 7.632812 -8.710938 7.269531 -7.734375 6.96875 -6.921875 C 6.675781 -6.117188 6.394531 -5.390625 6.125 -4.734375 C 5.851562 -4.078125 5.578125 -3.414062 5.296875 -2.75 C 5.015625 -2.09375 4.6875 -1.347656 4.3125 -0.515625 C 4.09375 -0.046875 3.9375 0.300781 3.84375 0.53125 C 3.757812 0.757812 3.644531 1.039062 3.5 1.375 L 3.53125 1.671875 C 3.570312 1.910156 3.472656 2.03125 3.234375 2.03125 C 3.117188 2.03125 2.988281 1.960938 2.84375 1.828125 L 1.234375 0.328125 C 1.984375 -0.785156 2.800781 -2.34375 3.6875 -4.34375 C 4.582031 -6.34375 5.488281 -8.671875 6.40625 -11.328125 Z M 6.40625 -11.328125 "/></g></g><g style="fill:#000000;fill-opacity:1;"><g transform="translate(-0.0296216, 180.435212)"><path style="stroke:none" d="M 8.421875 -10.875 L 8.453125 -12.671875 C 8.472656 -13.191406 8.484375 -13.570312 8.484375 -13.8125 C 8.484375 -14.050781 8.484375 -14.269531 8.484375 -14.46875 C 8.398438 -14.445312 8.316406 -14.421875 8.234375 -14.390625 C 8.160156 -14.359375 7.992188 -14.300781 7.734375 -14.21875 C 7.472656 -14.144531 7.03125 -14.007812 6.40625 -13.8125 C 5.945312 -13.664062 5.523438 -13.519531 5.140625 -13.375 C 4.765625 -13.226562 4.289062 -13.035156 3.71875 -12.796875 L 3.0625 -14.984375 C 3.570312 -15.078125 3.992188 -15.160156 4.328125 -15.234375 C 4.660156 -15.304688 4.984375 -15.378906 5.296875 -15.453125 C 5.617188 -15.535156 6.019531 -15.648438 6.5 -15.796875 C 6.976562 -15.953125 7.640625 -16.148438 8.484375 -16.390625 L 8.484375 -19.234375 C 8.484375 -20.003906 8.476562 -20.613281 8.46875 -21.0625 C 8.457031 -21.519531 8.441406 -21.90625 8.421875 -22.21875 C 8.398438 -22.539062 8.367188 -22.894531 8.328125 -23.28125 L 10.484375 -23.03125 C 10.742188 -22.988281 10.875 -22.890625 10.875 -22.734375 C 10.875 -22.617188 10.742188 -22.46875 10.484375 -22.28125 C 10.441406 -21.425781 10.410156 -20.703125 10.390625 -20.109375 C 10.367188 -19.523438 10.351562 -18.992188 10.34375 -18.515625 C 10.332031 -18.035156 10.316406 -17.503906 10.296875 -16.921875 C 10.460938 -17.023438 10.585938 -17.113281 10.671875 -17.1875 C 10.765625 -17.269531 10.890625 -17.398438 11.046875 -17.578125 L 12.34375 -16.390625 C 12.5 -16.222656 12.578125 -16.082031 12.578125 -15.96875 C 12.578125 -15.769531 12.359375 -15.628906 11.921875 -15.546875 C 11.597656 -15.203125 11.328125 -14.914062 11.109375 -14.6875 C 10.890625 -14.457031 10.613281 -14.144531 10.28125 -13.75 C 10.257812 -13.1875 10.25 -12.753906 10.25 -12.453125 C 10.25 -12.160156 10.238281 -11.820312 10.21875 -11.4375 C 10.8125 -12.15625 11.296875 -12.734375 11.671875 -13.171875 C 12.054688 -13.617188 12.375 -13.976562 12.625 -14.25 C 12.875 -14.53125 13.09375 -14.773438 13.28125 -14.984375 C 13.46875 -15.203125 13.671875 -15.429688 13.890625 -15.671875 C 14.648438 -16.503906 15.304688 -17.144531 15.859375 -17.59375 C 16.410156 -18.039062 16.9375 -18.351562 17.4375 -18.53125 C 17.9375 -18.71875 18.492188 -18.8125 19.109375 -18.8125 C 20.066406 -18.8125 20.8125 -18.570312 21.34375 -18.09375 C 21.875 -17.613281 22.140625 -16.9375 22.140625 -16.0625 C 22.140625 -15.738281 22.128906 -15.378906 22.109375 -14.984375 C 22.085938 -14.597656 22.046875 -14.1875 21.984375 -13.75 C 21.703125 -11.269531 21.484375 -9.191406 21.328125 -7.515625 C 21.179688 -5.835938 21.109375 -4.691406 21.109375 -4.078125 C 21.109375 -3.578125 21.179688 -3.234375 21.328125 -3.046875 C 21.484375 -2.867188 21.753906 -2.78125 22.140625 -2.78125 C 22.554688 -2.78125 22.992188 -2.863281 23.453125 -3.03125 C 23.910156 -3.207031 24.359375 -3.457031 24.796875 -3.78125 C 25.335938 -4.175781 25.8125 -4.632812 26.21875 -5.15625 C 26.632812 -5.675781 27.109375 -6.425781 27.640625 -7.40625 C 27.847656 -7.144531 28.0625 -6.894531 28.28125 -6.65625 C 28.5 -6.425781 28.753906 -6.191406 29.046875 -5.953125 C 27.148438 -2.484375 24.796875 -0.75 21.984375 -0.75 C 20.941406 -0.75 20.191406 -1.003906 19.734375 -1.515625 C 19.273438 -2.023438 19.046875 -2.847656 19.046875 -3.984375 C 19.046875 -4.359375 19.050781 -4.710938 19.0625 -5.046875 C 19.070312 -5.378906 19.101562 -5.820312 19.15625 -6.375 C 19.207031 -6.9375 19.285156 -7.726562 19.390625 -8.75 C 19.503906 -9.769531 19.660156 -11.15625 19.859375 -12.90625 C 19.921875 -13.46875 19.972656 -14.039062 20.015625 -14.625 C 20.066406 -15.21875 20.09375 -15.632812 20.09375 -15.875 C 20.09375 -16.675781 19.734375 -17.078125 19.015625 -17.078125 C 18.578125 -17.078125 18.144531 -16.972656 17.71875 -16.765625 C 17.289062 -16.566406 16.800781 -16.21875 16.25 -15.71875 C 15.695312 -15.226562 15.023438 -14.519531 14.234375 -13.59375 C 14.023438 -13.394531 13.59375 -12.921875 12.9375 -12.171875 C 12.28125 -11.421875 11.375 -10.421875 10.21875 -9.171875 C 10.238281 -7.710938 10.25 -6.507812 10.25 -5.5625 C 10.25 -4.625 10.253906 -3.859375 10.265625 -3.265625 C 10.273438 -2.679688 10.28125 -2.191406 10.28125 -1.796875 C 10.289062 -1.398438 10.300781 -1.015625 10.3125 -0.640625 C 10.320312 -0.273438 10.335938 0.15625 10.359375 0.65625 L 8.125 0.75 C 8.125 0.625 8.140625 -0.109375 8.171875 -1.453125 C 8.210938 -2.796875 8.273438 -4.738281 8.359375 -7.28125 L 6.140625 -4.25 C 6.078125 -4.175781 5.960938 -4.019531 5.796875 -3.78125 C 5.628906 -3.550781 5.40625 -3.257812 5.125 -2.90625 C 4.800781 -2.53125 4.554688 -2.226562 4.390625 -2 C 4.222656 -1.78125 4.023438 -1.515625 3.796875 -1.203125 L 2.609375 -3.140625 C 3.242188 -3.816406 3.929688 -4.613281 4.671875 -5.53125 C 5.410156 -6.457031 6.113281 -7.394531 6.78125 -8.34375 C 7.445312 -9.289062 7.992188 -10.132812 8.421875 -10.875 Z M 8.421875 -10.875 "/></g></g></g></svg>