<svg xmlns="http://www.w3.org/2000/svg" xmlns:xlink="http://www.w3.org/1999/xlink" width="40" zoomAndPan="magnify" viewBox="0 0 30 112.499997" height="150" preserveAspectRatio="xMidYMid meet" version="1.0"><defs><g/></defs><g fill="#000000" fill-opacity="1"><g transform="translate(0.804248, 23.599137)"><g><path d="M 3.4375 -10.671875 L 2.328125 -12.75 C 2.929688 -12.976562 3.414062 -13.15625 3.78125 -13.28125 C 4.15625 -13.414062 4.5 -13.546875 4.8125 -13.671875 C 5.125 -13.796875 5.492188 -13.953125 5.921875 -14.140625 C 6.347656 -14.328125 6.921875 -14.582031 7.640625 -14.90625 C 9.285156 -15.625 10.6875 -16.1875 11.84375 -16.59375 C 13.007812 -17 14.0625 -17.285156 15 -17.453125 C 15.9375 -17.628906 16.898438 -17.71875 17.890625 -17.71875 C 20.367188 -17.71875 22.285156 -17.109375 23.640625 -15.890625 C 24.992188 -14.679688 25.671875 -12.960938 25.671875 -10.734375 C 25.671875 -7.722656 24.410156 -5.382812 21.890625 -3.71875 C 21.171875 -3.25 20.234375 -2.773438 19.078125 -2.296875 C 17.921875 -1.828125 16.691406 -1.421875 15.390625 -1.078125 C 14.910156 -0.941406 14.378906 -0.816406 13.796875 -0.703125 C 13.210938 -0.597656 12.414062 -0.441406 11.40625 -0.234375 C 11.300781 -0.609375 11.191406 -0.914062 11.078125 -1.15625 C 10.960938 -1.40625 10.753906 -1.769531 10.453125 -2.25 C 11.847656 -2.4375 13.039062 -2.628906 14.03125 -2.828125 C 15.03125 -3.023438 15.929688 -3.253906 16.734375 -3.515625 C 17.535156 -3.785156 18.335938 -4.097656 19.140625 -4.453125 C 22.128906 -5.859375 23.625 -7.929688 23.625 -10.671875 C 23.625 -12.359375 23.128906 -13.65625 22.140625 -14.5625 C 21.160156 -15.46875 19.753906 -15.921875 17.921875 -15.921875 C 16.648438 -15.921875 15.351562 -15.738281 14.03125 -15.375 C 12.71875 -15.019531 11.171875 -14.421875 9.390625 -13.578125 C 8.253906 -13.046875 7.363281 -12.625 6.71875 -12.3125 C 6.082031 -12 5.582031 -11.753906 5.21875 -11.578125 C 4.863281 -11.410156 4.5625 -11.265625 4.3125 -11.140625 C 4.070312 -11.015625 3.78125 -10.859375 3.4375 -10.671875 Z M 3.4375 -10.671875 "/></g></g></g><g fill="#000000" fill-opacity="1"><g transform="translate(0.804248, 52.012809)"><g><path d="M 23.34375 -22.484375 L 24.296875 -23.65625 C 24.984375 -23.238281 25.582031 -22.820312 26.09375 -22.40625 C 26.601562 -22 27.207031 -21.46875 27.90625 -20.8125 L 26.765625 -19.53125 C 26.335938 -20.007812 25.957031 -20.398438 25.625 -20.703125 C 25.289062 -21.015625 24.945312 -21.304688 24.59375 -21.578125 C 24.25 -21.859375 23.832031 -22.160156 23.34375 -22.484375 Z M 3.40625 -10.671875 L 2.296875 -12.75 C 2.898438 -12.976562 3.382812 -13.15625 3.75 -13.28125 C 4.125 -13.414062 4.46875 -13.546875 4.78125 -13.671875 C 5.09375 -13.796875 5.460938 -13.953125 5.890625 -14.140625 C 6.316406 -14.328125 6.890625 -14.582031 7.609375 -14.90625 C 9.253906 -15.625 10.660156 -16.1875 11.828125 -16.59375 C 12.992188 -17 14.039062 -17.285156 14.96875 -17.453125 C 15.90625 -17.628906 16.867188 -17.71875 17.859375 -17.71875 C 20.335938 -17.71875 22.253906 -17.109375 23.609375 -15.890625 C 24.960938 -14.679688 25.640625 -12.960938 25.640625 -10.734375 C 25.640625 -7.722656 24.378906 -5.382812 21.859375 -3.71875 C 21.140625 -3.25 20.203125 -2.773438 19.046875 -2.296875 C 17.890625 -1.828125 16.660156 -1.421875 15.359375 -1.078125 C 14.890625 -0.941406 14.359375 -0.816406 13.765625 -0.703125 C 13.179688 -0.597656 12.390625 -0.441406 11.390625 -0.234375 C 11.273438 -0.609375 11.160156 -0.914062 11.046875 -1.15625 C 10.929688 -1.40625 10.722656 -1.769531 10.421875 -2.25 C 11.816406 -2.4375 13.007812 -2.628906 14 -2.828125 C 15 -3.023438 15.898438 -3.253906 16.703125 -3.515625 C 17.515625 -3.785156 18.316406 -4.097656 19.109375 -4.453125 C 22.097656 -5.859375 23.59375 -7.929688 23.59375 -10.671875 C 23.59375 -12.359375 23.097656 -13.65625 22.109375 -14.5625 C 21.128906 -15.46875 19.722656 -15.921875 17.890625 -15.921875 C 16.617188 -15.921875 15.320312 -15.738281 14 -15.375 C 12.6875 -15.019531 11.144531 -14.421875 9.375 -13.578125 C 8.238281 -13.046875 7.347656 -12.625 6.703125 -12.3125 C 6.054688 -12 5.550781 -11.753906 5.1875 -11.578125 C 4.832031 -11.410156 4.53125 -11.265625 4.28125 -11.140625 C 4.039062 -11.015625 3.75 -10.859375 3.40625 -10.671875 Z M 21.234375 -20.015625 L 22.234375 -21.171875 C 22.890625 -20.765625 23.476562 -20.351562 24 -19.9375 C 24.519531 -19.53125 25.125 -19 25.8125 -18.34375 L 24.671875 -17.0625 C 24.234375 -17.53125 23.847656 -17.921875 23.515625 -18.234375 C 23.191406 -18.546875 22.851562 -18.835938 22.5 -19.109375 C 22.144531 -19.390625 21.722656 -19.691406 21.234375 -20.015625 Z M 21.234375 -20.015625 "/></g></g></g><g fill="#000000" fill-opacity="1"><g transform="translate(0.804248, 80.99602)"><g><path d="M 18.9375 -20.8125 L 19.734375 -19.140625 C 18.617188 -18.703125 17.695312 -18.351562 16.96875 -18.09375 C 16.238281 -17.84375 15.503906 -17.613281 14.765625 -17.40625 C 14.859375 -17.125 14.941406 -16.878906 15.015625 -16.671875 C 15.085938 -16.472656 15.171875 -16.253906 15.265625 -16.015625 C 15.367188 -15.785156 15.503906 -15.472656 15.671875 -15.078125 C 15.835938 -14.691406 16.070312 -14.171875 16.375 -13.515625 C 17.414062 -13.890625 18.34375 -14.257812 19.15625 -14.625 C 19.976562 -15 20.765625 -15.40625 21.515625 -15.84375 L 22.421875 -14.203125 C 20.492188 -13.191406 18.742188 -12.429688 17.171875 -11.921875 C 17.703125 -10.953125 18.164062 -10.140625 18.5625 -9.484375 C 18.957031 -8.835938 19.359375 -8.234375 19.765625 -7.671875 C 20.179688 -7.117188 20.679688 -6.484375 21.265625 -5.765625 L 19.671875 -4.421875 C 17.929688 -5.691406 15.867188 -6.328125 13.484375 -6.328125 C 12.140625 -6.328125 11.0625 -6.066406 10.25 -5.546875 C 9.4375 -5.023438 9.03125 -4.335938 9.03125 -3.484375 C 9.03125 -2.453125 9.503906 -1.691406 10.453125 -1.203125 C 11.398438 -0.722656 12.882812 -0.484375 14.90625 -0.484375 C 15.457031 -0.484375 15.941406 -0.5 16.359375 -0.53125 C 16.785156 -0.570312 17.359375 -0.628906 18.078125 -0.703125 C 17.765625 -0.00390625 17.609375 0.613281 17.609375 1.15625 L 17.609375 1.390625 C 17.128906 1.410156 16.742188 1.425781 16.453125 1.4375 C 16.160156 1.457031 15.796875 1.46875 15.359375 1.46875 C 14.066406 1.46875 13 1.40625 12.15625 1.28125 C 11.320312 1.164062 10.582031 0.96875 9.9375 0.6875 C 9.0625 0.300781 8.363281 -0.253906 7.84375 -0.984375 C 7.320312 -1.710938 7.0625 -2.507812 7.0625 -3.375 C 7.0625 -4.78125 7.644531 -5.890625 8.8125 -6.703125 C 9.976562 -7.515625 11.566406 -7.921875 13.578125 -7.921875 C 14.421875 -7.921875 15.160156 -7.859375 15.796875 -7.734375 C 16.429688 -7.609375 17.1875 -7.367188 18.0625 -7.015625 C 17.757812 -7.453125 17.515625 -7.804688 17.328125 -8.078125 C 17.148438 -8.347656 16.984375 -8.609375 16.828125 -8.859375 C 16.679688 -9.117188 16.503906 -9.441406 16.296875 -9.828125 C 16.085938 -10.222656 15.8125 -10.742188 15.46875 -11.390625 C 14.539062 -11.117188 13.644531 -10.898438 12.78125 -10.734375 C 11.925781 -10.578125 11.195312 -10.5 10.59375 -10.5 C 8.832031 -10.5 7.953125 -11.191406 7.953125 -12.578125 C 7.953125 -12.804688 7.988281 -13.039062 8.0625 -13.28125 C 8.132812 -13.53125 8.265625 -13.84375 8.453125 -14.21875 L 10.015625 -13.578125 C 9.828125 -13.253906 9.734375 -13.015625 9.734375 -12.859375 C 9.734375 -12.503906 10.03125 -12.328125 10.625 -12.328125 C 11.65625 -12.328125 13 -12.550781 14.65625 -13 L 14.140625 -14.203125 C 13.910156 -14.722656 13.734375 -15.128906 13.609375 -15.421875 C 13.484375 -15.722656 13.378906 -15.976562 13.296875 -16.1875 C 13.210938 -16.40625 13.113281 -16.648438 13 -16.921875 C 12.351562 -16.765625 11.722656 -16.628906 11.109375 -16.515625 C 10.492188 -16.410156 9.757812 -16.289062 8.90625 -16.15625 C 8.0625 -16.019531 6.96875 -15.859375 5.625 -15.671875 L 5.25 -17.515625 C 5.894531 -17.554688 6.65625 -17.632812 7.53125 -17.75 C 8.414062 -17.863281 9.28125 -17.988281 10.125 -18.125 C 10.976562 -18.269531 11.65625 -18.398438 12.15625 -18.515625 C 12.25 -18.546875 12.3125 -18.5625 12.34375 -18.5625 C 12.382812 -18.5625 12.425781 -18.570312 12.46875 -18.59375 C 12.445312 -18.664062 12.421875 -18.738281 12.390625 -18.8125 C 12.359375 -18.894531 12.304688 -19.054688 12.234375 -19.296875 C 12.160156 -19.546875 12.019531 -19.957031 11.8125 -20.53125 C 11.738281 -20.769531 11.679688 -20.953125 11.640625 -21.078125 C 11.597656 -21.203125 11.515625 -21.472656 11.390625 -21.890625 C 11.328125 -22.117188 11.285156 -22.269531 11.265625 -22.34375 C 11.253906 -22.414062 11.195312 -22.578125 11.09375 -22.828125 L 13.28125 -23.046875 C 13.570312 -23.085938 13.71875 -22.96875 13.71875 -22.6875 C 13.71875 -22.613281 13.695312 -22.546875 13.65625 -22.484375 C 13.613281 -22.429688 13.488281 -22.316406 13.28125 -22.140625 C 13.4375 -21.671875 13.550781 -21.285156 13.625 -20.984375 C 13.695312 -20.679688 13.78125 -20.390625 13.875 -20.109375 C 13.976562 -19.835938 14.09375 -19.484375 14.21875 -19.046875 C 14.8125 -19.222656 15.328125 -19.382812 15.765625 -19.53125 C 16.210938 -19.6875 16.679688 -19.863281 17.171875 -20.0625 C 17.671875 -20.257812 18.257812 -20.507812 18.9375 -20.8125 Z M 18.9375 -20.8125 "/></g></g></g><g fill="#000000" fill-opacity="1"><g transform="translate(0.804248, 109.49664)"><g><path d="M 16.0625 -10.703125 L 16.0625 -10.21875 C 17.09375 -10.769531 17.9375 -11.210938 18.59375 -11.546875 C 19.257812 -11.890625 19.835938 -12.195312 20.328125 -12.46875 C 20.816406 -12.75 21.300781 -13.03125 21.78125 -13.3125 C 22.269531 -13.59375 22.851562 -13.9375 23.53125 -14.34375 L 24.84375 -13 C 24.957031 -12.882812 25.015625 -12.753906 25.015625 -12.609375 C 25.015625 -12.429688 24.890625 -12.34375 24.640625 -12.34375 C 24.585938 -12.34375 24.519531 -12.347656 24.4375 -12.359375 C 24.363281 -12.367188 24.28125 -12.382812 24.1875 -12.40625 C 22.632812 -11.644531 21.1875 -10.914062 19.84375 -10.21875 C 18.5 -9.519531 17.238281 -8.835938 16.0625 -8.171875 L 16.0625 -2.921875 L 14.21875 -2.921875 L 14.21875 -7.125 C 14.070312 -7.050781 13.960938 -6.992188 13.890625 -6.953125 C 13.828125 -6.921875 13.664062 -6.828125 13.40625 -6.671875 C 11.320312 -5.554688 10.28125 -4.34375 10.28125 -3.03125 C 10.28125 -2.28125 10.644531 -1.753906 11.375 -1.453125 C 12.113281 -1.148438 13.429688 -1 15.328125 -1 C 16.734375 -1 18.082031 -1.050781 19.375 -1.15625 C 20.675781 -1.269531 21.851562 -1.453125 22.90625 -1.703125 C 22.8125 -1.234375 22.75 -0.882812 22.71875 -0.65625 C 22.695312 -0.425781 22.675781 -0.101562 22.65625 0.3125 C 21.800781 0.445312 21.003906 0.550781 20.265625 0.625 C 19.523438 0.695312 18.773438 0.753906 18.015625 0.796875 C 17.265625 0.835938 16.425781 0.859375 15.5 0.859375 C 13.875 0.859375 12.601562 0.769531 11.6875 0.59375 C 10.78125 0.425781 10.070312 0.148438 9.5625 -0.234375 C 8.726562 -0.910156 8.3125 -1.789062 8.3125 -2.875 C 8.3125 -4.519531 9.210938 -5.984375 11.015625 -7.265625 C 11.316406 -7.472656 11.578125 -7.644531 11.796875 -7.78125 C 12.015625 -7.925781 12.300781 -8.101562 12.65625 -8.3125 C 13.019531 -8.519531 13.539062 -8.828125 14.21875 -9.234375 L 14.21875 -10.046875 C 14.21875 -10.804688 14.097656 -11.347656 13.859375 -11.671875 C 13.628906 -12.003906 13.238281 -12.171875 12.6875 -12.171875 C 11.4375 -12.171875 10.066406 -11.453125 8.578125 -10.015625 C 8.347656 -9.796875 8.140625 -9.582031 7.953125 -9.375 C 7.765625 -9.175781 7.5625 -8.921875 7.34375 -8.609375 C 7.125 -8.296875 6.820312 -7.867188 6.4375 -7.328125 L 4.796875 -8.40625 C 5.398438 -9.144531 5.953125 -9.878906 6.453125 -10.609375 C 6.960938 -11.347656 7.457031 -12.144531 7.9375 -13 C 8.414062 -13.851562 8.929688 -14.828125 9.484375 -15.921875 C 9.203125 -15.910156 8.941406 -15.898438 8.703125 -15.890625 C 8.460938 -15.878906 8.164062 -15.875 7.8125 -15.875 C 7.257812 -15.875 6.757812 -15.878906 6.3125 -15.890625 C 5.875 -15.910156 5.3125 -15.941406 4.625 -15.984375 L 4.578125 -17.796875 C 5.179688 -17.765625 5.640625 -17.734375 5.953125 -17.703125 C 6.273438 -17.671875 6.5625 -17.648438 6.8125 -17.640625 C 7.0625 -17.628906 7.363281 -17.625 7.71875 -17.625 C 8.15625 -17.625 8.554688 -17.632812 8.921875 -17.65625 C 9.296875 -17.675781 9.75 -17.695312 10.28125 -17.71875 C 10.519531 -18.269531 10.765625 -18.882812 11.015625 -19.5625 C 11.273438 -20.238281 11.503906 -20.882812 11.703125 -21.5 C 11.910156 -22.113281 12.039062 -22.59375 12.09375 -22.9375 L 14.03125 -22.484375 C 14.195312 -22.441406 14.28125 -22.335938 14.28125 -22.171875 C 14.28125 -22.023438 14.097656 -21.875 13.734375 -21.71875 C 13.628906 -21.457031 13.53125 -21.234375 13.4375 -21.046875 C 13.351562 -20.867188 13.269531 -20.664062 13.1875 -20.4375 C 13.101562 -20.207031 12.988281 -19.898438 12.84375 -19.515625 C 12.707031 -19.128906 12.503906 -18.597656 12.234375 -17.921875 C 12.972656 -18.015625 13.632812 -18.113281 14.21875 -18.21875 C 14.8125 -18.320312 15.40625 -18.453125 16 -18.609375 C 16.59375 -18.765625 17.269531 -18.957031 18.03125 -19.1875 L 18.546875 -17.578125 C 17.273438 -17.179688 16.078125 -16.867188 14.953125 -16.640625 C 13.835938 -16.410156 12.664062 -16.21875 11.4375 -16.0625 C 11.113281 -15.363281 10.789062 -14.679688 10.46875 -14.015625 C 10.15625 -13.359375 9.894531 -12.867188 9.6875 -12.546875 C 10.914062 -13.335938 12.054688 -13.734375 13.109375 -13.734375 C 14.003906 -13.734375 14.71875 -13.453125 15.25 -12.890625 C 15.789062 -12.335938 16.0625 -11.609375 16.0625 -10.703125 Z M 16.0625 -10.703125 "/></g></g></g></svg>