<svg xmlns="http://www.w3.org/2000/svg" xmlns:xlink="http://www.w3.org/1999/xlink" width="49" zoomAndPan="magnify" viewBox="0 0 36.75 112.499997" height="150" preserveAspectRatio="xMidYMid meet" version="1.2"><defs/><g id="49b7be5365"><g style="fill:#000000;fill-opacity:1;"><g transform="translate(-0.783473, 29.91997)"><path style="stroke:none" d="M 4.71875 -14.671875 L 3.203125 -17.515625 C 4.035156 -17.828125 4.703125 -18.070312 5.203125 -18.25 C 5.710938 -18.4375 6.179688 -18.613281 6.609375 -18.78125 C 7.035156 -18.957031 7.539062 -19.171875 8.125 -19.421875 C 8.71875 -19.679688 9.507812 -20.035156 10.5 -20.484375 C 12.757812 -21.472656 14.6875 -22.242188 16.28125 -22.796875 C 17.882812 -23.359375 19.328125 -23.753906 20.609375 -23.984375 C 21.898438 -24.222656 23.222656 -24.34375 24.578125 -24.34375 C 27.984375 -24.34375 30.613281 -23.507812 32.46875 -21.84375 C 34.332031 -20.1875 35.265625 -17.820312 35.265625 -14.75 C 35.265625 -10.613281 33.535156 -7.398438 30.078125 -5.109375 C 29.085938 -4.460938 27.800781 -3.8125 26.21875 -3.15625 C 24.632812 -2.507812 22.941406 -1.953125 21.140625 -1.484375 C 20.492188 -1.296875 19.765625 -1.125 18.953125 -0.96875 C 18.148438 -0.8125 17.0625 -0.59375 15.6875 -0.3125 C 15.53125 -0.832031 15.375 -1.257812 15.21875 -1.59375 C 15.0625 -1.9375 14.773438 -2.429688 14.359375 -3.078125 C 16.285156 -3.335938 17.929688 -3.601562 19.296875 -3.875 C 20.660156 -4.15625 21.894531 -4.476562 23 -4.84375 C 24.101562 -5.207031 25.203125 -5.632812 26.296875 -6.125 C 30.398438 -8.050781 32.453125 -10.898438 32.453125 -14.671875 C 32.453125 -16.984375 31.773438 -18.765625 30.421875 -20.015625 C 29.078125 -21.265625 27.144531 -21.890625 24.625 -21.890625 C 22.875 -21.890625 21.09375 -21.640625 19.28125 -21.140625 C 17.476562 -20.648438 15.359375 -19.820312 12.921875 -18.65625 C 11.359375 -17.925781 10.132812 -17.34375 9.25 -16.90625 C 8.363281 -16.476562 7.671875 -16.144531 7.171875 -15.90625 C 6.679688 -15.675781 6.265625 -15.476562 5.921875 -15.3125 C 5.585938 -15.144531 5.1875 -14.929688 4.71875 -14.671875 Z M 4.71875 -14.671875 "/></g></g><g style="fill:#000000;fill-opacity:1;"><g transform="translate(-0.783473, 68.657015)"><path style="stroke:none" d="M 22.546875 -30.4375 L 25.171875 -28.828125 C 25.453125 -28.648438 25.59375 -28.441406 25.59375 -28.203125 C 25.59375 -27.921875 25.253906 -27.726562 24.578125 -27.625 C 24.109375 -27.070312 23.441406 -26.34375 22.578125 -25.4375 C 21.722656 -24.53125 20.78125 -23.554688 19.75 -22.515625 C 18.726562 -21.472656 17.71875 -20.457031 16.71875 -19.46875 C 15.71875 -18.476562 14.835938 -17.632812 14.078125 -16.9375 C 13.429688 -16.332031 13.015625 -15.925781 12.828125 -15.71875 C 12.648438 -15.507812 12.5625 -15.34375 12.5625 -15.21875 C 12.5625 -14.976562 12.796875 -14.625 13.265625 -14.15625 C 15.609375 -11.789062 17.773438 -9.441406 19.765625 -7.109375 C 21.753906 -4.785156 23.738281 -2.3125 25.71875 0.3125 L 22.984375 2.265625 C 22.460938 1.398438 21.878906 0.492188 21.234375 -0.453125 C 20.597656 -1.398438 19.984375 -2.273438 19.390625 -3.078125 C 19.003906 -3.628906 18.457031 -4.332031 17.75 -5.1875 C 17.050781 -6.050781 16.289062 -6.957031 15.46875 -7.90625 C 14.644531 -8.851562 13.863281 -9.753906 13.125 -10.609375 C 12.382812 -11.472656 11.753906 -12.164062 11.234375 -12.6875 C 10.640625 -13.28125 10.226562 -13.742188 10 -14.078125 C 9.78125 -14.421875 9.671875 -14.757812 9.671875 -15.09375 C 9.671875 -15.507812 9.875 -15.984375 10.28125 -16.515625 C 10.6875 -17.054688 11.382812 -17.78125 12.375 -18.6875 C 13.019531 -19.28125 13.734375 -19.972656 14.515625 -20.765625 C 15.296875 -21.566406 16.082031 -22.394531 16.875 -23.25 C 17.664062 -24.113281 18.398438 -24.925781 19.078125 -25.6875 C 19.753906 -26.457031 20.285156 -27.101562 20.671875 -27.625 C 21.117188 -28.21875 21.460938 -28.695312 21.703125 -29.0625 C 21.953125 -29.425781 22.234375 -29.882812 22.546875 -30.4375 Z M 22.546875 -30.4375 "/></g></g><g style="fill:#000000;fill-opacity:1;"><g transform="translate(-0.783473, 107.297213)"><path style="stroke:none" d="M 11.046875 -24.46875 L 10.265625 -27.421875 C 11.046875 -27.472656 11.976562 -27.570312 13.0625 -27.71875 C 14.15625 -27.863281 15.304688 -28.03125 16.515625 -28.21875 C 17.734375 -28.414062 18.910156 -28.625 20.046875 -28.84375 C 21.191406 -29.070312 22.207031 -29.289062 23.09375 -29.5 L 23.640625 -29.84375 L 25.828125 -27.8125 C 26.035156 -27.601562 26.140625 -27.410156 26.140625 -27.234375 C 26.140625 -27.097656 26.097656 -27.003906 26.015625 -26.953125 C 25.941406 -26.898438 25.851562 -26.847656 25.75 -26.796875 L 25.28125 -26.609375 C 23.957031 -25.046875 22.835938 -23.742188 21.921875 -22.703125 C 21.015625 -21.660156 20.207031 -20.742188 19.5 -19.953125 C 18.800781 -19.160156 18.109375 -18.394531 17.421875 -17.65625 C 16.734375 -16.914062 15.921875 -16.050781 14.984375 -15.0625 C 16.097656 -15.582031 17.054688 -15.984375 17.859375 -16.265625 C 18.671875 -16.554688 19.425781 -16.757812 20.125 -16.875 C 20.832031 -16.988281 21.585938 -17.046875 22.390625 -17.046875 C 24.265625 -17.046875 25.894531 -16.707031 27.28125 -16.03125 C 28.675781 -15.351562 29.757812 -14.410156 30.53125 -13.203125 C 31.300781 -11.992188 31.6875 -10.570312 31.6875 -8.9375 C 31.6875 -7.53125 31.40625 -6.207031 30.84375 -4.96875 C 30.28125 -3.738281 29.46875 -2.664062 28.40625 -1.75 C 26.195312 0.144531 23.164062 1.09375 19.3125 1.09375 C 16.789062 1.09375 14.847656 0.695312 13.484375 -0.09375 C 12.117188 -0.882812 11.4375 -2.023438 11.4375 -3.515625 C 11.4375 -4.660156 11.867188 -5.613281 12.734375 -6.375 C 13.609375 -7.144531 14.679688 -7.53125 15.953125 -7.53125 C 17.023438 -7.53125 18.039062 -7.273438 19 -6.765625 C 19.957031 -6.265625 20.765625 -5.570312 21.421875 -4.6875 C 21.648438 -4.34375 21.851562 -3.96875 22.03125 -3.5625 C 22.21875 -3.164062 22.46875 -2.550781 22.78125 -1.71875 C 23.75 -1.976562 24.503906 -2.242188 25.046875 -2.515625 C 25.597656 -2.785156 26.117188 -3.15625 26.609375 -3.625 C 28.066406 -5.03125 28.796875 -6.800781 28.796875 -8.9375 C 28.796875 -10.726562 28.191406 -12.171875 26.984375 -13.265625 C 25.773438 -14.359375 24.164062 -14.90625 22.15625 -14.90625 C 18.882812 -14.90625 15.476562 -13.550781 11.9375 -10.84375 C 11.445312 -10.476562 10.96875 -10.097656 10.5 -9.703125 C 10.03125 -9.316406 9.351562 -8.722656 8.46875 -7.921875 L 6.515625 -10.140625 C 7.679688 -11.160156 8.609375 -11.972656 9.296875 -12.578125 C 9.992188 -13.191406 10.539062 -13.679688 10.9375 -14.046875 C 11.34375 -14.410156 11.6875 -14.738281 11.96875 -15.03125 C 12.257812 -15.332031 12.597656 -15.679688 12.984375 -16.078125 C 13.066406 -16.148438 13.925781 -17.101562 15.5625 -18.9375 C 17.207031 -20.769531 19.601562 -23.492188 22.75 -27.109375 L 16.703125 -25.875 C 16.410156 -25.820312 15.988281 -25.726562 15.4375 -25.59375 C 14.894531 -25.46875 14.328125 -25.328125 13.734375 -25.171875 C 13.140625 -25.015625 12.59375 -24.867188 12.09375 -24.734375 C 11.601562 -24.609375 11.253906 -24.519531 11.046875 -24.46875 Z M 20.046875 -1.25 C 19.640625 -2.757812 19.109375 -3.84375 18.453125 -4.5 C 17.804688 -5.164062 16.972656 -5.5 15.953125 -5.5 C 15.304688 -5.5 14.773438 -5.320312 14.359375 -4.96875 C 13.941406 -4.625 13.734375 -4.191406 13.734375 -3.671875 C 13.734375 -2.910156 14.175781 -2.304688 15.0625 -1.859375 C 15.945312 -1.421875 17.15625 -1.203125 18.6875 -1.203125 C 18.894531 -1.203125 19.0625 -1.203125 19.1875 -1.203125 C 19.320312 -1.203125 19.609375 -1.21875 20.046875 -1.25 Z M 20.046875 -1.25 "/></g></g></g></svg>