<?xml version="1.0" encoding="UTF-8"?>
<svg id="_レイヤー_1" data-name="レイヤー_1" xmlns="http://www.w3.org/2000/svg" version="1.1" viewBox="0 0 130 130">
  <!-- Generator: Adobe Illustrator 29.8.1, SVG Export Plug-In . SVG Version: 2.1.1 Build 2)  -->
  <defs>
    <style>
      .st0 {
        fill: #ff0;
      }
    </style>
  </defs>
  <circle class="st0" cx="65" cy="65" r="63.52"/>
  <g>
    <path d="M39.57,41.71c0,.94.04,1.42.16,2.12h-1.4c.12-.69.16-1.22.16-2.12v-10.89c0-.75-.04-1.36-.16-2.18.69.04,1.22.06,2.06.06h5.27c.83,0,1.36-.04,2.12-.14v1.24c-.65-.1-1.14-.14-2.12-.14h-6.09v5.72h4.95c.83,0,1.36-.04,2.12-.14v1.24c-.65-.1-1.14-.14-2.12-.14h-4.95v5.37Z"/>
    <path d="M58.12,34.28c-.75-.22-1.1-.29-1.55-.29-1.06,0-1.93.47-2.58,1.36-.47.61-.71,1.34-.71,2.04v4.32c0,.83.04,1.34.14,2.12h-1.3c.1-.83.14-1.41.14-2.12v-6.39c0-.9-.04-1.4-.14-2.12h1.16v1.87c.85-1.47,1.87-2.06,3.56-2.06.45,0,.83.04,1.61.18l-.33,1.08Z"/>
    <path d="M61.8,38.53c0-3.4,2-5.56,5.13-5.56s5.13,2.16,5.13,5.52-2,5.56-5.07,5.56-5.19-2.14-5.19-5.52ZM62.86,38.53c0,2.85,1.57,4.6,4.09,4.6s4.05-1.75,4.05-4.64-1.55-4.62-4.01-4.62-4.13,1.77-4.13,4.66Z"/>
    <path d="M77.79,34.5c0,.18,0,.31-.04.75.47-1.38,1.87-2.28,3.56-2.28,1.16,0,2.04.37,2.63,1.08.26.35.39.63.57,1.3.35-.65.65-1.06,1.04-1.41.79-.69,1.55-.98,2.63-.98,2.34,0,3.48,1.18,3.48,3.64v5.11c0,.98.04,1.42.14,2.1h-1.3c.1-.67.14-1.16.14-2.12v-4.93c0-2.02-.79-2.91-2.57-2.91-1.89,0-3.34,1.67-3.34,3.85v4.01c0,.98.04,1.42.14,2.1h-1.3c.1-.67.14-1.16.14-2.12v-4.93c0-1.89-.88-2.91-2.48-2.91-2,0-3.44,1.63-3.44,3.85v3.99c0,.83.04,1.34.14,2.12h-1.28c.1-.71.14-1.24.14-2.12v-6.39c0-.9-.04-1.4-.14-2.12h1.14v1.3Z"/>
    <path d="M34.65,68.77c1.14,1.4,1.32,1.59,1.85,2.06h-1.71c-.22-.41-.43-.69-1.14-1.57l-5.19-6.43-2.44,2.4v3.48c0,.94.04,1.42.16,2.12h-1.36c.12-.69.16-1.22.16-2.12v-10.89c0-.88-.04-1.42-.16-2.12h1.36c-.12.69-.16,1.2-.16,2.12v6.07l6.66-6.62c.75-.75,1.08-1.14,1.32-1.57h1.71c-.22.2-.33.31-.51.49-.33.31-.61.59-.85.86-.37.39-.63.65-.69.71l-4.44,4.36,5.43,6.66Z"/>
    <path d="M40.09,65.53c0-3.4,2-5.56,5.13-5.56s5.13,2.16,5.13,5.52-2,5.56-5.07,5.56-5.19-2.14-5.19-5.52ZM41.15,65.53c0,2.85,1.57,4.6,4.09,4.6s4.05-1.75,4.05-4.64-1.55-4.62-4.01-4.62-4.13,1.77-4.13,4.66Z"/>
    <path d="M55.46,67.77c.12.77.31,1.18.73,1.59.53.49,1.42.75,2.52.75,1.89,0,3.09-.83,3.09-2.16,0-1.24-.59-1.65-3.2-2.18-1.69-.35-2.46-.63-3.07-1.14-.49-.41-.75-1.04-.75-1.77,0-1.75,1.53-2.91,3.77-2.91,1.22,0,2.2.3,2.87.88.53.43.81.9,1.06,1.77l-1.08.25c-.12-.59-.24-.86-.55-1.16-.53-.55-1.3-.83-2.26-.83-1.61,0-2.75.83-2.75,2.04,0,.61.35,1.08,1.02,1.36.47.2,1.02.37,2.06.61,1.73.39,2.28.57,2.81.9.77.49,1.14,1.2,1.14,2.18,0,1.91-1.61,3.09-4.23,3.09-1.69,0-3.03-.53-3.73-1.47-.29-.41-.43-.75-.59-1.55l1.14-.24Z"/>
    <path d="M75.17,69.22c0-.24.02-.55.06-.92-.75,1.77-2.2,2.75-4.11,2.75-2.3,0-3.64-1.36-3.64-3.64v-5.09c0-.81-.04-1.51-.14-2.12h1.32c-.1.61-.14,1.28-.14,2.12v4.86c0,1,.26,1.77.75,2.26.47.45,1.14.71,1.89.71s1.38-.18,2-.57c1.06-.67,2.02-2.3,2.02-3.4v-3.87c0-.79-.04-1.42-.14-2.12h1.3c-.1.65-.14,1.3-.14,2.12v6.39c0,.81.04,1.36.16,2.12h-1.18v-1.61Z"/>
    <path d="M89.81,69.7c0-.41.02-.75.08-1.22-.75,1.61-2.22,2.5-4.15,2.5-2.97,0-4.8-2.08-4.8-5.5s1.87-5.52,4.84-5.52c1.87,0,3.32.88,4.11,2.46-.06-.53-.08-.88-.08-1.42v-3.2c0-.79-.04-1.38-.14-2.12h1.28c-.1.73-.14,1.3-.14,2.1v10.87c0,.94.04,1.4.14,2.16h-1.14v-1.12ZM85.74,70.09c2.52,0,4.09-1.77,4.09-4.62s-1.57-4.6-4.05-4.6-3.79,1.75-3.79,4.64,1.36,4.58,3.75,4.58Z"/>
    <path d="M95.53,65.53c0-3.4,2-5.56,5.13-5.56s5.13,2.16,5.13,5.52-2,5.56-5.07,5.56-5.19-2.14-5.19-5.52ZM96.59,65.53c0,2.85,1.57,4.6,4.09,4.6s4.05-1.75,4.05-4.64-1.55-4.62-4.01-4.62-4.13,1.77-4.13,4.66Z"/>
    <path d="M36.75,94.93c.16.24.41.63,1.2,1.93-.06-1.53-.1-2.38-.1-2.52v-9.53c0-.92-.04-1.4-.16-2.12h1.36c-.12.69-.16,1.2-.16,2.12v10.89c0,.96.04,1.46.16,2.12h-1.71c-.22-.49-.47-.92-.98-1.67l-7.14-10.75c-.18-.29-.45-.71-.98-1.63.06.75.08,1.59.08,2.22v9.71c0,.94.04,1.42.16,2.12h-1.36c.12-.69.16-1.22.16-2.12v-10.89c0-.88-.04-1.42-.16-2.12h1.63c.18.45.39.81.96,1.67l7.04,10.56Z"/>
    <path d="M45.71,82.7v1.45h-1.49v-1.45h1.49ZM45.61,87.2c-.1.69-.14,1.2-.14,2.14v6.37c0,.83.04,1.34.14,2.12h-1.3c.1-.85.14-1.38.14-2.12v-6.39c0-.9-.04-1.41-.14-2.12h1.3Z"/>
    <path d="M52.24,82.7v1.45h-1.49v-1.45h1.49ZM52.14,87.2c-.1.69-.14,1.2-.14,2.14v6.37c0,.83.04,1.34.14,2.12h-1.3c.1-.85.14-1.38.14-2.12v-6.39c0-.9-.04-1.41-.14-2.12h1.3Z"/>
    <path d="M58.27,99.8c.31.45.45.61.77.86.79.63,1.61.9,2.69.9,1.99,0,3.17-.83,3.68-2.61.16-.57.24-1.2.26-2.08.02-.49.04-.67.08-1.32-.81,1.65-2.16,2.46-4.11,2.46-3.01,0-4.84-2.06-4.84-5.43s1.91-5.58,4.93-5.58c1.91,0,3.26.83,4.03,2.48-.04-.35-.06-.59-.06-.9v-1.38h1.12c-.1.75-.14,1.22-.14,2.16v7.53c0,3.81-1.57,5.56-5.01,5.56-1.85,0-2.97-.53-4.29-2.02l.9-.63ZM61.61,97.11c2.46,0,4.07-1.85,4.07-4.7s-1.51-4.52-3.95-4.52-3.87,1.77-3.87,4.68,1.38,4.54,3.75,4.54Z"/>
    <path d="M79.04,96.24c-.83.77-1.24,1.08-1.91,1.36-.65.26-1.45.43-2.18.43-2.04,0-3.3-1.14-3.3-2.93s1.12-2.89,3.2-3.34c1.12-.24,2.02-.33,4.19-.39v-1.42c0-1.36-1-2.18-2.67-2.18-1.2,0-2.08.33-2.67,1-.26.31-.41.57-.61,1.2l-1.06-.26c.33-.86.53-1.24.9-1.63.75-.79,1.87-1.2,3.32-1.2,1.1,0,2.06.25,2.63.65.73.53,1.14,1.36,1.14,2.38v5.82c0,.81.04,1.34.16,2.1h-1.14v-1.59ZM79.04,92.27c-2.22.04-2.91.1-3.93.35-1.57.37-2.4,1.24-2.4,2.5s.92,2.02,2.3,2.02c1,0,1.97-.37,2.87-1.04.53-.41.92-.9,1.04-1.28.08-.24.12-.63.12-1.08v-1.47Z"/>
    <path d="M85.74,88.09c-.69,0-1.18.04-1.83.12v-1.14c.55.1.94.12,1.83.12h.83v-.86c0-.77-.04-1.49-.14-2.12h1.3c-.1.59-.14,1.3-.14,2.12v.86h1.04c.96,0,1.4-.02,2.1-.12v1.14c-.67-.1-1.14-.12-2.12-.12h-1.02v7.49c0,.43.06.77.14.96.16.35.59.55,1.1.55.55,0,.98-.14,1.69-.59l.47,1.02c-.81.33-1.51.49-2.22.49-.9,0-1.55-.26-1.87-.79-.22-.37-.33-.83-.33-1.63v-7.49h-.83Z"/>
    <path d="M101.92,96.24c-.83.77-1.24,1.08-1.91,1.36-.65.26-1.45.43-2.18.43-2.04,0-3.3-1.14-3.3-2.93s1.12-2.89,3.2-3.34c1.12-.24,2.02-.33,4.19-.39v-1.42c0-1.36-1-2.18-2.67-2.18-1.2,0-2.08.33-2.67,1-.26.31-.41.57-.61,1.2l-1.06-.26c.33-.86.53-1.24.9-1.63.75-.79,1.87-1.2,3.32-1.2,1.1,0,2.06.25,2.63.65.73.53,1.14,1.36,1.14,2.38v5.82c0,.81.04,1.34.16,2.1h-1.14v-1.59ZM101.92,92.27c-2.22.04-2.91.1-3.93.35-1.57.37-2.4,1.24-2.4,2.5s.92,2.02,2.3,2.02c1,0,1.97-.37,2.87-1.04.53-.41.92-.9,1.04-1.28.08-.24.12-.63.12-1.08v-1.47Z"/>
  </g>
</svg>